<svg xmlns="http://www.w3.org/2000/svg" viewBox="0 0 1920 1313"><title>bg</title><path d="M1492.52-42.18S1571,302,2040.89,368.81,2209,234.21,1979.77,198.5s-397.14-212-415.84-263.17S1469.31-127.12,1492.52-42.18Z" fill="#00a7a8" opacity="0.1"/><path d="M-87,783s229.5-120.5,295.5,57.5,275-64,374,90-237,271-491,271-271-53-266-235S-87,783-87,783Z" fill="#ffecdb"/><g opacity="0.5"><path d="M234.89,101.41c-15.12,15.72-1.89,36.35,6.93,62.28S260.27,208,285,210.55s19.52-21,20.22-46S250,85.68,234.89,101.41Z" fill="none" stroke="#aad04a" stroke-miterlimit="10"/><path d="M282.08,146.75c-7.72-9.52-18.94-21.22-27.35-14.41s-2,19,6.12,33.35,19.54,15.52,23.94,10.21S288.89,155.16,282.08,146.75Z" fill="none" stroke="#aad04a" stroke-miterlimit="10"/><path d="M261.33,130.37s12.51,2.12,18.13,13.26-1.68,25.76-13.8,12.94S248.51,130.21,261.33,130.37Z" fill="none" stroke="#aad04a" stroke-miterlimit="10"/><path d="M238.55,154.69s14,35.14,28.82,40.54,32.75-.41,33.24-23.45S284.17,126,284.17,126,256,101.7,244.4,102.4s-15,6.93-14.1,29.71" fill="none" stroke="#aad04a" stroke-miterlimit="10"/></g><g opacity="0.5"><path d="M1065.43,797.59c-19.79,9.17-15,33.19-16.15,60.56s1.12,47.93,23.23,59.33S1098.33,905,1108,882,1085.23,788.42,1065.43,797.59Z" fill="none" stroke="#aad04a" stroke-miterlimit="10"/><path d="M1092.94,857c-3.73-11.66-9.94-26.65-20.25-23.35s-8.77,17-6.4,33.29,12.57,21.55,18.6,18.2S1096.23,867.28,1092.94,857Z" fill="none" stroke="#aad04a" stroke-miterlimit="10"/><path d="M1079.56,834.18s10.88,6.51,12.08,18.93-10.92,23.4-17.57,7S1067.67,829.37,1079.56,834.18Z" fill="none" stroke="#aad04a" stroke-miterlimit="10"/><path d="M1049.5,848.57s.29,37.82,12.14,48.24,30.66,11.5,39.48-9.78,1.3-48.64,1.3-48.64S1085,805.53,1073.94,802s-16.51,1-23.93,22.56" fill="none" stroke="#aad04a" stroke-miterlimit="10"/></g><g opacity="0.5"><path d="M1106.46,63.9c-7.26-1.26-10.54,6.33-16.14,13.7s-8.91,13.51-5,20.93,9.57,1.49,16.69-3S1113.71,65.17,1106.46,63.9Z" fill="none" stroke="#aad04a" stroke-miterlimit="10"/><path d="M1102.66,85.67c1.21-4,2.37-9.3-1.12-10.37s-5.71,3-8.19,8-.65,8.4,1.66,8.63S1101.59,89.17,1102.66,85.67Z" fill="none" stroke="#aad04a" stroke-miterlimit="10"/><path d="M1103.34,76.77a9.12,9.12,0,0,1-.3,7.58c-2,3.68-7.53,4.39-6.23-1.42S1101,73.15,1103.34,76.77Z" fill="none" stroke="#aad04a" stroke-miterlimit="10"/><path d="M1092.23,75s-7.2,10.55-5.92,15.72,6.3,9.09,12.84,4.88,9.72-13.24,9.72-13.24,1.49-12.46-.9-15.58-4.77-2.9-11,1.65" fill="none" stroke="#aad04a" stroke-miterlimit="10"/></g><g opacity="0.5"><path d="M60.3,463.76c-4.63,5.72.41,12.28,4.12,20.75S71.9,498.87,80.29,499s6-7.64,5.49-16.05S64.94,458,60.3,463.76Z" fill="none" stroke="#aad04a" stroke-miterlimit="10"/><path d="M77.48,477.66c-2.87-3-7-6.6-9.61-4.07s-.13,6.46,3,11.05,7,4.66,8.35,2.74S80,480.29,77.48,477.66Z" fill="none" stroke="#aad04a" stroke-miterlimit="10"/><path d="M70,472.74a9.12,9.12,0,0,1,6.48,3.94c2.21,3.59.17,8.72-4.27,4.75S65.71,473.06,70,472.74Z" fill="none" stroke="#aad04a" stroke-miterlimit="10"/><path d="M63.07,481.58S68.78,493,73.92,494.39s11-1.08,10.51-8.84-6.84-14.94-6.84-14.94-10.17-7.36-14.06-6.79-4.85,2.76-3.89,10.4" fill="none" stroke="#aad04a" stroke-miterlimit="10"/></g><g opacity="0.5"><path d="M1610.31,726.49c-11.49,14.2,1,30.47,10.22,51.49s18.54,35.62,39.37,36,14.79-18.94,13.59-39.8S1621.81,712.29,1610.31,726.49Z" fill="none" stroke="#aad04a" stroke-miterlimit="10"/><path d="M1652.92,761c-7.12-7.4-17.32-16.37-23.85-10.08s-.31,16,7.48,27.39,17.41,11.56,20.71,6.81S1659.2,767.51,1652.92,761Z" fill="none" stroke="#aad04a" stroke-miterlimit="10"/><path d="M1634.44,748.78s10.59.88,16.07,9.77.43,21.62-10.6,11.79S1623.73,749.56,1634.44,748.78Z" fill="none" stroke="#aad04a" stroke-miterlimit="10"/><path d="M1617.16,770.7s14.18,28.32,26.94,31.78,27.3-2.68,26.07-21.94-17-37-17-37-25.21-18.27-34.86-16.85-12,6.85-9.66,25.79" fill="none" stroke="#aad04a" stroke-miterlimit="10"/></g><g opacity="0.5"><path d="M107.59,920.54s-7.52,28.76-5.75,30.44,6.36,6.37,6.5-1.2,2.1-38.95,14.22-63c18.09-6,44.95-5.29,72.19-3.58s44-1.48,73.36,1.21,67.58,4.45,67.58,4.45l-.37-1s-71.4-5.39-86.22-6.38-28.18,2.1-70.24-.6c-37.12-2.39-56,3.5-56,3.5s17.77-45.2,50.33-103.87,63.11-89.41,81.76-140.15c-.74-2,1.87-7.62,1.87-7.62l-4.89,10.45s-15.9,37.59-48.78,84.22S141.17,834.3,121.4,882c-6.86-12.56-36.1-51.74-71.1-87.67-37.53-38.52-71.45-74.23-71.45-74.23s5.42,10.19,50.32,55.84,76.13,82.38,90.93,108.85C108.16,915.7,107.59,920.54,107.59,920.54Z" fill="none" stroke="#00a7a8" stroke-miterlimit="10"/><path d="M131.91,882.22s14.31,1.18,20.06,10.67,7.34,10.65,10.12,12,2.51,3.72,4.27,5.4,9.67,1.12,12.5,4.15,6.36,6.38,9.8,6.29,6.27,2.93,10,2.15,5.58,2.61,9.67,1.13,7.29,2.56,10.69.75,6.92,1.55,10.65-1,4.83.56,8.22-1.24,5.21,1.58,8.93-.92,4.46-.46,8.19-3,8.88-2.64,11.95-3.75l12.28-4.44c5.11-1.86,6.42-4.65,8.46-5.39l9.21-3.33c2.05-.74,4.05-3.2,7.12-4.32s5.07-3.57,9.53-4,8.52-3.66,15.4-3.84,12.78,1.74,4.37-3.9-11.89-7.26-11.89-7.26c-2.09-1-1.07-1.35-4.23-3.68s-2.13-2.7-6.31-4.66-3.53-3.35-8.41-5.63-1.48-4.1-6.69-5.68-3.52-3.35-7.66-3.59-4.92-4-9.76-4.57-4.55-3-8.36-3.91-4.55-3-12.5-4.16-6.6-2.24-13.15-2.76-9.71-2.84-13.81-1.36-6.92-1.55-11.67,1.33-6.55-.52-13.71,2.08-29.33-2.69-16.34-19.55,18.24-13.55,20.57-16.71,1.63-3.48,6.05-5.66,2.65-3.86,6.05-5.67,7.16-2.59,7.77-5.7,6.05-5.67,6.29-9.8,3.72-2.51,5.31-7.71,4.28-7.34,4.19-10.78,5-5.3,4.24-9.06,3.55-9.39,2.76-13.15,3.31-5.25,2.16-10,.89-5.53.06-11,3.67-4.22,1.41-12.08,2.32-3.16-1-12.37,1.17-8-.36-13.76-2.22-6.14-.63-11.34,2.8-11.44.67-14.13c2.89-8,2.67-16.6,2.21-21.06s-3.59,7.67-7.31,10.17-5.07,3.57-7.17,2.6-3.3,5.24-5.39,4.27-8.47,5.38-10.56,4.4-5.16.13-7.49,3.29-3.44.09-8.84,4.36-4.25,1-9.9,3c-3.07,1.11-5.86-.2-9.54,4s-3.76.78-8.46,5.38-3.73,2.51-9.12,6.78-4.14-.24-9.12,6.77-3.44.09-5.64,8.41-4.92-4-8.05,8.12c-3.72,2.51-5.6,8.07-5.92,10.83-.28,2.41-4.74,2.87-4,6.64s-4.05,3.2-4,6.64-7.07,6-5.87,12.54-2.57,7.3-2.11,11.76-2.28,4.88-.38,11.72-4.38,3.9-1.79,11.06-3.63,5.94-.34,13.43,5.93,16.37-4,19.38-17.19-12.29-18-17.78-2.09-1-5-7.44-5.34-6.75-9.93-11.45-6.6-2.24-10.54-8.34-3.53-3.35-10.55-8.33-7.62-1.87-11.84-5.55-7.25-.84-10.78-4.19-6.93-1.55-10.45-4.9-3.77.79-9-2.52-7.25-.85-10-2.15-4.5-1.26-8-2.89-4.09,1.48-7.95-1.18,1.44,2.38-9.75-4.56-16.82-11.27-5,5.29c.41,2.74-1.26,4.51,1.24,8.23s-.14,7.58,2.36,11.3-.19,5.86,2,10.27-1.92,5.91,2,10.28-1.21,6.23,2.69,10.6.83,5.49,2.63,8.88.83,5.49,5.1,10.89-2.61,5.57,2,10.27,3,9.91,6.82,10.84,1.57,7.54,7.14,10.15c.83,5.48,4.41,10.55,7.85,10.47s3.24,5.76,12,10.7-.89,5.53,10.91,9.36,8.5,9.08,18.82,8.81,12.69-1.7,15.19,2c2.8,4.15,22.92-14.46,33.1,1.9" fill="none" stroke="#00a7a8" stroke-miterlimit="10"/><path d="M169.05,880.92s20.49-32.89,36.17-39.14" fill="none" stroke="#00a7a8" stroke-miterlimit="10"/><path d="M194.89,882s22.32-42.22,40.18-44.06" fill="none" stroke="#00a7a8" stroke-miterlimit="10"/><path d="M264.3,844.19c-21.16,1.39-46.68,38.23-46.68,38.23s5.28,17.76,49.7,31.77" fill="none" stroke="#00a7a8" stroke-miterlimit="10"/><path d="M288.18,855.13c-18.36-4.35-45.39,26-45.39,26s11.64,13.39,45,23.89" fill="none" stroke="#00a7a8" stroke-miterlimit="10"/><path d="M310.94,870c-15.94-4.06-43,13.85-43,13.85s18.9,12.25,36.15,13.52" fill="none" stroke="#00a7a8" stroke-miterlimit="10"/><path d="M194.89,882s-6.26,24.26,43,40.55" fill="none" stroke="#00a7a8" stroke-miterlimit="10"/><path d="M166.72,882.49s7.55,27.21,41.65,41.48" fill="none" stroke="#00a7a8" stroke-miterlimit="10"/><path d="M98.7,782.56c9.09,18.7,1.82,70.52,1.82,70.52s-22.88,7.13-73.9-9.11" fill="none" stroke="#00a7a8" stroke-miterlimit="10"/><path d="M80.61,828.46s12.22-27.88-9.32-71.72" fill="none" stroke="#00a7a8" stroke-miterlimit="10"/><path d="M69.24,814.64s-3-46.91-28.42-72.16" fill="none" stroke="#00a7a8" stroke-miterlimit="10"/><path d="M45.51,789.09s2.78-25.89-19.92-51.81" fill="none" stroke="#00a7a8" stroke-miterlimit="10"/><path d="M22.9,766.61s3.42-14.55-15-35.07" fill="none" stroke="#00a7a8" stroke-miterlimit="10"/><path d="M83.38,834.53s-38.26,6.21-79.22-20.62" fill="none" stroke="#00a7a8" stroke-miterlimit="10"/><path d="M66.09,814.87s-41.46-2.62-64.76-14.71" fill="none" stroke="#00a7a8" stroke-miterlimit="10"/><path d="M44.42,791.64s-29.7-.67-50.5-16.85" fill="none" stroke="#00a7a8" stroke-miterlimit="10"/><path d="M25.72,772.4s-25.63-3.5-36.2-15.78" fill="none" stroke="#00a7a8" stroke-miterlimit="10"/><path d="M156,813.05s31.29,2.85,55.59-10.6" fill="none" stroke="#00a7a8" stroke-miterlimit="10"/><path d="M169.23,787.66s50.42-.3,75.88-27.46" fill="none" stroke="#00a7a8" stroke-miterlimit="10"/><path d="M181.42,766.1s42.05,2.22,68.58-20" fill="none" stroke="#00a7a8" stroke-miterlimit="10"/><path d="M194.58,744.81s27.49,2.9,60.44-27.55" fill="none" stroke="#00a7a8" stroke-miterlimit="10"/><path d="M211,719.87s26.24-4.36,44.75-24" fill="none" stroke="#00a7a8" stroke-miterlimit="10"/><path d="M226.29,696.55S244,690,254.37,678.72" fill="none" stroke="#00a7a8" stroke-miterlimit="10"/><path d="M224,695.5s-.85-24.58,2.15-41.87" fill="none" stroke="#00a7a8" stroke-miterlimit="10"/><path d="M210.63,716.46s-9.5-20.19,1.28-55.92" fill="none" stroke="#00a7a8" stroke-miterlimit="10"/><path d="M196.29,737.34s-16-36.4-1.12-71.9" fill="none" stroke="#00a7a8" stroke-miterlimit="10"/><path d="M182,759.85s-20.06-34.34-8.85-80.07" fill="none" stroke="#00a7a8" stroke-miterlimit="10"/><path d="M166.58,786.42S145.37,750,158.41,695" fill="none" stroke="#00a7a8" stroke-miterlimit="10"/><path d="M140.15,721.25c-14.49,65.43,12.64,92.15,12.64,92.15" fill="none" stroke="#00a7a8" stroke-miterlimit="10"/><path d="M131.7,860.88s44.43-25.93,57.18-38.65" fill="none" stroke="#00a7a8" stroke-miterlimit="10"/><path d="M136.89,849.84s-7.79-5-8.24-51.32" fill="none" stroke="#00a7a8" stroke-miterlimit="10"/></g><path d="M1833.51,50.25s8.76-33.47,6.7-35.43-7.4-7.42-7.57,1.4-2.44,45.34-16.55,73.35c-21,7-52.32,6.15-84,4.16s-51.23,1.73-85.37-1.4S1568,87.14,1568,87.14l.43,1.19s83.1,6.28,100.35,7.43,32.79-2.44,81.76.7c43.19,2.78,65.2-4.08,65.2-4.08s-20.68,52.62-58.59,120.9S1683.74,317.34,1662,376.4c.86,2.38-2.18,8.87-2.18,8.87l5.7-12.17s18.51-43.75,56.77-98,72.12-124.46,95.13-179.94c8,14.62,42,60.22,82.76,102,43.68,44.84,83.16,86.4,83.16,86.4s-6.32-11.86-58.57-65S1836.18,122.7,1819,91.9C1832.86,55.88,1833.51,50.25,1833.51,50.25Z" fill="none" stroke="#e09e6b" stroke-miterlimit="10"/><path d="M1805.21,94.86s-16.66-1.38-23.35-12.42-8.54-12.41-11.78-13.92-2.92-4.34-5-6.29-11.25-1.31-14.55-4.83-7.4-7.42-11.41-7.32-7.3-3.42-11.68-2.5-6.49-3-11.25-1.32-8.49-3-12.44-.88-8.06-1.79-12.4,1.12-5.62-.65-9.57,1.45-6.06-1.84-10.39,1.07-5.2.54-9.53,3.45-10.34,3.07-13.91,4.37L1633.69,62c-6,2.16-7.47,5.4-9.86,6.27l-10.71,3.88c-2.39.86-4.72,3.73-8.29,5s-5.9,4.16-11.1,4.69-9.9,4.26-17.91,4.47-14.88-2-5.09,4.54,13.84,8.46,13.84,8.46c2.43,1.14,1.24,1.57,4.92,4.28s2.48,3.14,7.35,5.42,4.1,3.9,9.78,6.56,1.73,4.76,7.79,6.61,4.1,3.9,8.92,4.17,5.73,4.66,11.35,5.32,5.3,3.47,9.74,4.56,5.29,3.47,14.54,4.83,7.68,2.61,15.31,3.21,11.3,3.32,16.07,1.59,8.06,1.8,13.58-1.55,7.63.61,16-2.41,34.14,3.12,19,22.74-21.23,15.78-23.94,19.45-1.9,4.06-7,6.59-3.09,4.49-7,6.6-8.34,3-9.05,6.64-7,6.59-7.31,11.41-4.34,2.91-6.18,9-5,8.54-4.89,12.55-5.85,6.16-4.94,10.54-4.12,10.92-3.21,15.31-3.85,6.11-2.5,11.68-1,6.44-.07,12.82-4.28,4.92-1.64,14.07-2.71,3.67,1.17,14.39-1.37,9.25.41,16,2.59,7.14.74,13.2-3.26,13.31-.78,16.45c-3.36,9.3-3.1,19.31-2.57,24.5s4.18-8.92,8.51-11.84,5.9-4.15,8.34-3,3.84-6.11,6.28-5,9.85-6.27,12.29-5.13,6-.15,8.71-3.83,4-.1,10.29-5.07,5-1.12,11.53-3.5c3.57-1.3,6.81.22,11.09-4.7s4.39-.91,9.86-6.26,4.33-2.92,10.61-7.89,4.82.28,10.62-7.88,4-.11,6.56-9.79,5.73,4.66,9.37-9.45c4.33-2.92,6.51-9.39,6.89-12.6.32-2.81,5.52-3.35,4.61-7.73s4.71-3.73,4.6-7.73,8.24-7,6.84-14.6,3-8.49,2.45-13.69,2.66-5.68.45-13.63,5.09-4.54,2.07-12.88,4.23-6.92.4-15.63-6.9-19.06,4.63-22.56,20,14.31,21,20.7,2.43,1.14,5.83,8.66,6.21,7.85,11.56,13.32,7.68,2.61,12.27,9.71,4.11,3.9,12.27,9.7,8.87,2.17,13.79,6.45,8.44,1,12.54,4.89,8.06,1.79,12.17,5.69,4.38-.91,10.49,2.94,8.44,1,11.69,2.5,5.24,1.47,9.3,3.37,4.76-1.73,9.25,1.36-1.68-2.76,11.35,5.32,19.57,13.12,5.85-6.16c-.48-3.19,1.47-5.25-1.44-9.58s.17-8.82-2.75-13.15.23-6.82-2.31-12,2.23-6.87-2.31-12S1969,216,1964.46,211s-1-6.39-3.07-10.34-1-6.38-5.94-12.67,3-6.49-2.31-12-3.5-11.53-7.94-12.61-1.83-8.77-8.31-11.81c-1-6.38-5.13-12.29-9.13-12.18s-3.78-6.72-14-12.47,1-6.43-12.7-10.89-9.88-10.56-21.9-10.25-14.77,2-17.69-2.35-27.23,15.93-38.51-2.21" fill="none" stroke="#e09e6b" stroke-miterlimit="10"/><path d="M1762,96.37s-23.85,38.28-42.1,45.56" fill="none" stroke="#e09e6b" stroke-miterlimit="10"/><path d="M1731.9,95.14s-26,49.15-46.76,51.29" fill="none" stroke="#e09e6b" stroke-miterlimit="10"/><path d="M1651.12,139.11c24.62-1.61,54.32-44.49,54.32-44.49s-6.14-20.68-57.84-37" fill="none" stroke="#e09e6b" stroke-miterlimit="10"/><path d="M1623.33,126.38c21.36,5.06,52.83-30.29,52.83-30.29s-13.55-15.59-52.33-27.81" fill="none" stroke="#e09e6b" stroke-miterlimit="10"/><path d="M1596.84,109c18.55,4.73,50.07-16.12,50.07-16.12s-22-14.25-42.08-15.74" fill="none" stroke="#e09e6b" stroke-miterlimit="10"/><path d="M1731.9,95.14s7.29-28.23-50.09-47.19" fill="none" stroke="#e09e6b" stroke-miterlimit="10"/><path d="M1764.69,94.54s-8.78-31.67-48.47-48.28" fill="none" stroke="#e09e6b" stroke-miterlimit="10"/><path d="M1843.86,210.85c-10.58-21.76-2.12-82.08-2.12-82.08s26.63-8.3,86,10.61" fill="none" stroke="#e09e6b" stroke-miterlimit="10"/><path d="M1864.92,157.42s-14.23,32.45,10.84,83.47" fill="none" stroke="#e09e6b" stroke-miterlimit="10"/><path d="M1878.15,173.51s3.53,54.6,33.08,84" fill="none" stroke="#e09e6b" stroke-miterlimit="10"/><path d="M1905.76,203.25s-3.23,30.13,23.19,60.3" fill="none" stroke="#e09e6b" stroke-miterlimit="10"/><path d="M1861.69,150.36s44.53-7.22,92.21,24" fill="none" stroke="#e09e6b" stroke-miterlimit="10"/><path d="M1881.82,173.24s48.25,3,75.37,17.12" fill="none" stroke="#e09e6b" stroke-miterlimit="10"/><path d="M1907,200.28s34.57.78,58.77,19.62" fill="none" stroke="#e09e6b" stroke-miterlimit="10"/><path d="M1777.18,175.36s-36.42-3.31-64.7,12.34" fill="none" stroke="#e09e6b" stroke-miterlimit="10"/><path d="M1761.78,204.91s-58.69.35-88.33,32" fill="none" stroke="#e09e6b" stroke-miterlimit="10"/><path d="M1747.58,230s-48.93-2.58-79.82,23.25" fill="none" stroke="#e09e6b" stroke-miterlimit="10"/><path d="M1732.27,254.79s-32-3.38-70.35,32.06" fill="none" stroke="#e09e6b" stroke-miterlimit="10"/><path d="M1713.15,283.81s-30.53,5.08-52.08,28" fill="none" stroke="#e09e6b" stroke-miterlimit="10"/><path d="M1695.36,311s-20.61,7.62-32.69,20.76" fill="none" stroke="#e09e6b" stroke-miterlimit="10"/><path d="M1698,312.18s1,28.61-2.49,48.73" fill="none" stroke="#e09e6b" stroke-miterlimit="10"/><path d="M1713.58,287.78s11.07,23.5-1.48,65.09" fill="none" stroke="#e09e6b" stroke-miterlimit="10"/><path d="M1730.27,263.48s18.68,42.37,1.31,83.68" fill="none" stroke="#e09e6b" stroke-miterlimit="10"/><path d="M1746.9,237.28s23.35,40,10.29,93.19" fill="none" stroke="#e09e6b" stroke-miterlimit="10"/><path d="M1764.85,206.35s24.69,42.36,9.52,106.45" fill="none" stroke="#e09e6b" stroke-miterlimit="10"/><path d="M1780.91,175s31.57,31.1,14.71,107.26" fill="none" stroke="#e09e6b" stroke-miterlimit="10"/><path d="M1805.45,119.69s-51.71,30.18-66.55,45" fill="none" stroke="#e09e6b" stroke-miterlimit="10"/><path d="M1799.41,132.54s9.07,5.81,9.59,59.73" fill="none" stroke="#e09e6b" stroke-miterlimit="10"/></svg>