<?xml version="1.0" encoding="utf-8"?>
<!-- Generator: Adobe Illustrator 23.1.1, SVG Export Plug-In . SVG Version: 6.00 Build 0)  -->
<svg version="1.1" id="Layer_1" xmlns="http://www.w3.org/2000/svg" xmlns:xlink="http://www.w3.org/1999/xlink" x="0px" y="0px"
	 viewBox="0 0 362 60.2" style="enable-background:new 0 0 362 60.2;" xml:space="preserve">
<style type="text/css">
	.st0{fill:#FF9A00;}
	.st1{fill:#555555;}
	.st2{clip-path:url(#SVGID_2_);fill:#FF9A00;}
	.st3{clip-path:url(#SVGID_4_);fill:#555555;}
	.st4{clip-path:url(#SVGID_6_);fill:#FF9A00;}
	.st5{clip-path:url(#SVGID_8_);fill:#FF9A00;}
	.st6{clip-path:url(#SVGID_10_);fill:#555555;}
	.st7{clip-path:url(#SVGID_12_);fill:#FF9A00;}
	.st8{clip-path:url(#SVGID_14_);fill:#555555;}
	.st9{clip-path:url(#SVGID_16_);fill:#555555;}
	.st10{clip-path:url(#SVGID_18_);fill:#555555;}
	.st11{clip-path:url(#SVGID_20_);fill:#555555;}
	.st12{clip-path:url(#SVGID_22_);fill:#555555;}
	.st13{clip-path:url(#SVGID_24_);fill:#FF9A00;}
	.st14{clip-path:url(#SVGID_26_);fill:#555555;}
	.st15{clip-path:url(#SVGID_28_);fill:#555555;}
</style>
<g>
	<g>
		<path class="st1" d="M35.2,1l8.6,16.4c0.3,0.5,0.8,0.9,1.4,1l18.3,3.1c1.5,0.3,2.1,2.1,1,3.2L51.6,38c-0.4,0.4-0.6,1-0.5,1.6
			L53.7,58c0.2,1.5-1.3,2.7-2.7,2l-16.6-8.2c-0.5-0.3-1.2-0.3-1.7,0L16,60c-1.4,0.7-2.9-0.5-2.7-2L16,39.6c0.1-0.6-0.1-1.2-0.5-1.6
			L2.5,24.8c-1.1-1.1-0.5-2.9,1-3.2l18.3-3.1c0.6-0.1,1.1-0.5,1.4-1L31.8,1C32.5-0.3,34.5-0.3,35.2,1z"/>
		<g>
			<defs>
				<rect id="SVGID_23_" y="-1.8" transform="matrix(-1 -1.224647e-16 1.224647e-16 -1 33.5 64.3513)" width="33.5" height="68"/>
			</defs>
			<clipPath id="SVGID_2_">
				<use xlink:href="#SVGID_23_"  style="overflow:visible;"/>
			</clipPath>
			<path class="st2" d="M31.8,1l-8.6,16.4c-0.3,0.5-0.8,0.9-1.4,1L3.5,21.6c-1.5,0.3-2.1,2.1-1,3.2L15.4,38c0.4,0.4,0.6,1,0.5,1.6
				L13.3,58c-0.2,1.5,1.3,2.7,2.7,2l16.6-8.2c0.5-0.3,1.2-0.3,1.7,0L51,60c1.4,0.7,2.9-0.5,2.7-2L51,39.6c-0.1-0.6,0.1-1.2,0.5-1.6
				l12.9-13.3c1.1-1.1,0.5-2.9-1-3.2l-18.3-3.1c-0.6-0.1-1.1-0.5-1.4-1L35.2,1C34.5-0.3,32.5-0.3,31.8,1z"/>
		</g>
	</g>
	<g>
		<path class="st1" d="M109.4,1l8.6,16.4c0.3,0.5,0.8,0.9,1.4,1l18.3,3.1c1.5,0.3,2.1,2.1,1,3.2L125.8,38c-0.4,0.4-0.6,1-0.5,1.6
			l2.7,18.4c0.2,1.5-1.3,2.7-2.7,2l-16.6-8.2c-0.5-0.3-1.2-0.3-1.7,0L90.3,60c-1.4,0.7-2.9-0.5-2.7-2l2.7-18.4
			c0.1-0.6-0.1-1.2-0.5-1.6L76.8,24.8c-1.1-1.1-0.5-2.9,1-3.2l18.3-3.1c0.6-0.1,1.1-0.5,1.4-1L106.1,1C106.8-0.3,108.7-0.3,109.4,1z
			"/>
		<g>
			<defs>
				
					<rect id="SVGID_25_" x="74.2" y="-1.8" transform="matrix(-1 -1.224647e-16 1.224647e-16 -1 182 64.3513)" width="33.5" height="68"/>
			</defs>
			<clipPath id="SVGID_4_">
				<use xlink:href="#SVGID_25_"  style="overflow:visible;"/>
			</clipPath>
			<path class="st3" d="M106.1,1l-8.6,16.4c-0.3,0.5-0.8,0.9-1.4,1l-18.3,3.1c-1.5,0.3-2.1,2.1-1,3.2L89.7,38c0.4,0.4,0.6,1,0.5,1.6
				L87.6,58c-0.2,1.5,1.3,2.7,2.7,2l16.6-8.2c0.5-0.3,1.2-0.3,1.7,0l16.6,8.2c1.4,0.7,2.9-0.5,2.7-2l-2.7-18.4
				c-0.1-0.6,0.1-1.2,0.5-1.6l12.9-13.3c1.1-1.1,0.5-2.9-1-3.2l-18.3-3.1c-0.6-0.1-1.1-0.5-1.4-1L109.4,1
				C108.7-0.3,106.8-0.3,106.1,1z"/>
		</g>
	</g>
	<path class="st1" d="M332.2,1.3l8.6,16.4c0.3,0.5,0.8,0.9,1.4,1l18.3,3.1c1.5,0.3,2.1,2.1,1,3.2l-12.9,13.3c-0.4,0.4-0.6,1-0.5,1.6
		l2.7,18.4c0.2,1.5-1.3,2.7-2.7,2L331.3,52c-0.5-0.3-1.2-0.3-1.7,0L313,60.2c-1.4,0.7-2.9-0.5-2.7-2l2.7-18.4
		c0.1-0.6-0.1-1.2-0.5-1.6L299.5,25c-1.1-1.1-0.5-2.9,1-3.2l18.3-3.1c0.6-0.1,1.1-0.5,1.4-1l8.6-16.4C329.5-0.1,331.5-0.1,332.2,1.3
		z"/>
	<path class="st1" d="M257.9,1.3l8.6,16.4c0.3,0.5,0.8,0.9,1.4,1l18.3,3.1c1.5,0.3,2.1,2.1,1,3.2l-12.9,13.3c-0.4,0.4-0.6,1-0.5,1.6
		l2.7,18.4c0.2,1.5-1.3,2.7-2.7,2L257.1,52c-0.5-0.3-1.2-0.3-1.7,0l-16.6,8.2c-1.4,0.7-2.9-0.5-2.7-2l2.7-18.4
		c0.1-0.6-0.1-1.2-0.5-1.6L225.3,25c-1.1-1.1-0.5-2.9,1-3.2l18.3-3.1c0.6-0.1,1.1-0.5,1.4-1l8.6-16.4C255.3-0.1,257.2-0.1,257.9,1.3
		z"/>
	<g>
		<path class="st1" d="M183.7,1l8.6,16.4c0.3,0.5,0.8,0.9,1.4,1l18.3,3.1c1.5,0.3,2.1,2.1,1,3.2L200.1,38c-0.4,0.4-0.6,1-0.5,1.6
			l2.7,18.4c0.2,1.5-1.3,2.7-2.7,2l-16.6-8.2c-0.5-0.3-1.2-0.3-1.7,0L164.5,60c-1.4,0.7-2.9-0.5-2.7-2l2.7-18.4
			c0.1-0.6-0.1-1.2-0.5-1.6L151,24.8c-1.1-1.1-0.5-2.9,1-3.2l18.3-3.1c0.6-0.1,1.1-0.5,1.4-1L180.3,1C181-0.3,183-0.3,183.7,1z"/>
		<g>
			<defs>
				
					<rect id="SVGID_27_" x="148.5" y="-1.8" transform="matrix(-1 -1.224647e-16 1.224647e-16 -1 330.5 64.3513)" width="33.5" height="68"/>
			</defs>
			<clipPath id="SVGID_6_">
				<use xlink:href="#SVGID_27_"  style="overflow:visible;"/>
			</clipPath>
			<path style="clip-path:url(#SVGID_6_);fill:#555555;" d="M180.3,1l-8.6,16.4c-0.3,0.5-0.8,0.9-1.4,1L152,21.6
				c-1.5,0.3-2.1,2.1-1,3.2L163.9,38c0.4,0.4,0.6,1,0.5,1.6L161.8,58c-0.2,1.5,1.3,2.7,2.7,2l16.6-8.2c0.5-0.3,1.2-0.3,1.7,0
				l16.6,8.2c1.4,0.7,2.9-0.5,2.7-2l-2.7-18.4c-0.1-0.6,0.1-1.2,0.5-1.6L213,24.8c1.1-1.1,0.5-2.9-1-3.2l-18.3-3.1
				c-0.6-0.1-1.1-0.5-1.4-1L183.7,1C183-0.3,181-0.3,180.3,1z"/>
		</g>
	</g>
</g>
</svg>
