<?xml version="1.0" encoding="utf-8"?>
<!-- Generator: Adobe Illustrator 23.1.1, SVG Export Plug-In . SVG Version: 6.00 Build 0)  -->
<svg version="1.1" id="Layer_1" xmlns="http://www.w3.org/2000/svg" xmlns:xlink="http://www.w3.org/1999/xlink" x="0px" y="0px"
	 viewBox="0 0 360.1 60.2" style="enable-background:new 0 0 360.1 60.2;" xml:space="preserve">
<style type="text/css">
	.st0{fill:#FF9A00;}
	.st1{fill:#555555;}
	.st2{clip-path:url(#SVGID_2_);fill:#FF9A00;}
	.st3{clip-path:url(#SVGID_4_);fill:#555555;}
	.st4{clip-path:url(#SVGID_6_);fill:#FF9A00;}
	.st5{clip-path:url(#SVGID_8_);fill:#FF9A00;}
	.st6{clip-path:url(#SVGID_10_);fill:#555555;}
	.st7{clip-path:url(#SVGID_12_);fill:#FF9A00;}
	.st8{clip-path:url(#SVGID_14_);fill:#555555;}
	.st9{clip-path:url(#SVGID_16_);fill:#555555;}
	.st10{clip-path:url(#SVGID_18_);fill:#555555;}
	.st11{clip-path:url(#SVGID_20_);fill:#555555;}
	.st12{clip-path:url(#SVGID_22_);fill:#555555;}
	.st13{clip-path:url(#SVGID_24_);fill:#FF9A00;}
	.st14{clip-path:url(#SVGID_26_);fill:#555555;}
	.st15{clip-path:url(#SVGID_28_);fill:#555555;}
</style>
<g>
	<g>
		<path class="st1" d="M107.5,0.8l8.6,16.4c0.3,0.5,0.8,0.9,1.4,1l18.3,3.1c1.5,0.3,2.1,2.1,1,3.2l-12.9,13.3
			c-0.4,0.4-0.6,1-0.5,1.6l2.7,18.4c0.2,1.5-1.3,2.7-2.7,2l-16.6-8.2c-0.5-0.3-1.2-0.3-1.7,0l-16.6,8.2c-1.4,0.7-2.9-0.5-2.7-2
			l2.7-18.4c0.1-0.6-0.1-1.2-0.5-1.6L74.8,24.5c-1.1-1.1-0.5-2.9,1-3.2l18.3-3.1c0.6-0.1,1.1-0.5,1.4-1l8.6-16.4
			C104.8-0.6,106.8-0.6,107.5,0.8z"/>
		<g>
			<defs>
				
					<rect id="SVGID_15_" x="72.3" y="-2.1" transform="matrix(-1 -1.224647e-16 1.224647e-16 -1 178.0767 63.8244)" width="33.5" height="68"/>
			</defs>
			<clipPath id="SVGID_2_">
				<use xlink:href="#SVGID_15_"  style="overflow:visible;"/>
			</clipPath>
			<path style="clip-path:url(#SVGID_2_);fill:#555555;" d="M104.1,0.8l-8.6,16.4c-0.3,0.5-0.8,0.9-1.4,1l-18.3,3.1
				c-1.5,0.3-2.1,2.1-1,3.2l12.9,13.3c0.4,0.4,0.6,1,0.5,1.6l-2.7,18.4c-0.2,1.5,1.3,2.7,2.7,2l16.6-8.2c0.5-0.3,1.2-0.3,1.7,0
				l16.6,8.2c1.4,0.7,2.9-0.5,2.7-2l-2.7-18.4c-0.1-0.6,0.1-1.2,0.5-1.6l12.9-13.3c1.1-1.1,0.5-2.9-1-3.2l-18.3-3.1
				c-0.6-0.1-1.1-0.5-1.4-1l-8.6-16.4C106.8-0.6,104.8-0.6,104.1,0.8z"/>
		</g>
	</g>
	<path class="st0" d="M33.2,1l8.6,16.4c0.3,0.5,0.8,0.9,1.4,1l18.3,3.1c1.5,0.3,2.1,2.1,1,3.2L49.6,38c-0.4,0.4-0.6,1-0.5,1.6
		L51.7,58c0.2,1.5-1.3,2.7-2.7,2l-16.6-8.2c-0.5-0.3-1.2-0.3-1.7,0L14.1,60c-1.4,0.7-2.9-0.5-2.7-2L14,39.6c0.1-0.6-0.1-1.2-0.5-1.6
		L0.5,24.8c-1.1-1.1-0.5-2.9,1-3.2l18.3-3.1c0.6-0.1,1.1-0.5,1.4-1L29.9,1C30.6-0.3,32.5-0.3,33.2,1z"/>
	<path class="st1" d="M330.2,1l8.6,16.4c0.3,0.5,0.8,0.9,1.4,1l18.3,3.1c1.5,0.3,2.1,2.1,1,3.2L346.6,38c-0.4,0.4-0.6,1-0.5,1.6
		l2.7,18.4c0.2,1.5-1.3,2.7-2.7,2l-16.6-8.2c-0.5-0.3-1.2-0.3-1.7,0L311.1,60c-1.4,0.7-2.9-0.5-2.7-2l2.7-18.4
		c0.1-0.6-0.1-1.2-0.5-1.6l-12.9-13.3c-1.1-1.1-0.5-2.9,1-3.2l18.3-3.1c0.6-0.1,1.1-0.5,1.4-1L326.9,1C327.6-0.3,329.5-0.3,330.2,1z
		"/>
	<path class="st1" d="M256,1l8.6,16.4c0.3,0.5,0.8,0.9,1.4,1l18.3,3.1c1.5,0.3,2.1,2.1,1,3.2L272.3,38c-0.4,0.4-0.6,1-0.5,1.6
		l2.7,18.4c0.2,1.5-1.3,2.7-2.7,2l-16.6-8.2c-0.5-0.3-1.2-0.3-1.7,0L236.8,60c-1.4,0.7-2.9-0.5-2.7-2l2.7-18.4
		c0.1-0.6-0.1-1.2-0.5-1.6l-12.9-13.3c-1.1-1.1-0.5-2.9,1-3.2l18.3-3.1c0.6-0.1,1.1-0.5,1.4-1L252.6,1C253.3-0.3,255.3-0.3,256,1z"
		/>
	<g>
		<path class="st1" d="M181.7,0.8l8.6,16.4c0.3,0.5,0.8,0.9,1.4,1l18.3,3.1c1.5,0.3,2.1,2.1,1,3.2l-12.9,13.3
			c-0.4,0.4-0.6,1-0.5,1.6l2.7,18.4c0.2,1.5-1.3,2.7-2.7,2l-16.6-8.2c-0.5-0.3-1.2-0.3-1.7,0l-16.6,8.2c-1.4,0.7-2.9-0.5-2.7-2
			l2.7-18.4c0.1-0.6-0.1-1.2-0.5-1.6L149,24.5c-1.1-1.1-0.5-2.9,1-3.2l18.3-3.1c0.6-0.1,1.1-0.5,1.4-1l8.6-16.4
			C179.1-0.6,181-0.6,181.7,0.8z"/>
		<g>
			<defs>
				
					<rect id="SVGID_17_" x="146.5" y="-2.1" transform="matrix(-1 -1.224647e-16 1.224647e-16 -1 326.5767 63.8244)" width="33.5" height="68"/>
			</defs>
			<clipPath id="SVGID_4_">
				<use xlink:href="#SVGID_17_"  style="overflow:visible;"/>
			</clipPath>
			<path class="st3" d="M178.4,0.8l-8.6,16.4c-0.3,0.5-0.8,0.9-1.4,1l-18.3,3.1c-1.5,0.3-2.1,2.1-1,3.2L162,37.8
				c0.4,0.4,0.6,1,0.5,1.6l-2.7,18.4c-0.2,1.5,1.3,2.7,2.7,2l16.6-8.2c0.5-0.3,1.2-0.3,1.7,0l16.6,8.2c1.4,0.7,2.9-0.5,2.7-2
				l-2.7-18.4c-0.1-0.6,0.1-1.2,0.5-1.6L211,24.5c1.1-1.1,0.5-2.9-1-3.2l-18.3-3.1c-0.6-0.1-1.1-0.5-1.4-1l-8.6-16.4
				C181-0.6,179.1-0.6,178.4,0.8z"/>
		</g>
	</g>
</g>
</svg>
