<?xml version="1.0" encoding="utf-8"?>
<!-- Generator: Adobe Illustrator 23.1.1, SVG Export Plug-In . SVG Version: 6.00 Build 0)  -->
<svg version="1.1" id="Layer_1" xmlns="http://www.w3.org/2000/svg" xmlns:xlink="http://www.w3.org/1999/xlink" x="0px" y="0px"
	 viewBox="0 0 360.1 60.2" style="enable-background:new 0 0 360.1 60.2;" xml:space="preserve">
<style type="text/css">
	.st0{fill:#FF9A00;}
	.st1{fill:#555555;}
	.st2{clip-path:url(#SVGID_2_);fill:#FF9A00;}
	.st3{clip-path:url(#SVGID_4_);fill:#555555;}
	.st4{clip-path:url(#SVGID_6_);fill:#FF9A00;}
	.st5{clip-path:url(#SVGID_8_);fill:#FF9A00;}
	.st6{clip-path:url(#SVGID_10_);fill:#555555;}
	.st7{clip-path:url(#SVGID_12_);fill:#FF9A00;}
	.st8{clip-path:url(#SVGID_14_);fill:#555555;}
	.st9{clip-path:url(#SVGID_16_);fill:#555555;}
	.st10{clip-path:url(#SVGID_18_);fill:#555555;}
	.st11{clip-path:url(#SVGID_20_);fill:#555555;}
	.st12{clip-path:url(#SVGID_22_);fill:#555555;}
	.st13{clip-path:url(#SVGID_24_);fill:#FF9A00;}
	.st14{clip-path:url(#SVGID_26_);fill:#555555;}
	.st15{clip-path:url(#SVGID_28_);fill:#555555;}
</style>
<g>
	<path class="st0" d="M33.2,1l8.6,16.4c0.3,0.5,0.8,0.9,1.4,1l18.3,3.1c1.5,0.3,2.1,2.1,1,3.2L49.6,38c-0.4,0.4-0.6,1-0.5,1.6
		L51.7,58c0.2,1.5-1.3,2.7-2.7,2l-16.6-8.2c-0.5-0.3-1.2-0.3-1.7,0L14.1,60c-1.4,0.7-2.9-0.5-2.7-2L14,39.6c0.1-0.6-0.1-1.2-0.5-1.6
		L0.5,24.8c-1.1-1.1-0.5-2.9,1-3.2l18.3-3.1c0.6-0.1,1.1-0.5,1.4-1L29.9,1C30.6-0.3,32.5-0.3,33.2,1z"/>
	<path class="st0" d="M107.5,1l8.6,16.4c0.3,0.5,0.8,0.9,1.4,1l18.3,3.1c1.5,0.3,2.1,2.1,1,3.2L123.8,38c-0.4,0.4-0.6,1-0.5,1.6
		L126,58c0.2,1.5-1.3,2.7-2.7,2l-16.6-8.2c-0.5-0.3-1.2-0.3-1.7,0L88.3,60c-1.4,0.7-2.9-0.5-2.7-2l2.7-18.4c0.1-0.6-0.1-1.2-0.5-1.6
		L74.8,24.8c-1.1-1.1-0.5-2.9,1-3.2l18.3-3.1c0.6-0.1,1.1-0.5,1.4-1L104.1,1C104.8-0.3,106.8-0.3,107.5,1z"/>
	<path class="st0" d="M181.7,1l8.6,16.4c0.3,0.5,0.8,0.9,1.4,1l18.3,3.1c1.5,0.3,2.1,2.1,1,3.2L198.1,38c-0.4,0.4-0.6,1-0.5,1.6
		l2.7,18.4c0.2,1.5-1.3,2.7-2.7,2l-16.6-8.2c-0.5-0.3-1.2-0.3-1.7,0L162.6,60c-1.4,0.7-2.9-0.5-2.7-2l2.7-18.4
		c0.1-0.6-0.1-1.2-0.5-1.6L149,24.8c-1.1-1.1-0.5-2.9,1-3.2l18.3-3.1c0.6-0.1,1.1-0.5,1.4-1L178.4,1C179.1-0.3,181-0.3,181.7,1z"/>
	<path class="st1" d="M330.2,1l8.6,16.4c0.3,0.5,0.8,0.9,1.4,1l18.3,3.1c1.5,0.3,2.1,2.1,1,3.2L346.6,38c-0.4,0.4-0.6,1-0.5,1.6
		l2.7,18.4c0.2,1.5-1.3,2.7-2.7,2l-16.6-8.2c-0.5-0.3-1.2-0.3-1.7,0L311.1,60c-1.4,0.7-2.9-0.5-2.7-2l2.7-18.4
		c0.1-0.6-0.1-1.2-0.5-1.6l-12.9-13.3c-1.1-1.1-0.5-2.9,1-3.2l18.3-3.1c0.6-0.1,1.1-0.5,1.4-1L326.9,1C327.6-0.3,329.5-0.3,330.2,1z
		"/>
	<path class="st1" d="M256,1l8.6,16.4c0.3,0.5,0.8,0.9,1.4,1l18.3,3.1c1.5,0.3,2.1,2.1,1,3.2L272.3,38c-0.4,0.4-0.6,1-0.5,1.6
		l2.7,18.4c0.2,1.5-1.3,2.7-2.7,2l-16.6-8.2c-0.5-0.3-1.2-0.3-1.7,0L236.8,60c-1.4,0.7-2.9-0.5-2.7-2l2.7-18.4
		c0.1-0.6-0.1-1.2-0.5-1.6l-12.9-13.3c-1.1-1.1-0.5-2.9,1-3.2l18.3-3.1c0.6-0.1,1.1-0.5,1.4-1L252.6,1C253.3-0.3,255.3-0.3,256,1z"
		/>
</g>
</svg>
