<?xml version="1.0" encoding="utf-8"?>
<!-- Generator: Adobe Illustrator 23.1.1, SVG Export Plug-In . SVG Version: 6.00 Build 0)  -->
<svg version="1.1" id="Layer_1" xmlns="http://www.w3.org/2000/svg" xmlns:xlink="http://www.w3.org/1999/xlink" x="0px" y="0px"
	 viewBox="0 0 477 353.4" style="enable-background:new 0 0 477 353.4;" xml:space="preserve">
<style type="text/css">
	.st0{fill:none;stroke:#FFFFFF;stroke-width:19;stroke-linecap:round;stroke-linejoin:round;stroke-miterlimit:10;}
	.st1{fill:#FFFFFF;}
	.st2{fill:none;stroke:#FFFFFF;stroke-width:18;stroke-linecap:round;stroke-miterlimit:10;}
	.st3{fill:none;stroke:#FFFFFF;stroke-width:27;stroke-miterlimit:10;}
	.st4{fill:none;stroke:#FFFFFF;stroke-width:25;stroke-linecap:round;stroke-miterlimit:10;}
	.st5{fill:none;stroke:#FFFFFF;stroke-width:21;stroke-linecap:round;stroke-miterlimit:10;}
	.st6{fill:none;stroke:#FFFFFF;stroke-width:21;stroke-linecap:round;stroke-linejoin:round;stroke-miterlimit:10;}
	.st7{fill:none;stroke:#00ADE5;stroke-width:19;stroke-linecap:round;stroke-linejoin:round;stroke-miterlimit:10;}
	.st8{fill:#00ADE5;}
	.st9{fill:none;stroke:#00ADE5;stroke-width:18;stroke-linecap:round;stroke-miterlimit:10;}
	.st10{fill:none;stroke:#00ADE5;stroke-width:27;stroke-miterlimit:10;}
	.st11{fill:none;stroke:#00ADE5;stroke-width:25;stroke-linecap:round;stroke-miterlimit:10;}
	.st12{fill:none;stroke:#00ADE5;stroke-width:21;stroke-linecap:round;stroke-miterlimit:10;}
	.st13{fill:none;stroke:#00ADE5;stroke-width:21;stroke-linecap:round;stroke-linejoin:round;stroke-miterlimit:10;}
</style>
<g>
	<path class="st1" d="M154.7,233.3c0-66.7,29.8-120.7,83.8-120.7c54.5,0,83.8,54,83.8,120.7"/>
	<circle class="st1" cx="238.5" cy="48.1" r="48.1"/>
</g>
<g>
	<path class="st1" d="M95.5,327.8c-0.6-1.4-1.4-3.3-2.4-5.5c-1-2.2-2.1-4.6-3.2-7.2c-1.1-2.6-2.4-5.2-3.6-8
		c-1.3-2.7-2.5-5.3-3.6-7.7c-1.1-2.4-2.2-4.6-3.2-6.5c-1-1.9-1.8-3.4-2.4-4.4c-0.7,7.1-1.2,14.7-1.6,23c-0.4,8.3-0.8,16.6-1.1,25
		h-8.5c0.2-5.4,0.5-10.8,0.8-16.3c0.3-5.5,0.6-10.9,1-16.2s0.8-10.5,1.3-15.5c0.5-5,0.9-9.8,1.5-14.3H78c1.6,2.6,3.4,5.8,5.2,9.4
		c1.9,3.6,3.7,7.4,5.6,11.3c1.9,3.9,3.7,7.9,5.4,11.8c1.7,3.9,3.3,7.5,4.8,10.8c1.4-3.2,3-6.8,4.8-10.8c1.7-3.9,3.5-7.9,5.4-11.8
		c1.9-3.9,3.7-7.7,5.6-11.3c1.9-3.6,3.6-6.7,5.2-9.4h7.6c2,20.1,3.6,40.9,4.6,62.4h-8.6c-0.3-8.4-0.7-16.7-1.1-25
		c-0.4-8.2-1-15.9-1.6-23c-0.6,1-1.4,2.5-2.4,4.4c-1,1.9-2.1,4.1-3.2,6.5c-1.1,2.4-2.4,5-3.6,7.7c-1.3,2.7-2.5,5.4-3.6,8
		c-1.1,2.6-2.2,5-3.2,7.2c-1,2.2-1.8,4-2.4,5.5H95.5z"/>
	<path class="st1" d="M139.8,345.2c0.7,0.3,1.5,0.6,2.6,0.9c1,0.3,2.1,0.4,3.1,0.4c3.3,0,5.9-0.7,7.7-2.2c1.9-1.5,3.5-3.9,5-7.2
		c-3.8-7.2-7.3-14.8-10.6-22.9c-3.3-8.1-6-16.2-8.1-24.5h9c0.7,2.7,1.5,5.6,2.4,8.7c0.9,3.1,2,6.3,3.1,9.6c1.1,3.3,2.4,6.6,3.7,9.9
		c1.3,3.3,2.7,6.5,4.1,9.5c2.3-6.3,4.3-12.5,5.9-18.7c1.7-6.2,3.3-12.5,4.8-19.1h8.6c-2.2,8.8-4.6,17.3-7.2,25.4
		c-2.6,8.1-5.5,15.7-8.5,22.8c-1.2,2.7-2.4,5-3.7,7c-1.3,1.9-2.7,3.6-4.3,4.8c-1.6,1.3-3.3,2.2-5.3,2.8c-2,0.6-4.2,0.9-6.6,0.9
		c-0.7,0-1.3,0-2.1-0.1c-0.7-0.1-1.4-0.2-2.1-0.4c-0.7-0.2-1.3-0.3-1.9-0.5c-0.6-0.2-1-0.3-1.2-0.5L139.8,345.2z"/>
	<path class="st1" d="M225.9,330.2c9.1,0,13.7-3.1,13.7-9.4c0-1.9-0.4-3.6-1.2-4.9s-1.9-2.5-3.3-3.5c-1.4-1-3-1.8-4.7-2.6
		c-1.8-0.7-3.6-1.4-5.6-2.2c-2.3-0.8-4.4-1.7-6.5-2.7c-2-1-3.8-2.2-5.3-3.5c-1.5-1.4-2.7-3-3.6-4.8c-0.9-1.9-1.3-4.1-1.3-6.8
		c0-5.5,1.9-9.7,5.6-12.8c3.7-3.1,8.8-4.6,15.4-4.6c3.8,0,7.2,0.4,10.3,1.2c3.1,0.8,5.4,1.7,6.8,2.7l-2.8,7.1
		c-1.3-0.8-3.1-1.5-5.6-2.3c-2.5-0.7-5.4-1.1-8.7-1.1c-1.7,0-3.2,0.2-4.7,0.5c-1.4,0.4-2.7,0.9-3.8,1.6c-1.1,0.7-1.9,1.6-2.6,2.7
		c-0.6,1.1-0.9,2.4-0.9,3.9c0,1.7,0.3,3.1,1,4.2c0.7,1.1,1.6,2.1,2.8,3c1.2,0.9,2.6,1.7,4.2,2.4c1.6,0.7,3.3,1.4,5.3,2.2
		c2.7,1.1,5.2,2.2,7.4,3.2s4.2,2.4,5.8,3.9c1.7,1.5,2.9,3.3,3.8,5.4c0.9,2.1,1.3,4.6,1.3,7.5c0,5.5-2,9.7-6,12.6
		c-4,2.9-9.6,4.4-16.9,4.4c-2.5,0-4.7-0.2-6.8-0.5c-2.1-0.3-3.9-0.7-5.5-1.2c-1.6-0.5-3-0.9-4.2-1.4c-1.2-0.5-2.1-0.9-2.7-1.3
		l2.6-7.2c1.4,0.8,3.5,1.7,6.3,2.6C218.4,329.7,221.8,330.2,225.9,330.2z"/>
	<path class="st1" d="M266.6,289.6h17.7v7h-17.7v21.6c0,2.3,0.2,4.3,0.5,5.8c0.4,1.5,0.9,2.7,1.6,3.6c0.7,0.9,1.6,1.5,2.7,1.8
		c1.1,0.4,2.3,0.5,3.8,0.5c2.5,0,4.5-0.3,6.1-0.9c1.5-0.6,2.6-1,3.2-1.2l1.6,6.9c-0.8,0.4-2.3,0.9-4.4,1.6c-2.1,0.6-4.5,0.9-7.2,0.9
		c-3.2,0-5.8-0.4-7.9-1.2c-2.1-0.8-3.7-2-5-3.6s-2.1-3.6-2.7-6c-0.5-2.4-0.8-5.1-0.8-8.2v-41.8l8.4-1.4V289.6z"/>
	<path class="st1" d="M332.2,335.1c-1.9,0.5-4.5,1-7.6,1.5c-3.2,0.5-6.8,0.8-10.9,0.8c-3.6,0-6.6-0.5-9.1-1.6
		c-2.5-1-4.4-2.5-5.9-4.5c-1.5-1.9-2.6-4.2-3.2-6.8c-0.7-2.6-1-5.5-1-8.7v-26.3h8.4v24.5c0,5.7,0.9,9.8,2.7,12.2
		c1.8,2.5,4.8,3.7,9.1,3.7c0.9,0,1.8,0,2.8-0.1c1-0.1,1.9-0.1,2.7-0.2c0.8-0.1,1.6-0.2,2.3-0.3c0.7-0.1,1.2-0.2,1.5-0.3v-39.5h8.4
		V335.1z"/>
	<path class="st1" d="M364.8,266.6c2.5,0,4.6,0.2,6.3,0.5c1.8,0.4,3,0.7,3.7,1l-1.5,7.2c-0.7-0.4-1.7-0.7-3.1-1
		c-1.3-0.3-2.9-0.5-4.9-0.5c-3.9,0-6.6,1.1-8.2,3.2c-1.6,2.1-2.3,5-2.3,8.6v4.1h18v7h-18v39.8h-8.4v-51c0-6,1.5-10.6,4.4-13.9
		C353.9,268.2,358.5,266.6,364.8,266.6z M399.9,266.6c2.5,0,4.6,0.2,6.3,0.5c1.8,0.4,3,0.7,3.7,1l-1.5,7.2c-0.7-0.4-1.7-0.7-3.1-1
		c-1.3-0.3-2.9-0.5-4.9-0.5c-3.9,0-6.6,1.1-8.2,3.2c-1.6,2.1-2.3,5-2.3,8.6v4.1h18v7h-18v39.8h-8.4v-51c0-6,1.5-10.6,4.4-13.9
		C389,268.2,393.6,266.6,399.9,266.6z"/>
</g>
</svg>
