<?xml version="1.0" encoding="utf-8"?>
<!-- Generator: Adobe Illustrator 23.1.1, SVG Export Plug-In . SVG Version: 6.00 Build 0)  -->
<svg version="1.1" id="Layer_1" xmlns="http://www.w3.org/2000/svg" xmlns:xlink="http://www.w3.org/1999/xlink" x="0px" y="0px"
	 viewBox="0 0 477 353.7" style="enable-background:new 0 0 477 353.7;" xml:space="preserve">
<style type="text/css">
	.st0{fill:none;stroke:#FFFFFF;stroke-width:19;stroke-linecap:round;stroke-linejoin:round;stroke-miterlimit:10;}
	.st1{fill:#FFFFFF;}
	.st2{fill:none;stroke:#FFFFFF;stroke-width:18;stroke-linecap:round;stroke-miterlimit:10;}
	.st3{fill:none;stroke:#FFFFFF;stroke-width:27;stroke-miterlimit:10;}
	.st4{fill:none;stroke:#FFFFFF;stroke-width:25;stroke-linecap:round;stroke-miterlimit:10;}
	.st5{fill:none;stroke:#FFFFFF;stroke-width:21;stroke-linecap:round;stroke-miterlimit:10;}
	.st6{fill:none;stroke:#FFFFFF;stroke-width:21;stroke-linecap:round;stroke-linejoin:round;stroke-miterlimit:10;}
	.st7{fill:none;stroke:#00ADE5;stroke-width:19;stroke-linecap:round;stroke-linejoin:round;stroke-miterlimit:10;}
	.st8{fill:#00ADE5;}
	.st9{fill:none;stroke:#00ADE5;stroke-width:18;stroke-linecap:round;stroke-miterlimit:10;}
	.st10{fill:none;stroke:#00ADE5;stroke-width:27;stroke-miterlimit:10;}
	.st11{fill:none;stroke:#00ADE5;stroke-width:25;stroke-linecap:round;stroke-miterlimit:10;}
	.st12{fill:none;stroke:#00ADE5;stroke-width:21;stroke-linecap:round;stroke-miterlimit:10;}
	.st13{fill:none;stroke:#00ADE5;stroke-width:21;stroke-linecap:round;stroke-linejoin:round;stroke-miterlimit:10;}
</style>
<g>
	<circle class="st3" cx="229.5" cy="82.4" r="68.9"/>
	<line class="st4" x1="263.7" y1="149.2" x2="312.4" y2="220.4"/>
</g>
<g>
	<path class="st1" d="M135.1,330.5c9.1,0,13.7-3.1,13.7-9.4c0-1.9-0.4-3.6-1.2-4.9c-0.8-1.4-1.9-2.5-3.3-3.5c-1.4-1-3-1.8-4.7-2.6
		c-1.8-0.7-3.6-1.4-5.6-2.2c-2.3-0.8-4.4-1.7-6.5-2.7c-2-1-3.8-2.2-5.3-3.5c-1.5-1.4-2.7-3-3.6-4.8c-0.9-1.9-1.3-4.1-1.3-6.8
		c0-5.5,1.9-9.7,5.6-12.8c3.7-3.1,8.8-4.6,15.4-4.6c3.8,0,7.2,0.4,10.3,1.2c3.1,0.8,5.4,1.7,6.8,2.7l-2.8,7.1
		c-1.3-0.8-3.1-1.5-5.6-2.3c-2.5-0.7-5.4-1.1-8.7-1.1c-1.7,0-3.2,0.2-4.7,0.5s-2.7,0.9-3.8,1.6c-1.1,0.7-1.9,1.6-2.6,2.7
		c-0.6,1.1-0.9,2.4-0.9,3.9c0,1.7,0.3,3.1,1,4.2c0.7,1.1,1.6,2.1,2.8,3c1.2,0.9,2.6,1.7,4.2,2.4c1.6,0.7,3.3,1.4,5.3,2.2
		c2.7,1.1,5.2,2.2,7.4,3.2s4.2,2.4,5.8,3.9c1.6,1.5,2.9,3.3,3.8,5.4c0.9,2.1,1.3,4.6,1.3,7.5c0,5.5-2,9.7-6,12.6
		c-4,2.9-9.6,4.4-16.9,4.4c-2.5,0-4.7-0.2-6.8-0.5c-2.1-0.3-3.9-0.7-5.5-1.2c-1.6-0.5-3-0.9-4.2-1.4c-1.2-0.5-2.1-0.9-2.7-1.3
		l2.6-7.2c1.4,0.8,3.5,1.7,6.3,2.6C127.6,330,131.1,330.5,135.1,330.5z"/>
	<path class="st1" d="M165.4,313.4c0-4.1,0.6-7.8,1.8-10.8c1.2-3.1,2.8-5.7,4.8-7.7c2-2,4.3-3.6,6.8-4.6c2.6-1,5.2-1.5,7.9-1.5
		c6.3,0,11.1,2,14.5,5.9c3.4,3.9,5,9.9,5,18c0,0.4,0,0.8,0,1.4c0,0.6,0,1.1-0.1,1.6h-32c0.4,4.9,1.8,8.5,4.2,11.1
		c2.5,2.5,6.3,3.8,11.5,3.8c2.9,0,5.4-0.3,7.4-0.8c2-0.5,3.5-1,4.5-1.5l1.2,7c-1,0.5-2.8,1.1-5.4,1.7c-2.6,0.6-5.4,0.9-8.7,0.9
		c-4.1,0-7.6-0.6-10.6-1.8c-3-1.2-5.4-2.9-7.3-5.1c-1.9-2.2-3.3-4.7-4.3-7.7C165.8,320.2,165.4,317,165.4,313.4z M197.5,308.8
		c0.1-3.8-0.9-6.9-2.8-9.3c-2-2.4-4.6-3.6-8.1-3.6c-1.9,0-3.6,0.4-5.1,1.1c-1.5,0.8-2.7,1.7-3.7,2.9c-1,1.2-1.8,2.6-2.4,4.1
		c-0.6,1.6-0.9,3.1-1.1,4.8H197.5z"/>
	<path class="st1" d="M233.4,288.8c3.4,0,6.2,0.4,8.5,1.3c2.3,0.9,4.2,2.1,5.6,3.7c1.4,1.6,2.4,3.5,3,5.7c0.6,2.2,0.9,4.6,0.9,7.2
		v29.2c-0.7,0.1-1.7,0.3-3,0.5c-1.3,0.2-2.7,0.4-4.4,0.6s-3.4,0.3-5.3,0.5c-1.9,0.1-3.8,0.2-5.6,0.2c-2.6,0-5.1-0.3-7.3-0.8
		c-2.2-0.5-4.1-1.4-5.8-2.6c-1.6-1.2-2.9-2.7-3.8-4.6c-0.9-1.9-1.3-4.2-1.3-6.9c0-2.6,0.5-4.8,1.6-6.7c1-1.9,2.5-3.4,4.3-4.5
		c1.8-1.1,3.9-2,6.3-2.5c2.4-0.5,4.9-0.8,7.6-0.8c0.8,0,1.7,0,2.6,0.1c0.9,0.1,1.8,0.2,2.6,0.4c0.8,0.2,1.5,0.3,2.1,0.4
		c0.6,0.1,1,0.2,1.3,0.3v-2.3c0-1.4-0.2-2.7-0.5-4.1c-0.3-1.4-0.8-2.5-1.6-3.6c-0.8-1-1.8-1.9-3.2-2.5c-1.4-0.6-3.1-0.9-5.3-0.9
		c-2.8,0-5.2,0.2-7.2,0.6c-2.1,0.4-3.6,0.8-4.6,1.2l-1-6.9c1.1-0.5,2.9-0.9,5.4-1.4C227.7,289,230.5,288.8,233.4,288.8z
		 M234.1,330.7c2,0,3.7,0,5.3-0.1s2.8-0.3,3.8-0.5v-13.9c-0.6-0.3-1.6-0.6-2.9-0.8c-1.4-0.2-3-0.3-4.9-0.3c-1.3,0-2.6,0.1-4,0.3
		c-1.4,0.2-2.7,0.6-3.9,1.1c-1.2,0.6-2.1,1.4-2.9,2.3c-0.8,1-1.2,2.3-1.2,3.9c0,3,1,5.1,2.9,6.3
		C228.2,330.1,230.8,330.7,234.1,330.7z"/>
	<path class="st1" d="M282.6,288.9c0.7,0,1.5,0,2.5,0.1c0.9,0.1,1.8,0.2,2.7,0.4c0.9,0.2,1.7,0.3,2.5,0.4c0.8,0.2,1.3,0.3,1.7,0.4
		l-1.4,7.3c-0.7-0.2-1.8-0.5-3.3-0.9c-1.5-0.3-3.5-0.5-5.9-0.5c-1.6,0-3.1,0.2-4.6,0.5c-1.5,0.3-2.5,0.6-3,0.7v39.3h-8.4v-44.8
		c2-0.7,4.4-1.4,7.4-2C275.6,289.3,278.9,288.9,282.6,288.9z"/>
	<path class="st1" d="M320.4,337.8c-3.8,0-7.1-0.6-9.9-1.8c-2.9-1.2-5.3-2.9-7.2-5c-2-2.2-3.4-4.7-4.4-7.7c-1-3-1.4-6.3-1.4-9.9
		s0.5-6.9,1.6-9.9c1-3,2.5-5.6,4.5-7.8c1.9-2.2,4.3-3.9,7.1-5.1c2.8-1.2,5.9-1.8,9.3-1.8c2.1,0,4.2,0.2,6.3,0.5
		c2.1,0.4,4.1,0.9,6,1.7l-1.9,7.1c-1.3-0.6-2.7-1.1-4.4-1.4c-1.7-0.4-3.4-0.5-5.3-0.5c-4.7,0-8.3,1.5-10.8,4.4
		c-2.5,2.9-3.7,7.2-3.7,12.9c0,2.5,0.3,4.8,0.9,6.9c0.6,2.1,1.5,3.9,2.7,5.4c1.2,1.5,2.8,2.7,4.7,3.5c1.9,0.8,4.3,1.2,7,1.2
		c2.2,0,4.2-0.2,6-0.6c1.8-0.4,3.2-0.9,4.2-1.3l1.2,7c-0.5,0.3-1.2,0.6-2.1,0.9c-0.9,0.3-1.9,0.5-3.1,0.7c-1.1,0.2-2.4,0.4-3.6,0.5
		C322.8,337.7,321.6,337.8,320.4,337.8z"/>
	<path class="st1" d="M341.9,336.7v-68.4l8.4-1.4v23.9c1.6-0.6,3.2-1.1,5-1.4c1.8-0.3,3.5-0.5,5.3-0.5c3.7,0,6.8,0.5,9.3,1.6
		c2.5,1.1,4.4,2.5,5.9,4.4c1.5,1.9,2.5,4.2,3.1,6.8c0.6,2.6,0.9,5.6,0.9,8.7v26.3h-8.4v-24.5c0-2.9-0.2-5.3-0.6-7.4
		c-0.4-2-1-3.7-1.9-5c-0.9-1.3-2.1-2.2-3.6-2.7c-1.5-0.6-3.4-0.9-5.6-0.9c-0.9,0-1.8,0.1-2.8,0.2c-1,0.1-1.9,0.3-2.7,0.4
		c-0.9,0.2-1.7,0.3-2.3,0.5c-0.7,0.2-1.2,0.3-1.5,0.5v38.9H341.9z"/>
</g>
</svg>
