<?xml version="1.0" encoding="utf-8"?>
<!-- Generator: Adobe Illustrator 23.1.1, SVG Export Plug-In . SVG Version: 6.00 Build 0)  -->
<svg version="1.1" id="Layer_1" xmlns="http://www.w3.org/2000/svg" xmlns:xlink="http://www.w3.org/1999/xlink" x="0px" y="0px"
	 viewBox="0 0 477 368" style="enable-background:new 0 0 477 368;" xml:space="preserve">
<style type="text/css">
	.st0{fill:none;stroke:#FFFFFF;stroke-width:19;stroke-linecap:round;stroke-linejoin:round;stroke-miterlimit:10;}
	.st1{fill:#FFFFFF;}
	.st2{fill:none;stroke:#FFFFFF;stroke-width:18;stroke-linecap:round;stroke-miterlimit:10;}
	.st3{fill:none;stroke:#FFFFFF;stroke-width:27;stroke-miterlimit:10;}
	.st4{fill:none;stroke:#FFFFFF;stroke-width:25;stroke-linecap:round;stroke-miterlimit:10;}
	.st5{fill:none;stroke:#FFFFFF;stroke-width:21;stroke-linecap:round;stroke-miterlimit:10;}
	.st6{fill:none;stroke:#FFFFFF;stroke-width:21;stroke-linecap:round;stroke-linejoin:round;stroke-miterlimit:10;}
	.st7{fill:none;stroke:#00ADE5;stroke-width:19;stroke-linecap:round;stroke-linejoin:round;stroke-miterlimit:10;}
	.st8{fill:#00ADE5;}
	.st9{fill:none;stroke:#00ADE5;stroke-width:18;stroke-linecap:round;stroke-miterlimit:10;}
	.st10{fill:none;stroke:#00ADE5;stroke-width:27;stroke-miterlimit:10;}
	.st11{fill:none;stroke:#00ADE5;stroke-width:25;stroke-linecap:round;stroke-miterlimit:10;}
	.st12{fill:none;stroke:#00ADE5;stroke-width:21;stroke-linecap:round;stroke-miterlimit:10;}
	.st13{fill:none;stroke:#00ADE5;stroke-width:21;stroke-linecap:round;stroke-linejoin:round;stroke-miterlimit:10;}
</style>
<g>
	<path class="st1" d="M302.5,253.3h-128c-9.6,0-17.3-7.8-17.3-17.3V108c0-9.6,7.8-17.3,17.3-17.3h128c9.6,0,17.3,7.8,17.3,17.3v128
		C319.8,245.6,312.1,253.3,302.5,253.3z"/>
	<path class="st2" d="M186.5,90.6c0,0-3.3-81.6,52-81.6s53.4,81.6,53.4,81.6"/>
</g>
<g>
	<path class="st1" d="M152.2,344.7c9.1,0,13.7-3.1,13.7-9.4c0-1.9-0.4-3.6-1.2-4.9s-1.9-2.5-3.3-3.5c-1.4-1-3-1.8-4.7-2.6
		c-1.8-0.7-3.6-1.4-5.6-2.2c-2.3-0.8-4.4-1.7-6.5-2.7c-2-1-3.8-2.2-5.3-3.5c-1.5-1.4-2.7-3-3.6-4.8c-0.9-1.9-1.3-4.1-1.3-6.8
		c0-5.5,1.9-9.7,5.6-12.8c3.7-3.1,8.8-4.6,15.4-4.6c3.8,0,7.2,0.4,10.3,1.2c3.1,0.8,5.4,1.7,6.8,2.7l-2.8,7.1
		c-1.3-0.8-3.1-1.5-5.6-2.3c-2.5-0.7-5.4-1.1-8.7-1.1c-1.7,0-3.2,0.2-4.7,0.5c-1.4,0.4-2.7,0.9-3.8,1.6c-1.1,0.7-1.9,1.6-2.6,2.7
		c-0.6,1.1-0.9,2.4-0.9,3.9c0,1.7,0.3,3.1,1,4.2c0.7,1.1,1.6,2.1,2.8,3c1.2,0.9,2.6,1.7,4.2,2.4c1.6,0.7,3.3,1.4,5.3,2.2
		c2.7,1.1,5.2,2.2,7.4,3.2s4.2,2.4,5.9,3.9c1.6,1.5,2.9,3.3,3.8,5.4c0.9,2.1,1.3,4.6,1.3,7.5c0,5.5-2,9.7-6,12.6
		c-4,2.9-9.6,4.4-16.9,4.4c-2.5,0-4.7-0.2-6.8-0.5c-2.1-0.3-3.9-0.7-5.5-1.2c-1.6-0.5-3-0.9-4.2-1.4c-1.2-0.5-2.1-0.9-2.7-1.3
		l2.6-7.2c1.4,0.8,3.5,1.7,6.3,2.6C144.7,344.3,148.2,344.7,152.2,344.7z"/>
	<path class="st1" d="M192.9,304.1h17.7v7h-17.7v21.6c0,2.3,0.2,4.3,0.5,5.8c0.4,1.5,0.9,2.7,1.6,3.6c0.7,0.9,1.6,1.5,2.7,1.8
		c1.1,0.4,2.3,0.5,3.8,0.5c2.5,0,4.5-0.3,6.1-0.9c1.5-0.6,2.6-1,3.2-1.2l1.6,6.9c-0.8,0.4-2.3,0.9-4.4,1.6c-2.1,0.6-4.5,0.9-7.2,0.9
		c-3.2,0-5.8-0.4-7.9-1.2c-2.1-0.8-3.7-2-5-3.6c-1.3-1.6-2.1-3.6-2.7-6c-0.5-2.4-0.8-5.1-0.8-8.2v-41.8l8.4-1.4V304.1z"/>
	<path class="st1" d="M261.3,327.5c0,3.7-0.5,7.1-1.6,10.1c-1.1,3-2.6,5.6-4.5,7.7c-2,2.2-4.3,3.8-7,5c-2.7,1.2-5.6,1.8-8.8,1.8
		c-3.2,0-6.1-0.6-8.8-1.8s-5-2.8-7-5c-2-2.2-3.5-4.7-4.5-7.7c-1.1-3-1.6-6.4-1.6-10.1c0-3.7,0.5-7,1.6-10c1.1-3,2.6-5.6,4.5-7.8
		c1.9-2.2,4.3-3.8,7-5s5.6-1.8,8.8-1.8c3.2,0,6.1,0.6,8.8,1.8c2.7,1.2,5,2.8,7,5c1.9,2.2,3.5,4.8,4.5,7.8
		C260.8,320.5,261.3,323.9,261.3,327.5z M252.6,327.5c0-5.3-1.2-9.5-3.6-12.6c-2.4-3.1-5.6-4.6-9.7-4.6c-4.1,0-7.3,1.5-9.7,4.6
		c-2.4,3.1-3.6,7.3-3.6,12.6c0,5.3,1.2,9.5,3.6,12.6c2.4,3.1,5.6,4.6,9.7,4.6c4.1,0,7.3-1.5,9.7-4.6
		C251.4,337,252.6,332.8,252.6,327.5z"/>
	<path class="st1" d="M290.4,303.2c0.7,0,1.5,0,2.5,0.1c0.9,0.1,1.8,0.2,2.7,0.4c0.9,0.2,1.7,0.3,2.5,0.4c0.7,0.2,1.3,0.3,1.7,0.4
		l-1.4,7.3c-0.7-0.2-1.8-0.5-3.3-0.9c-1.5-0.3-3.5-0.5-5.9-0.5c-1.6,0-3.1,0.2-4.6,0.5c-1.5,0.3-2.5,0.6-3,0.7v39.3h-8.4v-44.8
		c2-0.7,4.4-1.4,7.4-2C283.4,303.5,286.7,303.2,290.4,303.2z"/>
	<path class="st1" d="M305.2,327.6c0-4.1,0.6-7.8,1.8-10.8c1.2-3.1,2.8-5.7,4.8-7.7c2-2,4.3-3.6,6.8-4.6c2.6-1,5.2-1.5,7.9-1.5
		c6.3,0,11.1,2,14.5,5.9c3.4,3.9,5,9.9,5,18c0,0.4,0,0.8,0,1.4c0,0.6,0,1.1-0.1,1.6h-32c0.4,4.9,1.8,8.5,4.2,11.1
		c2.5,2.5,6.3,3.8,11.5,3.8c2.9,0,5.4-0.3,7.4-0.8c2-0.5,3.5-1,4.5-1.5l1.2,7c-1,0.5-2.8,1.1-5.4,1.7c-2.6,0.6-5.4,0.9-8.7,0.9
		c-4.1,0-7.6-0.6-10.6-1.8c-3-1.2-5.4-2.9-7.3-5.1c-1.9-2.2-3.3-4.7-4.3-7.7C305.7,334.4,305.2,331.2,305.2,327.6z M337.4,323
		c0.1-3.8-0.9-6.9-2.8-9.3c-2-2.4-4.6-3.6-8.1-3.6c-1.9,0-3.6,0.4-5.1,1.1c-1.5,0.8-2.7,1.7-3.7,2.9c-1,1.2-1.8,2.6-2.4,4.1
		c-0.6,1.6-0.9,3.1-1.1,4.8H337.4z"/>
</g>
</svg>
