<?xml version="1.0" encoding="utf-8"?>
<!-- Generator: Adobe Illustrator 23.1.1, SVG Export Plug-In . SVG Version: 6.00 Build 0)  -->
<svg version="1.1" id="Layer_1" xmlns="http://www.w3.org/2000/svg" xmlns:xlink="http://www.w3.org/1999/xlink" x="0px" y="0px"
	 viewBox="0 0 477 347.6" style="enable-background:new 0 0 477 347.6;" xml:space="preserve">
<style type="text/css">
	.st0{fill:none;stroke:#FFFFFF;stroke-width:19;stroke-linecap:round;stroke-linejoin:round;stroke-miterlimit:10;}
	.st1{fill:#FFFFFF;}
	.st2{fill:none;stroke:#FFFFFF;stroke-width:18;stroke-linecap:round;stroke-miterlimit:10;}
	.st3{fill:none;stroke:#FFFFFF;stroke-width:27;stroke-miterlimit:10;}
	.st4{fill:none;stroke:#FFFFFF;stroke-width:25;stroke-linecap:round;stroke-miterlimit:10;}
	.st5{fill:none;stroke:#FFFFFF;stroke-width:21;stroke-linecap:round;stroke-miterlimit:10;}
	.st6{fill:none;stroke:#FFFFFF;stroke-width:21;stroke-linecap:round;stroke-linejoin:round;stroke-miterlimit:10;}
	.st7{fill:none;stroke:#00ADE5;stroke-width:19;stroke-linecap:round;stroke-linejoin:round;stroke-miterlimit:10;}
	.st8{fill:#00ADE5;}
	.st9{fill:none;stroke:#00ADE5;stroke-width:18;stroke-linecap:round;stroke-miterlimit:10;}
	.st10{fill:none;stroke:#00ADE5;stroke-width:27;stroke-miterlimit:10;}
	.st11{fill:none;stroke:#00ADE5;stroke-width:25;stroke-linecap:round;stroke-miterlimit:10;}
	.st12{fill:none;stroke:#00ADE5;stroke-width:21;stroke-linecap:round;stroke-miterlimit:10;}
	.st13{fill:none;stroke:#00ADE5;stroke-width:21;stroke-linecap:round;stroke-linejoin:round;stroke-miterlimit:10;}
</style>
<g>
	<line class="st5" x1="237.1" y1="10.5" x2="237.1" y2="156"/>
	<polyline class="st6" points="302.7,95.9 236.9,161.6 169,93.7 	"/>
	<polyline class="st6" points="346.3,148.6 346.3,211.1 130.6,211.1 130.6,148.6 	"/>
</g>
<g>
	<path class="st1" d="M69.7,299.4c0,5.4-0.8,10.1-2.5,14.1c-1.7,4-4.1,7.3-7.1,9.9c-3.1,2.6-6.7,4.6-11,5.9c-4.3,1.3-8.9,1.9-14,1.9
		c-2.5,0-5.3-0.1-8.3-0.3c-3-0.2-5.8-0.6-8.2-1.2v-60.5c2.5-0.6,5.2-1,8.2-1.2c3-0.2,5.8-0.3,8.3-0.3c5.1,0,9.8,0.6,14,1.9
		c4.3,1.3,7.9,3.2,11,5.9c3.1,2.6,5.4,5.9,7.1,9.9C68.8,289.3,69.7,294,69.7,299.4z M35.8,323.5c8.3,0,14.5-2.1,18.5-6.3
		c4.1-4.2,6.1-10.2,6.1-17.8c0-7.6-2-13.5-6.1-17.8c-4.1-4.2-10.3-6.3-18.5-6.3c-2.5,0-4.4,0-5.7,0.1c-1.4,0.1-2.3,0.1-2.8,0.2v47.7
		c0.5,0.1,1.5,0.1,2.8,0.2C31.4,323.5,33.3,323.5,35.8,323.5z"/>
	<path class="st1" d="M123.4,307.2c0,3.7-0.5,7.1-1.6,10.1c-1.1,3-2.6,5.6-4.5,7.7c-2,2.2-4.3,3.8-7,5s-5.6,1.8-8.8,1.8
		c-3.2,0-6.1-0.6-8.8-1.8s-5-2.8-7-5c-2-2.2-3.5-4.7-4.5-7.7c-1.1-3-1.6-6.4-1.6-10.1c0-3.7,0.5-7,1.6-10c1.1-3,2.6-5.6,4.5-7.8
		c1.9-2.2,4.3-3.8,7-5s5.6-1.8,8.8-1.8c3.2,0,6.1,0.6,8.8,1.8s5,2.8,7,5c1.9,2.2,3.5,4.8,4.5,7.8
		C122.9,300.2,123.4,303.5,123.4,307.2z M114.7,307.2c0-5.3-1.2-9.5-3.6-12.6c-2.4-3.1-5.6-4.6-9.7-4.6s-7.3,1.5-9.7,4.6
		c-2.4,3.1-3.6,7.3-3.6,12.6c0,5.3,1.2,9.5,3.6,12.6c2.4,3.1,5.6,4.6,9.7,4.6s7.3-1.5,9.7-4.6C113.5,316.7,114.7,312.5,114.7,307.2z
		"/>
	<path class="st1" d="M172.3,330.6c-1.7-4.3-3.5-9.3-5.4-14.8c-1.9-5.5-3.6-11.3-5.2-17.3c-1.6,6-3.3,11.8-5.1,17.3
		c-1.9,5.6-3.6,10.5-5.3,14.8H144c-2.8-6.2-5.5-13.2-8.1-21.1c-2.6-7.9-5.1-16.5-7.5-25.6h9c0.6,2.8,1.3,5.9,2.2,9.2
		c0.8,3.3,1.7,6.6,2.7,9.9c0.9,3.3,1.9,6.5,2.9,9.5c1,3.1,2,5.7,2.9,8c1-2.8,2-5.8,3-9s1.9-6.3,2.8-9.5c0.9-3.2,1.8-6.4,2.6-9.5
		c0.8-3.1,1.5-6,2.1-8.7h6.9c0.5,2.7,1.2,5.6,2,8.7c0.8,3.1,1.6,6.2,2.5,9.5c0.9,3.2,1.8,6.4,2.8,9.5c1,3.1,2,6.1,3,9
		c0.9-2.3,1.8-5,2.8-8s2-6.2,2.9-9.5c1-3.3,1.9-6.6,2.7-9.9c0.8-3.3,1.6-6.4,2.2-9.2h8.6c-2.3,9.2-4.8,17.7-7.5,25.6
		c-2.6,7.9-5.3,15-8.1,21.1H172.3z"/>
	<path class="st1" d="M204,285.1c1.9-0.5,4.5-1,7.7-1.5c3.2-0.5,6.8-0.8,11-0.8c3.7,0,6.8,0.5,9.3,1.6c2.5,1.1,4.4,2.5,5.9,4.4
		c1.5,1.9,2.5,4.2,3.1,6.8c0.6,2.6,0.9,5.6,0.9,8.7v26.3h-8.4v-24.5c0-2.9-0.2-5.3-0.6-7.4c-0.4-2-1-3.7-1.9-5
		c-0.9-1.3-2.1-2.2-3.6-2.7c-1.5-0.6-3.4-0.9-5.6-0.9c-0.9,0-1.8,0-2.8,0.1c-1,0.1-1.9,0.1-2.7,0.2c-0.9,0.1-1.7,0.2-2.3,0.3
		c-0.7,0.1-1.2,0.2-1.5,0.3v39.5H204V285.1z"/>
	<path class="st1" d="M269.7,331.5c-5.2-0.1-8.8-1.2-11-3.3c-2.2-2.1-3.2-5.4-3.2-9.8v-56.2l8.4-1.4V317c0,1.4,0.1,2.5,0.4,3.4
		c0.2,0.9,0.6,1.6,1.2,2.2c0.5,0.5,1.3,0.9,2.2,1.2c0.9,0.3,2,0.5,3.3,0.7L269.7,331.5z"/>
	<path class="st1" d="M321.5,307.2c0,3.7-0.5,7.1-1.6,10.1c-1.1,3-2.6,5.6-4.5,7.7c-2,2.2-4.3,3.8-7,5s-5.6,1.8-8.8,1.8
		c-3.2,0-6.1-0.6-8.8-1.8s-5-2.8-7-5c-2-2.2-3.5-4.7-4.5-7.7c-1.1-3-1.6-6.4-1.6-10.1c0-3.7,0.5-7,1.6-10c1.1-3,2.6-5.6,4.5-7.8
		c1.9-2.2,4.3-3.8,7-5s5.6-1.8,8.8-1.8c3.2,0,6.1,0.6,8.8,1.8s5,2.8,7,5c1.9,2.2,3.5,4.8,4.5,7.8C321,300.2,321.5,303.5,321.5,307.2
		z M312.8,307.2c0-5.3-1.2-9.5-3.6-12.6c-2.4-3.1-5.6-4.6-9.7-4.6s-7.3,1.5-9.7,4.6c-2.4,3.1-3.6,7.3-3.6,12.6
		c0,5.3,1.2,9.5,3.6,12.6c2.4,3.1,5.6,4.6,9.7,4.6s7.3-1.5,9.7-4.6C311.6,316.7,312.8,312.5,312.8,307.2z"/>
	<path class="st1" d="M348.4,282.6c3.4,0,6.2,0.4,8.5,1.3c2.3,0.9,4.2,2.1,5.6,3.7c1.4,1.6,2.4,3.5,3,5.7c0.6,2.2,0.9,4.6,0.9,7.2
		v29.2c-0.7,0.1-1.7,0.3-3,0.5c-1.3,0.2-2.7,0.4-4.4,0.6s-3.4,0.3-5.3,0.5c-1.9,0.1-3.8,0.2-5.6,0.2c-2.6,0-5.1-0.3-7.3-0.8
		s-4.1-1.4-5.8-2.6c-1.6-1.2-2.9-2.7-3.8-4.6c-0.9-1.9-1.4-4.2-1.4-6.9c0-2.6,0.5-4.8,1.6-6.7c1-1.9,2.5-3.4,4.3-4.5
		c1.8-1.1,3.9-2,6.3-2.5c2.4-0.5,4.9-0.8,7.6-0.8c0.8,0,1.7,0,2.6,0.1c0.9,0.1,1.8,0.2,2.6,0.4c0.8,0.2,1.5,0.3,2.1,0.4
		c0.6,0.1,1,0.2,1.3,0.3V301c0-1.4-0.2-2.7-0.4-4.1c-0.3-1.4-0.8-2.5-1.6-3.6c-0.8-1-1.8-1.9-3.2-2.5c-1.3-0.6-3.1-0.9-5.3-0.9
		c-2.8,0-5.2,0.2-7.2,0.6c-2.1,0.4-3.6,0.8-4.6,1.2l-1-6.9c1.1-0.5,2.9-0.9,5.4-1.4C342.7,282.9,345.5,282.6,348.4,282.6z
		 M349.1,324.6c2,0,3.7,0,5.3-0.1c1.5-0.1,2.8-0.3,3.8-0.5V310c-0.6-0.3-1.6-0.6-2.9-0.8c-1.3-0.2-3-0.3-4.9-0.3
		c-1.3,0-2.6,0.1-4,0.3c-1.4,0.2-2.7,0.6-3.9,1.1c-1.2,0.6-2.1,1.4-2.9,2.3c-0.8,1-1.2,2.3-1.2,3.9c0,3,1,5.1,2.9,6.3
		C343.2,324,345.8,324.6,349.1,324.6z"/>
	<path class="st1" d="M410.5,262.2l8.4-1.4v68.5c-1.9,0.5-4.4,1.1-7.4,1.6c-3,0.5-6.5,0.8-10.3,0.8c-3.6,0-6.8-0.6-9.7-1.7
		c-2.9-1.1-5.3-2.8-7.4-4.9c-2-2.1-3.6-4.7-4.7-7.7c-1.1-3-1.7-6.4-1.7-10.2c0-3.6,0.5-6.9,1.4-9.9c0.9-3,2.3-5.6,4.1-7.7
		c1.8-2.2,4-3.8,6.6-5c2.6-1.2,5.6-1.8,9-1.8c2.7,0,5.1,0.4,7.2,1.1c2.1,0.7,3.6,1.4,4.6,2.1V262.2z M410.5,293.7
		c-1-0.8-2.5-1.6-4.4-2.4c-1.9-0.8-4-1.2-6.3-1.2c-2.4,0-4.5,0.4-6.2,1.3c-1.7,0.9-3.1,2.1-4.2,3.6c-1.1,1.5-1.9,3.3-2.3,5.4
		c-0.5,2.1-0.7,4.4-0.7,6.8c0,5.5,1.4,9.7,4.1,12.6c2.7,3,6.3,4.5,10.8,4.5c2.3,0,4.2-0.1,5.7-0.3c1.5-0.2,2.7-0.4,3.6-0.7V293.7z"
		/>
	<path class="st1" d="M444.2,324.6c3.4,0,6-0.5,7.6-1.4s2.5-2.3,2.5-4.3c0-2-0.8-3.7-2.4-4.9c-1.6-1.2-4.3-2.5-8-4
		c-1.8-0.7-3.5-1.5-5.2-2.2c-1.7-0.7-3.1-1.6-4.3-2.7c-1.2-1-2.2-2.2-2.9-3.7c-0.7-1.4-1.1-3.2-1.1-5.3c0-4.1,1.5-7.4,4.6-9.9
		c3.1-2.4,7.2-3.6,12.5-3.6c1.3,0,2.6,0.1,4,0.2c1.3,0.2,2.5,0.3,3.7,0.5c1.1,0.2,2.1,0.4,3,0.7c0.9,0.2,1.5,0.4,2,0.6l-1.5,7.2
		c-0.9-0.5-2.3-1-4.2-1.5c-1.9-0.5-4.2-0.8-6.9-0.8c-2.3,0-4.4,0.5-6.1,1.4c-1.7,0.9-2.6,2.4-2.6,4.4c0,1,0.2,1.9,0.6,2.7
		c0.4,0.8,1,1.5,1.8,2.1c0.8,0.6,1.8,1.2,3,1.8c1.2,0.5,2.6,1.1,4.3,1.7c2.2,0.8,4.2,1.7,5.9,2.5c1.7,0.8,3.2,1.8,4.5,2.8
		c1.2,1.1,2.2,2.4,2.8,3.9c0.7,1.5,1,3.4,1,5.6c0,4.3-1.6,7.6-4.8,9.8c-3.2,2.2-7.8,3.3-13.7,3.3c-4.1,0-7.4-0.3-9.7-1
		c-2.3-0.7-3.9-1.2-4.8-1.6l1.5-7.2c1,0.4,2.5,0.9,4.6,1.6C437.9,324.2,440.7,324.6,444.2,324.6z"/>
</g>
</svg>
