<svg xmlns="http://www.w3.org/2000/svg" viewBox="0 0 736.17 482.45"><title>complete-checkmark</title><path d="M711.56,72.7l-3.51,32.86c-.41,3.66-3.7,3.66-4.11,0L700.43,72.7A3,3,0,0,0,698.74,70l-19.65-4.93a2.4,2.4,0,0,1,0-4.6l19.65-4.93a3,3,0,0,0,1.69-2.69L703.94,20c.41-3.65,3.7-3.65,4.11,0l3.51,32.86a3,3,0,0,0,1.69,2.69l19.65,4.93a2.4,2.4,0,0,1,0,4.6L713.25,70A3,3,0,0,0,711.56,72.7Z" fill="#c7db95"/><path d="M621.54,459l-2.27,21.28c-.26,2.36-2.4,2.36-2.66,0L614.33,459a1.92,1.92,0,0,0-1.09-1.74l-12.72-3.2a1.55,1.55,0,0,1,0-3l12.72-3.19a1.92,1.92,0,0,0,1.09-1.74l2.28-21.28c.26-2.37,2.4-2.37,2.66,0l2.27,21.28a1.93,1.93,0,0,0,1.1,1.74l12.72,3.19a1.55,1.55,0,0,1,0,3l-12.72,3.2A1.93,1.93,0,0,0,621.54,459Z" fill="#c7db95"/><path d="M37.94,224.11l-3.77,35.34c-.44,3.92-4,3.92-4.42,0L26,224.11a3.23,3.23,0,0,0-1.82-2.89L3,215.92A2.57,2.57,0,0,1,3,211l21.12-5.3a3.23,3.23,0,0,0,1.82-2.9l3.77-35.33c.44-3.92,4-3.92,4.42,0l3.77,35.33a3.25,3.25,0,0,0,1.82,2.9L60.89,211a2.57,2.57,0,0,1,0,4.94l-21.13,5.3A3.24,3.24,0,0,0,37.94,224.11Z" fill="#c7db95"/><path d="M406.39,6.6l23.39,19.69a27.13,27.13,0,0,0,22.25,6l30.1-5.36a27.14,27.14,0,0,1,30.29,17.49l10.4,28.75a27.18,27.18,0,0,0,16.29,16.29l28.75,10.4a27.14,27.14,0,0,1,17.49,30.29L580,160.21a27.13,27.13,0,0,0,6,22.25l19.69,23.39a27.13,27.13,0,0,1,0,35L586,264.21a27.13,27.13,0,0,0-6,22.25l5.36,30.1a27.13,27.13,0,0,1-17.49,30.29l-28.75,10.4a27.2,27.2,0,0,0-16.29,16.3l-10.4,28.74a27.14,27.14,0,0,1-30.29,17.49L452,414.42a27.13,27.13,0,0,0-22.25,6l-23.39,19.69a27.13,27.13,0,0,1-35,0L348,420.38a27.13,27.13,0,0,0-22.25-6l-30.1,5.36a27.13,27.13,0,0,1-30.29-17.49L255,373.55a27.21,27.21,0,0,0-16.3-16.3L210,346.85a27.13,27.13,0,0,1-17.49-30.29l5.36-30.1a27.13,27.13,0,0,0-6-22.25l-19.69-23.38a27.13,27.13,0,0,1,0-35l19.69-23.39a27.13,27.13,0,0,0,6-22.25l-5.36-30.1A27.14,27.14,0,0,1,210,99.82l28.74-10.4A27.2,27.2,0,0,0,255,73.13l10.4-28.75a27.13,27.13,0,0,1,30.29-17.49l30.1,5.36a27.13,27.13,0,0,0,22.25-6L371.41,6.6A27.13,27.13,0,0,1,406.39,6.6Z" fill="#c7db95"/><polygon points="370.49 308.62 299.01 243.56 325.18 214.8 366.75 252.63 464.26 136.64 494.03 161.66 370.49 308.62" fill="#33adb6"/></svg>