<svg xmlns="http://www.w3.org/2000/svg" viewBox="0 0 366.34 350"><title>subgenre_icon</title><path d="M241,280.27a5.9,5.9,0,0,0-4.73,6.87v0l.12.69a5.92,5.92,0,0,0,5.82,4.91,5.63,5.63,0,0,0,1-.09,5.91,5.91,0,0,0,4.83-6.82l-.17-.91a5.87,5.87,0,0,0-6.85-4.7Z" fill="#232f3e"/><path d="M242.44,305.33a5.94,5.94,0,0,0-7.37,3.94l-.23.74a5.9,5.9,0,0,0,3.92,7.39h0a6.13,6.13,0,0,0,1.75.26,5.92,5.92,0,0,0,5.64-4.16l.25-.79a5.91,5.91,0,0,0-3.93-7.37Z" fill="#232f3e"/><path d="M161.31,327.7a5.91,5.91,0,1,0-7.09,9.45l.7.51a5.9,5.9,0,1,0,7.21-9.35,1,1,0,0,0-.2-.15Z" fill="#232f3e"/><path d="M144.32,310.73a5.91,5.91,0,0,0-8.19,8.52l.25.22.64.58a5.91,5.91,0,0,0,7.88-8.82Z" fill="#232f3e"/><path d="M182.3,338l-.61-.18a5.91,5.91,0,1,0-3.43,11.31l.41.11,1,.23a5.52,5.52,0,0,0,1.34.16,5.9,5.9,0,0,0,1.33-11.66Z" fill="#232f3e"/><path d="M230.88,257.21a5.91,5.91,0,0,0-3.7,7.49l.31.9a5.43,5.43,0,0,0,5.23,3.62,6.52,6.52,0,0,0,2.23-.41,6.19,6.19,0,0,0,3.42-7.87A5.93,5.93,0,0,0,230.88,257.21Z" fill="#232f3e"/><path d="M204.56,338.17l-.61.12A5.92,5.92,0,0,0,205.12,350a5.83,5.83,0,0,0,1.18-.12l1-.21a5.91,5.91,0,0,0-2.71-11.5Z" fill="#232f3e"/><path d="M223.75,328.09l-.47.44a5.91,5.91,0,1,0,7.67,9l.35-.32.72-.68a5.91,5.91,0,0,0-8-8.71l-.29.27Z" fill="#232f3e"/><path d="M223.27,238v.87a5.61,5.61,0,0,0,5.7,5.52h.21A6.26,6.26,0,0,0,235.1,238a5.9,5.9,0,0,0-5.83-6h-.08A5.92,5.92,0,0,0,223.27,238Z" fill="#232f3e"/><path d="M233.58,207.63a5.94,5.94,0,0,0-7.09,4.5l-.08.37a5.86,5.86,0,0,0,5.76,6.9,6.15,6.15,0,0,0,5.89-4.82A5.84,5.84,0,0,0,233.58,207.63Z" fill="#232f3e"/><path d="M318,7.7l-4.23,2L309.9,12a8.45,8.45,0,0,0-3.8,9.25l2.37,10.34A57.26,57.26,0,1,1,297,27.45l-.85-3.7a18.61,18.61,0,0,1,8.39-20.48l.52-.33a82.91,82.91,0,0,0-86.2,132.22l-11.42,31.67a15.21,15.21,0,0,0,9,19.54l.2.07,51.75,18.75a15.15,15.15,0,0,0,18.12-6.3A12.73,12.73,0,0,0,288,196l11.5-31.59A82.9,82.9,0,0,0,318,7.7ZM240.41,163.24A5.89,5.89,0,0,1,233,167h0a6.23,6.23,0,0,1-4.14-7.57,5.58,5.58,0,0,1,6.81-4l.28.08.71.23a5.9,5.9,0,0,1,3.78,7.44Zm35.35,13.24a5.89,5.89,0,0,1-7.43,3.79h0a6.24,6.24,0,0,1-4.15-7.56,5.59,5.59,0,0,1,6.81-4l.28.08.71.23a5.89,5.89,0,0,1,3.81,7.42Z" fill="#232f3e"/><path d="M59.55,106.67,57.62,111l-1.31,4.28a8.44,8.44,0,0,0,3.23,9.46l5.67,3.93,3.43,2.17a57.12,57.12,0,0,1,70.73,65.08,42.21,42.21,0,0,1-1.11,5.2,57.25,57.25,0,1,1-104.61-44c.79-1.34,1.57-2.6,2.44-3.86a57.36,57.36,0,0,1,21-18l-3.4-2.22a18.64,18.64,0,0,1-7.14-20.93l.19-.6a82.93,82.93,0,0,0,22,156.33l12.13,31.35A15.43,15.43,0,0,0,100.84,308l51.29-19.93a15.34,15.34,0,0,0,9.61-16.39,14.44,14.44,0,0,0-.87-3.54l-12.21-31.36a76.34,76.34,0,0,0,7.17-11,69.61,69.61,0,0,0,6.3-15,81.71,81.71,0,0,0-1.73-54.52A83,83,0,0,0,59.55,106.67ZM100,282.72a6.42,6.42,0,0,1-2.48.5,6,6,0,0,1-5.62-3.46,5.6,5.6,0,0,1,2.55-7.5l.22-.11.69-.29A5.9,5.9,0,0,1,100,282.72Zm35.33-13.28a6.28,6.28,0,0,1-2.49.49,6,6,0,0,1-5.61-3.45,5.6,5.6,0,0,1,2.54-7.51l.22-.11.68-.29a5.91,5.91,0,0,1,4.66,10.87Z" fill="#232f3e"/></svg>