<svg xmlns="http://www.w3.org/2000/svg" viewBox="0 0 222.89 350"><title>subgenre_icon</title><path d="M149.2,115.57l34.3,41.5,20.69-62.24c2.73-10.14-2.41-24.27-13-27.81C162.11,59,155.64,95.53,149.2,115.57Z" fill="#232f3e"/><path d="M201.74,193.24,105.33,76.59c-19.14-22.69-54,6.15-35.06,29.12Q118.35,163.86,166.39,222c3.75,4.56-3.18,10.26-6.92,5.74l-51-61.71A22,22,0,0,0,93,158.37c-20.16-1.42-33.93,21.1-21,37,10.79,12.3,21,24,31.6,36.78,3.71,4.56-3.22,10.22-6.92,5.7-9.29-11.24-19.31-21.71-28.59-33-21.71-14.14-46.6,13.6-30.1,33.6l6.39,7.74c6,5.37,12.83,15,18.13,21.42,4,4.85-3.47,10.47-7.91,5l-16.7-20.2c-20.77-17.92-50,10.22-32.46,31.81,47.94,58.81,97,92.29,172.62,39.39C223.66,291.64,239.54,239.92,201.74,193.24Z" fill="#232f3e"/><path d="M135.82,10c10.41-18.29,27.11-5.95,27.11-5.95C190.32,30.5,135.82,65.5,135.82,65.5s-20.66-13.27-30.15-29.63c-5.92-10.22-7.49-21.64,3-31.8C108.7,4.07,125.41-8.27,135.82,10Z" fill="#232f3e"/></svg>