<svg xmlns="http://www.w3.org/2000/svg" viewBox="0 0 476.96 353.45"><title>m</title><path d="M154.71,233.31c0-66.67,29.76-120.72,83.77-120.72,54.54,0,83.77,54,83.77,120.72" fill="#fff"/><circle cx="238.48" cy="48.1" r="48.1" fill="#fff"/><path d="M64.6,327.8q-.9-2.16-2.38-5.49t-3.2-7.2q-1.71-3.87-3.64-8t-3.65-7.74q-1.71-3.64-3.19-6.52t-2.39-4.41q-1,10.62-1.62,23t-1.08,25H34.9q.36-8.1.81-16.34t1-16.2q.59-8,1.26-15.52t1.48-14.31h7.65q2.43,4,5.22,9.36t5.58,11.29q2.79,5.89,5.4,11.79l4.77,10.76,4.77-10.76q2.61-5.89,5.4-11.79t5.58-11.29q2.79-5.4,5.22-9.36h7.65q3.06,30.15,4.59,62.37H92.77q-.45-12.6-1.08-25t-1.62-23q-.9,1.53-2.38,4.41t-3.2,6.52q-1.71,3.64-3.64,7.74t-3.65,8Q75.49,319,74,322.31t-2.39,5.49Z" fill="#fff"/><path d="M109,345.17a16,16,0,0,0,2.57.85,12.4,12.4,0,0,0,3.1.41q5,0,7.74-2.21a18.94,18.94,0,0,0,5-7.15q-5.67-10.8-10.57-22.91a199,199,0,0,1-8.15-24.52h9q1,4,2.39,8.73t3.1,9.63q1.71,5,3.69,9.9t4.14,9.54q3.42-9.45,5.94-18.72t4.77-19.08h8.64q-3.24,13.23-7.2,25.42t-8.55,22.82a48,48,0,0,1-3.73,7,21.08,21.08,0,0,1-4.28,4.82,15.57,15.57,0,0,1-5.26,2.79,22.51,22.51,0,0,1-6.62.9,16.74,16.74,0,0,1-2.07-.14c-.72-.09-1.43-.21-2.11-.36s-1.32-.31-1.89-.49a9.39,9.39,0,0,1-1.22-.45Z" fill="#fff"/><path d="M197.08,273.44q13.14,0,20.2,5t7.07,14.9a20.22,20.22,0,0,1-1.94,9.22,15.8,15.8,0,0,1-5.58,6.21,25.45,25.45,0,0,1-8.86,3.47,58.46,58.46,0,0,1-11.79,1.08h-6.93v23.13h-8.73V275a49.15,49.15,0,0,1,8.23-1.22Q193.3,273.44,197.08,273.44Zm.72,7.65q-5.58,0-8.55.27v24.48h6.57a50.77,50.77,0,0,0,8.1-.59,18.28,18.28,0,0,0,6.07-2,9.77,9.77,0,0,0,3.83-3.82,12.69,12.69,0,0,0,1.35-6.21,11.55,11.55,0,0,0-1.39-5.94,10.61,10.61,0,0,0-3.79-3.74,16.3,16.3,0,0,0-5.53-1.93A39.4,39.4,0,0,0,197.8,281.09Z" fill="#fff"/><path d="M252,288.65c.72,0,1.54,0,2.47.13s1.85.21,2.75.36,1.72.3,2.47.45a15,15,0,0,1,1.67.41l-1.44,7.29a28,28,0,0,0-3.29-.86,28.79,28.79,0,0,0-5.89-.49,22,22,0,0,0-4.64.49c-1.53.33-2.53.56-3,.68v39.33H234.7V291.62a56.82,56.82,0,0,1,7.38-2A47.43,47.43,0,0,1,252,288.65Z" fill="#fff"/><path d="M310.75,313a29.61,29.61,0,0,1-1.62,10.08,23.06,23.06,0,0,1-4.55,7.74,20,20,0,0,1-7,5,23,23,0,0,1-17.64,0,20,20,0,0,1-7-5,23,23,0,0,1-4.54-7.74,32,32,0,0,1,0-20.12,22.94,22.94,0,0,1,4.54-7.78,20,20,0,0,1,7-5,23.1,23.1,0,0,1,17.64,0,20,20,0,0,1,7,5,23,23,0,0,1,4.55,7.78A29.74,29.74,0,0,1,310.75,313ZM302,313q0-7.92-3.56-12.56a12.42,12.42,0,0,0-19.35,0q-3.56,4.63-3.55,12.56t3.55,12.55a12.41,12.41,0,0,0,19.35,0Q302,321,302,313Z" fill="#fff"/><path d="M340.81,266.6a31,31,0,0,1,5.4.4,21.66,21.66,0,0,1,3.24.77l-1.17,7.2a25.18,25.18,0,0,0-2.7-.77,18.25,18.25,0,0,0-4.14-.4q-5.85,0-8.19,3.19t-2.34,8.6v4.05h18v7h-18v39.78h-8.37v-51q0-9,4.41-13.91T340.81,266.6Zm21,14.58a5.39,5.39,0,0,1-3.83-1.49,5.89,5.89,0,0,1,0-8,5.68,5.68,0,0,1,7.65,0,5.87,5.87,0,0,1,0,8A5.36,5.36,0,0,1,361.78,281.18ZM366,336.44h-8.37v-46.8H366Z" fill="#fff"/><path d="M394.45,337.34c-5.17-.12-8.82-1.23-11-3.33s-3.24-5.37-3.24-9.81V268l8.37-1.44v56.25a13.57,13.57,0,0,0,.36,3.42,4.6,4.6,0,0,0,1.17,2.16,5,5,0,0,0,2.16,1.21,22.22,22.22,0,0,0,3.33.68Z" fill="#fff"/><path d="M402.36,313.13a29.9,29.9,0,0,1,1.8-10.85,22.5,22.5,0,0,1,4.78-7.69,19.19,19.19,0,0,1,6.84-4.59,21.28,21.28,0,0,1,7.91-1.53q9.45,0,14.5,5.89t5,18v1.39a15.15,15.15,0,0,1-.09,1.58h-32q.52,7.29,4.22,11.07t11.53,3.78a30.68,30.68,0,0,0,7.42-.77,27.24,27.24,0,0,0,4.55-1.48l1.16,7a24.82,24.82,0,0,1-5.35,1.71,38,38,0,0,1-8.69.9,27.52,27.52,0,0,1-10.57-1.85,19.74,19.74,0,0,1-7.34-5.08,20.76,20.76,0,0,1-4.27-7.7A32.51,32.51,0,0,1,402.36,313.13Zm32.13-4.59a14.05,14.05,0,0,0-2.83-9.32,9.75,9.75,0,0,0-8.05-3.64,11,11,0,0,0-5.09,1.12,12,12,0,0,0-3.74,2.93,13.45,13.45,0,0,0-2.38,4.14,19.93,19.93,0,0,0-1.12,4.77Z" fill="#fff"/></svg>