<?xml version="1.0" encoding="utf-8"?>
<!-- Generator: Adobe Illustrator 23.1.1, SVG Export Plug-In . SVG Version: 6.00 Build 0)  -->
<svg version="1.1" id="Layer_1" xmlns="http://www.w3.org/2000/svg" xmlns:xlink="http://www.w3.org/1999/xlink" x="0px" y="0px"
	 viewBox="0 0 243.7 54.6" style="enable-background:new 0 0 243.7 54.6;" xml:space="preserve">
<style type="text/css">
	.st0{fill:#FF9A00;}
</style>
<title>PrimeLogo_Blue</title>
<path class="st0" d="M220.2,24.5c-26.7,19.7-65.3,30.1-98.6,30.1C77.1,54.9,34.2,38.5,1.1,8.8c-2.5-2.3-0.3-5.3,2.7-3.6
	c36.7,21,78.3,32,120.6,31.9c31.5-0.2,62.8-6.6,91.8-18.8C220.9,16.4,224.6,21.1,220.2,24.5z"/>
<path class="st0" d="M231.5,12c-3.4-4.4-22.5-2.1-31.2-1c-2.6,0.3-3-1.9-0.7-3.6c15.2-10.7,40.3-7.6,43.2-4S242.1,32,227.6,44
	c-2.2,1.8-4.3,0.9-3.3-1.6C227.5,34.2,234.7,16.2,231.5,12z"/>
</svg>
