<svg xmlns="http://www.w3.org/2000/svg" viewBox="0 0 1246.35 724.16"><title>rotatephonealert</title><g opacity="0.5"><path d="M387.54,295.22H386q-43.79,0-87.57-.05a46.15,46.15,0,0,0-16.66,2.94,44.14,44.14,0,0,0-28.22,41c0,67.09-.19,134.17-.08,201.26,0,17.7,9.06,30.31,24.2,38.74,6.61,3.67,13.95,4.75,21.45,4.76,10.43,0,20.86,0,31.29,0,.66,0,1.76.19,1.89.56.57,1.6,1.79,1.52,3,1.53q8.25,0,16.48,0c1.24,0,2.53.11,2.9-1.6,0-.25.78-.51,1.21-.51,5.55,0,11.1,0,16.66.05a1.77,1.77,0,0,1,1.38.81c.75,2,2.19,2.65,4.19,2.65q16.38,0,32.76,0a3.9,3.9,0,0,0,3.77-2.44,2,2,0,0,1,1.37-1c3.33-.09,6.66-.08,10,0a1.88,1.88,0,0,1,1.44.73c.91,2,2.45,2.58,4.49,2.56,5.43,0,10.87,0,16.3,0q8.41,0,16.84,0c1.54,0,3-.35,3.35-2,.3-1.28,1-1.32,2-1.32q9.9,0,19.81,0,33.42,0,66.83.06l66.46,0q33.42,0,66.83.06t66.65,0c12.83,0,25.69.3,38.5-.3,14.79-.69,25.93-8.29,34-20.43,4.77-7.13,6.73-15.14,6.73-23.68q0-27.59,0-55.17,0-72.28.11-144.59a42.24,42.24,0,0,0-7.75-25.21c-9.24-12.94-21.92-19.26-37.79-19.26l-185.14-.16q-74.43-.08-148.85-.11h-2.45c-.75-3.46-1.54-4.09-4.87-4.09l-56.47,0C389.08,291.14,388.72,291.38,387.54,295.22Zm-114.45,114c0-2.12,2-4.39,4-4.37a4.27,4.27,0,0,1,3.91,4.18A3.63,3.63,0,0,1,277,413,3.7,3.7,0,0,1,273.09,409.24Zm2.17,44.36c0-9.43,0-18.87,0-28.31,0-.42-.09-1,.14-1.25.56-.61,1.34-1.5,1.95-1.44a2.47,2.47,0,0,1,1.54,1.8c.17,2.64.08,5.3.08,8v7.2c0,4.69,0,9.38,0,14.07,0,1.33-.25,2.38-1.84,2.36S275.26,455,275.26,453.6Zm541-126.32a26.19,26.19,0,0,1,3.65,14.15q0,38.4-.08,76.82,0,40.74,0,81.46c0,13.08-.2,26.16,0,39.24.22,16.38-14,28.2-28.44,28.13-59.17-.27-118.36-.18-177.54-.22l-68.49-.05q-84.06-.06-168.1-.13-39.7,0-79.42,0c-14.08,0-26.61-11.94-26.92-26-.2-9.25,0-18.51-.06-27.77,0-1.49.5-1.79,1.91-1.88,2.85-.18,5.92-.1,8.5-1.14,6.19-2.49,8.75-7.82,8.82-14.17.16-16.11.07-32.21.08-48.32,0-21.47.05-42.95,0-64.43,0-6.69-2.94-11.9-9.19-14.54-2.36-1-5.28-.86-8-.94-1.62,0-2.09-.46-2.08-2.1.09-8.21.05-16.42.06-24.62A27.32,27.32,0,0,1,291,313.94a30.45,30.45,0,0,1,8.41-1q70.08,0,140.15.08l140.7.09q70.35,0,140.7.12,35,0,70,0C802,313.25,810.39,318,816.21,327.28Z" fill="#fff"/></g><path d="M982.16,134.29v-1.57q0-43.8,0-87.58a46.43,46.43,0,0,0-2.93-16.66,44.16,44.16,0,0,0-41-28.22Q837.64.19,737,.18c-17.71,0-30.31,9.06-38.75,24.2-3.67,6.61-4.75,14-4.75,21.45,0,10.43,0,20.86,0,31.29,0,.66-.19,1.76-.56,1.9-1.59.56-1.52,1.78-1.53,3q0,8.25,0,16.48c0,1.24-.11,2.53,1.6,2.9.25,0,.51.79.51,1.21,0,5.55,0,11.1-.05,16.66a1.79,1.79,0,0,1-.8,1.38c-2,.75-2.65,2.19-2.65,4.19q0,16.38,0,32.77a3.91,3.91,0,0,0,2.45,3.77,2,2,0,0,1,1,1.36c.1,3.33.08,6.66,0,10a1.91,1.91,0,0,1-.72,1.44c-2,.91-2.59,2.45-2.56,4.49,0,5.43,0,10.87,0,16.3q0,8.42,0,16.84c0,1.54.35,3,2,3.35,1.27.3,1.31,1,1.31,2q0,9.92,0,19.81l-.06,66.83q0,33.22,0,66.46l-.06,66.83q0,33.33,0,66.66c0,12.82-.3,25.68.3,38.49.69,14.79,8.29,25.93,20.43,34C721.05,581,729.07,583,737.6,583l55.17,0q72.3,0,144.59.11a42.25,42.25,0,0,0,25.22-7.75c12.93-9.24,19.25-21.92,19.26-37.79q.06-92.58.15-185.14.07-74.41.12-148.85v-2.44c3.45-.76,4.08-1.54,4.08-4.88l0-56.47C986.24,135.83,986,135.48,982.16,134.29Zm-114-114.44c2.12-.05,4.4,2,4.37,3.95a4.26,4.26,0,0,1-4.18,3.91,3.63,3.63,0,0,1-3.92-3.92A3.7,3.7,0,0,1,868.13,19.85ZM823.77,22c9.44,0,18.87,0,28.31,0,.43,0,1-.09,1.25.14.61.57,1.5,1.34,1.45,1.95A2.48,2.48,0,0,1,853,25.66c-2.64.18-5.3.08-8,.08h-7.21c-4.69,0-9.38,0-14.07,0-1.33,0-2.38-.25-2.35-1.84S822.42,22,823.77,22ZM950.09,563A26.07,26.07,0,0,1,936,566.61l-76.83-.08-81.46,0c-13.07,0-26.16-.2-39.24,0-16.38.22-28.19-14-28.13-28.44.27-59.17.18-118.35.23-177.54l.05-68.49q.06-84.06.12-168.1,0-39.7,0-79.42c0-14.08,11.93-26.61,26-26.92,9.25-.2,18.5,0,27.76-.06,1.49,0,1.8.5,1.88,1.91.18,2.86.11,5.92,1.14,8.5,2.49,6.2,7.82,8.75,14.18,8.82,16.1.16,32.21.07,48.31.09,21.48,0,43,0,64.43,0,6.69,0,11.9-2.94,14.54-9.19,1-2.36.87-5.28.94-8,.06-1.62.46-2.09,2.11-2.08,8.2.1,16.41.05,24.62.06a27.3,27.3,0,0,1,26.79,20.11,30.11,30.11,0,0,1,1,8.42q0,70.07-.08,140.14,0,70.35-.08,140.7t-.13,140.7q0,35,0,70C964.12,548.74,959.4,557.14,950.09,563Z" fill="#fff"/><path d="M619.39,156.72l-45-25.1a5.47,5.47,0,0,0-8.05,5.75l11.54,64.29a5.47,5.47,0,0,0,9.55,2.58l33.49-39.19A5.47,5.47,0,0,0,619.39,156.72Z" fill="#ff9a00"/><path d="M574.53,158s-72.27,7.82-62.46,75.72a.56.56,0,0,0,1.11-.06C514,204.05,545,183.42,576.52,180" fill="#ff9a00"/><path d="M4.47,710.68l0-28.42,17.14,0v3.4H8.47v8.57H20.15v3.36H8.46v13.08Z" fill="#fff"/><path d="M44.5,700.05a13.55,13.55,0,0,1-.75,4.59,10.44,10.44,0,0,1-2.07,3.52,9,9,0,0,1-3.18,2.27,9.88,9.88,0,0,1-4,.8,10,10,0,0,1-4-.8,9.16,9.16,0,0,1-3.18-2.28,10.39,10.39,0,0,1-2.07-3.53,14.64,14.64,0,0,1,0-9.16,10.48,10.48,0,0,1,2.07-3.55,9.13,9.13,0,0,1,3.18-2.27,10.56,10.56,0,0,1,8,0,8.9,8.9,0,0,1,3.17,2.28,10.34,10.34,0,0,1,2.07,3.54A13.66,13.66,0,0,1,44.5,700.05Zm-4,0a9.19,9.19,0,0,0-1.62-5.72,5.23,5.23,0,0,0-4.4-2.11,5.25,5.25,0,0,0-4.41,2.11,10.92,10.92,0,0,0,0,11.43,5.26,5.26,0,0,0,4.41,2.12,5.27,5.27,0,0,0,4.41-2.11A9.17,9.17,0,0,0,40.52,700Z" fill="#fff"/><path d="M57.75,688.94a9.45,9.45,0,0,1,1.12.07c.43,0,.85.09,1.25.16l1.13.21c.34.07.6.13.76.18l-.66,3.32a12.71,12.71,0,0,0-1.49-.39,14,14,0,0,0-2.69-.23,10,10,0,0,0-2.11.23c-.7.15-1.16.25-1.37.31l0,17.91H49.86V690.29a26.62,26.62,0,0,1,3.37-.92A21.39,21.39,0,0,1,57.75,688.94Z" fill="#fff"/><path d="M78.74,689.41h8.08v3.2H78.74v9.84a12,12,0,0,0,.24,2.64,4.08,4.08,0,0,0,.74,1.65,2.77,2.77,0,0,0,1.23.84,5.54,5.54,0,0,0,1.72.24,8.14,8.14,0,0,0,2.77-.38c.7-.26,1.18-.45,1.45-.56l.74,3.16a14.38,14.38,0,0,1-2,.72,11.69,11.69,0,0,1-3.28.43,10.17,10.17,0,0,1-3.59-.56A5.27,5.27,0,0,1,76.47,709a6.7,6.7,0,0,1-1.21-2.73,17.5,17.5,0,0,1-.34-3.75v-19l3.81-.65Z" fill="#fff"/><path d="M91.64,710.74l0-31.16,3.81-.65v10.9a13.31,13.31,0,0,1,4.67-.85,10.77,10.77,0,0,1,4.22.72,6.65,6.65,0,0,1,2.69,2,7.7,7.7,0,0,1,1.41,3.09,18.23,18.23,0,0,1,.41,4v12H105V699.6a18.05,18.05,0,0,0-.26-3.36,5.78,5.78,0,0,0-.88-2.26,3.53,3.53,0,0,0-1.64-1.25,7.18,7.18,0,0,0-2.54-.39,9.22,9.22,0,0,0-1.27.08c-.44.05-.86.12-1.25.18s-.76.15-1.07.23-.54.15-.68.2v17.71Z" fill="#fff"/><path d="M113.87,700.14a13.53,13.53,0,0,1,.82-4.94,10.27,10.27,0,0,1,2.18-3.51,8.86,8.86,0,0,1,3.11-2.08,9.66,9.66,0,0,1,3.61-.7,8.21,8.21,0,0,1,6.6,2.69q2.3,2.68,2.29,8.18v.64a5.39,5.39,0,0,1,0,.72h-14.6a7.85,7.85,0,0,0,1.93,5c1.12,1.15,2.87,1.72,5.24,1.73a14.18,14.18,0,0,0,3.39-.35,13.28,13.28,0,0,0,2.07-.67l.53,3.19a11.06,11.06,0,0,1-2.44.78,17.53,17.53,0,0,1-4,.41,12.58,12.58,0,0,1-4.82-.85,9,9,0,0,1-3.34-2.32,9.42,9.42,0,0,1-1.94-3.5A15,15,0,0,1,113.87,700.14Zm14.64-2.08a6.51,6.51,0,0,0-1.29-4.25,4.47,4.47,0,0,0-3.67-1.66,5,5,0,0,0-2.32.51,5.47,5.47,0,0,0-1.7,1.33,6.11,6.11,0,0,0-1.09,1.89,9.13,9.13,0,0,0-.51,2.17Z" fill="#fff"/><path d="M151.27,690.41a10.42,10.42,0,0,1,5.37-1.43,9.62,9.62,0,0,1,4.08.82,8.64,8.64,0,0,1,3,2.3,10,10,0,0,1,1.86,3.53,15.27,15.27,0,0,1,.63,4.51,13.34,13.34,0,0,1-.76,4.65,9.75,9.75,0,0,1-2.15,3.5,9.28,9.28,0,0,1-3.37,2.21,11.93,11.93,0,0,1-4.43.78,26.48,26.48,0,0,1-4.71-.37c-1.37-.25-2.49-.5-3.36-.74l0-30.55,3.81-.65Zm0,17.05a11.73,11.73,0,0,0,1.62.31,18.94,18.94,0,0,0,2.61.15,6.34,6.34,0,0,0,4.92-2,8.3,8.3,0,0,0,1.85-5.76,13.7,13.7,0,0,0-.33-3.07,6.9,6.9,0,0,0-1.06-2.48,5.14,5.14,0,0,0-1.91-1.64,6.07,6.07,0,0,0-2.81-.6,8.14,8.14,0,0,0-4.88,1.64Z" fill="#fff"/><path d="M170.4,700.18a13.74,13.74,0,0,1,.83-4.94,10.36,10.36,0,0,1,2.17-3.5,8.88,8.88,0,0,1,3.12-2.09,9.86,9.86,0,0,1,3.61-.7,8.24,8.24,0,0,1,6.6,2.69c1.53,1.8,2.29,4.52,2.29,8.19v.63c0,.26,0,.5,0,.72h-14.6a7.79,7.79,0,0,0,1.92,5q1.68,1.72,5.25,1.73a14,14,0,0,0,3.38-.35,11.69,11.69,0,0,0,2.07-.67l.53,3.2a11.41,11.41,0,0,1-2.43.77,17.65,17.65,0,0,1-4,.41,12.55,12.55,0,0,1-4.82-.84,9.1,9.1,0,0,1-3.34-2.32,9.54,9.54,0,0,1-1.94-3.51A14.63,14.63,0,0,1,170.4,700.18ZM185,698.1a6.35,6.35,0,0,0-1.29-4.24,4.41,4.41,0,0,0-3.66-1.67,5,5,0,0,0-2.32.51,5.35,5.35,0,0,0-1.7,1.34,6,6,0,0,0-1.09,1.88,9.13,9.13,0,0,0-.51,2.17Z" fill="#fff"/><path d="M199.47,708.08a7.46,7.46,0,0,0,3.46-.62,2.08,2.08,0,0,0,1.13-2,2.64,2.64,0,0,0-1.1-2.21,17.87,17.87,0,0,0-3.65-1.85c-.82-.33-1.61-.66-2.36-1a8.85,8.85,0,0,1-1.95-1.21,5.71,5.71,0,0,1,.3-8.59A8.89,8.89,0,0,1,201,689c.6,0,1.2,0,1.8.1s1.16.16,1.68.25,1,.2,1.38.31a9.52,9.52,0,0,1,.92.29l-.7,3.28a9.29,9.29,0,0,0-1.93-.68,12.45,12.45,0,0,0-3.15-.35,5.86,5.86,0,0,0-2.79.63,2.1,2.1,0,0,0-1.19,2A2.55,2.55,0,0,0,198.1,697a6.35,6.35,0,0,0,1.38.8c.54.25,1.2.51,2,.78,1,.39,1.92.76,2.71,1.13a8.33,8.33,0,0,1,2,1.3,4.89,4.89,0,0,1,1.29,1.78,6.48,6.48,0,0,1,.45,2.56,5.12,5.12,0,0,1-2.2,4.47,10.88,10.88,0,0,1-6.25,1.51,16.49,16.49,0,0,1-4.43-.47c-1.07-.32-1.79-.56-2.18-.72l.7-3.28,2.09.74A12.31,12.31,0,0,0,199.47,708.08Z" fill="#fff"/><path d="M216.37,689.51h8.08v3.2h-8.08v9.84a11.5,11.5,0,0,0,.25,2.65,4.09,4.09,0,0,0,.73,1.64,2.69,2.69,0,0,0,1.23.84,5.63,5.63,0,0,0,1.73.25,8,8,0,0,0,2.76-.39l1.46-.55.73,3.15a14.38,14.38,0,0,1-2,.72,11.27,11.27,0,0,1-3.27.43,9.91,9.91,0,0,1-3.59-.56,5.28,5.28,0,0,1-2.28-1.66,6.69,6.69,0,0,1-1.2-2.73,17.46,17.46,0,0,1-.35-3.75l0-19,3.81-.66Z" fill="#fff"/><path d="M237.56,700.23a13.56,13.56,0,0,1,.83-4.94,10.2,10.2,0,0,1,2.17-3.5,8.71,8.71,0,0,1,3.12-2.09,9.82,9.82,0,0,1,3.61-.7,8.24,8.24,0,0,1,6.6,2.69c1.53,1.8,2.29,4.52,2.29,8.19v.63a5.31,5.31,0,0,1-.05.72H241.54a7.79,7.79,0,0,0,1.92,5q1.68,1.72,5.25,1.73a14.09,14.09,0,0,0,3.38-.35,11.69,11.69,0,0,0,2.07-.67l.53,3.2a11.55,11.55,0,0,1-2.44.77,17.5,17.5,0,0,1-3.95.41,12.55,12.55,0,0,1-4.82-.84,9,9,0,0,1-3.34-2.32,9.56,9.56,0,0,1-1.95-3.51A15,15,0,0,1,237.56,700.23Zm14.64-2.08a6.35,6.35,0,0,0-1.29-4.24,4.45,4.45,0,0,0-3.67-1.67,5,5,0,0,0-2.31.51,5.65,5.65,0,0,0-1.71,1.34,6.12,6.12,0,0,0-1.08,1.88,9.27,9.27,0,0,0-.52,2.17Z" fill="#fff"/><path d="M274.41,710.88c-.3-.6-.67-1.27-1.1-2s-.92-1.5-1.44-2.28-1.05-1.55-1.59-2.32-1.08-1.49-1.6-2.17c-.52.68-1.05,1.41-1.6,2.19s-1.08,1.56-1.58,2.34-1,1.53-1.42,2.27-.81,1.4-1.11,2H259a50.77,50.77,0,0,1,3.43-5.68c1.32-1.93,2.64-3.76,4-5.51l-7.05-10.13h4.31l5.08,7.47,5.13-7.46H278l-6.89,9.88q2,2.65,4,5.64a47.56,47.56,0,0,1,3.5,5.8Z" fill="#fff"/><path d="M301.4,700.28a15.18,15.18,0,0,1-.64,4.47,10.22,10.22,0,0,1-1.87,3.52,8.44,8.44,0,0,1-3,2.3,10.86,10.86,0,0,1-7.34.32,9.58,9.58,0,0,1-2.11-.95v8.53h-3.81l0-28.25c.9-.22,2-.46,3.38-.72a26.05,26.05,0,0,1,4.7-.38,11.88,11.88,0,0,1,4.42.78,9.48,9.48,0,0,1,3.36,2.22,9.7,9.7,0,0,1,2.15,3.5A13.44,13.44,0,0,1,301.4,700.28Zm-4,0a8.21,8.21,0,0,0-1.84-5.75,6.36,6.36,0,0,0-4.92-2,22.9,22.9,0,0,0-2.68.12,10.16,10.16,0,0,0-1.54.29v13.45a7.9,7.9,0,0,0,2,1.11,7.64,7.64,0,0,0,2.87.53,6.16,6.16,0,0,0,2.8-.59,5.15,5.15,0,0,0,1.91-1.64,6.87,6.87,0,0,0,1.07-2.46A13.39,13.39,0,0,0,297.42,700.28Z" fill="#fff"/><path d="M305.58,700.28a13.78,13.78,0,0,1,.82-4.94,10.48,10.48,0,0,1,2.18-3.5,8.71,8.71,0,0,1,3.12-2.09,9.77,9.77,0,0,1,3.61-.69,8.16,8.16,0,0,1,6.59,2.69c1.53,1.79,2.3,4.51,2.29,8.18v.63a5.39,5.39,0,0,1,0,.72H309.56a7.79,7.79,0,0,0,1.92,5q1.68,1.73,5.25,1.73a14.09,14.09,0,0,0,3.38-.35,12.29,12.29,0,0,0,2.07-.67l.53,3.2a11.76,11.76,0,0,1-2.44.77,17,17,0,0,1-4,.41,12.5,12.5,0,0,1-4.81-.84,8.94,8.94,0,0,1-3.34-2.32,9.42,9.42,0,0,1-2-3.51A14.91,14.91,0,0,1,305.58,700.28Zm14.64-2.08a6.37,6.37,0,0,0-1.29-4.24,4.47,4.47,0,0,0-3.67-1.67,5,5,0,0,0-2.32.52,5.43,5.43,0,0,0-1.7,1.33,6.14,6.14,0,0,0-1.09,1.88,9.25,9.25,0,0,0-.51,2.17Z" fill="#fff"/><path d="M337.57,689.15a9.45,9.45,0,0,1,1.12.07c.43,0,.85.09,1.25.16l1.13.21c.34.07.6.13.76.18l-.66,3.32a12.71,12.71,0,0,0-1.49-.39,14,14,0,0,0-2.69-.23,10,10,0,0,0-2.11.23l-1.37.3,0,17.92h-3.81V690.5a26.62,26.62,0,0,1,3.37-.92A21.39,21.39,0,0,1,337.57,689.15Z" fill="#fff"/><path d="M347.41,685.76a2.46,2.46,0,0,1-1.74-.68,2.67,2.67,0,0,1,0-3.65,2.46,2.46,0,0,1,4.2,1.83,2.37,2.37,0,0,1-.72,1.82A2.46,2.46,0,0,1,347.41,685.76Zm1.91,25.17H345.5l0-21.32h3.81Z" fill="#fff"/><path d="M354.7,700.32a13.53,13.53,0,0,1,.82-4.94,10.27,10.27,0,0,1,2.18-3.51,8.86,8.86,0,0,1,3.11-2.08,9.66,9.66,0,0,1,3.61-.7,8.21,8.21,0,0,1,6.6,2.69q2.3,2.69,2.29,8.18v.64a5.39,5.39,0,0,1,0,.72h-14.6a7.79,7.79,0,0,0,1.93,5c1.12,1.15,2.86,1.72,5.24,1.73a14.18,14.18,0,0,0,3.39-.35,13.28,13.28,0,0,0,2.07-.67l.53,3.19a11.06,11.06,0,0,1-2.44.78,17.59,17.59,0,0,1-4,.41,12.58,12.58,0,0,1-4.82-.85,9.08,9.08,0,0,1-3.34-2.31,9.54,9.54,0,0,1-1.94-3.51A14.38,14.38,0,0,1,354.7,700.32Zm14.63-2.08a6.45,6.45,0,0,0-1.28-4.25,4.47,4.47,0,0,0-3.67-1.66,5,5,0,0,0-2.32.51,5.47,5.47,0,0,0-1.7,1.33,6.11,6.11,0,0,0-1.09,1.89,9.13,9.13,0,0,0-.51,2.17Z" fill="#fff"/><path d="M378.81,690.25c.88-.22,2-.45,3.49-.69a29.67,29.67,0,0,1,5-.37,10.77,10.77,0,0,1,4.22.72,6.65,6.65,0,0,1,2.69,2,8,8,0,0,1,1.41,3.1,18.16,18.16,0,0,1,.41,4v12H392.2V699.81a19,19,0,0,0-.26-3.36,5.67,5.67,0,0,0-.88-2.25,3.49,3.49,0,0,0-1.64-1.26,7.22,7.22,0,0,0-2.54-.39c-.41,0-.84,0-1.27,0l-1.26.1c-.39,0-.75.09-1.06.15l-.68.12v18H378.8Z" fill="#fff"/><path d="M411.6,711.47a11.48,11.48,0,0,1-4.53-.82,9,9,0,0,1-3.28-2.3,9.48,9.48,0,0,1-2-3.51,14.45,14.45,0,0,1-.65-4.49,13.54,13.54,0,0,1,.72-4.51,10.82,10.82,0,0,1,2-3.54,9.13,9.13,0,0,1,3.22-2.34,10.6,10.6,0,0,1,4.25-.83,17.46,17.46,0,0,1,2.87.24,13.28,13.28,0,0,1,2.74.79l-.86,3.24a8.77,8.77,0,0,0-2-.66,10.84,10.84,0,0,0-2.4-.25,6.1,6.1,0,0,0-4.9,2,8.9,8.9,0,0,0-1.7,5.87,11.58,11.58,0,0,0,.38,3.15,6.59,6.59,0,0,0,1.23,2.47,5.44,5.44,0,0,0,2.15,1.57,8.22,8.22,0,0,0,3.2.56,12.24,12.24,0,0,0,2.75-.28,9.63,9.63,0,0,0,1.92-.62l.53,3.2a3.59,3.59,0,0,1-.94.39c-.41.12-.87.23-1.39.33s-1.08.17-1.66.24A14.44,14.44,0,0,1,411.6,711.47Z" fill="#fff"/><path d="M420.21,700.37a13.52,13.52,0,0,1,.83-4.94,10.25,10.25,0,0,1,2.17-3.51,8.81,8.81,0,0,1,3.12-2.08,9.66,9.66,0,0,1,3.61-.7,8.21,8.21,0,0,1,6.6,2.69q2.29,2.68,2.29,8.18v.64c0,.26,0,.5,0,.72h-14.6a7.79,7.79,0,0,0,1.92,5c1.12,1.15,2.87,1.72,5.25,1.73a14,14,0,0,0,3.38-.35,12.59,12.59,0,0,0,2.07-.67l.53,3.19a10.69,10.69,0,0,1-2.44.78,17.5,17.5,0,0,1-3.95.41,12.55,12.55,0,0,1-4.82-.85,8.9,8.9,0,0,1-3.34-2.32,9.42,9.42,0,0,1-1.94-3.5A14.68,14.68,0,0,1,420.21,700.37Zm14.64-2.08a6.4,6.4,0,0,0-1.29-4.25,4.45,4.45,0,0,0-3.66-1.66,5,5,0,0,0-2.32.51,5.47,5.47,0,0,0-1.7,1.33,6.11,6.11,0,0,0-1.09,1.89,9.66,9.66,0,0,0-.52,2.17Z" fill="#fff"/><path d="M448.33,706.33a4.78,4.78,0,0,1,0,.64v.64a17.46,17.46,0,0,1-.76,5.1,23.51,23.51,0,0,1-2.07,4.81l-3-.94a14.73,14.73,0,0,0,1.35-4.24,26.77,26.77,0,0,0,.33-4c0-.36,0-.7,0-1s0-.64-.06-.94Z" fill="#fff"/><path d="M482.65,700.41a15.09,15.09,0,0,1-.63,4.47,10.27,10.27,0,0,1-1.87,3.53,8.45,8.45,0,0,1-3,2.29,9.62,9.62,0,0,1-4.08.82,9.88,9.88,0,0,1-3.26-.5,10.11,10.11,0,0,1-2.11-.94v8.53h-3.82l0-28.25c.91-.22,2-.46,3.39-.72a25.07,25.07,0,0,1,4.69-.39,12.14,12.14,0,0,1,4.43.79,9.59,9.59,0,0,1,3.36,2.21,9.74,9.74,0,0,1,2.15,3.51A13.34,13.34,0,0,1,482.65,700.41Zm-4,0a8.2,8.2,0,0,0-1.84-5.74,6.36,6.36,0,0,0-4.92-2,23.22,23.22,0,0,0-2.69.12,12.52,12.52,0,0,0-1.54.28v13.45a7.41,7.41,0,0,0,2,1.11,7.48,7.48,0,0,0,2.87.54,6.07,6.07,0,0,0,2.81-.6,5.12,5.12,0,0,0,1.91-1.63,7,7,0,0,0,1.07-2.46A13.48,13.48,0,0,0,478.68,700.41Z" fill="#fff"/><path d="M494.41,711.45c-2.35-.05-4-.56-5-1.52a6,6,0,0,1-1.47-4.47l0-25.58,3.81-.66,0,25.63a6.13,6.13,0,0,0,.17,1.56,2,2,0,0,0,.53,1,2.28,2.28,0,0,0,1,.56,10.46,10.46,0,0,0,1.52.3Z" fill="#fff"/><path d="M498,700.43a13.49,13.49,0,0,1,.82-4.94A10.42,10.42,0,0,1,501,692a8.84,8.84,0,0,1,3.12-2.09,9.8,9.8,0,0,1,3.6-.69,8.21,8.21,0,0,1,6.6,2.69c1.53,1.79,2.3,4.52,2.29,8.18v.64a5.14,5.14,0,0,1,0,.71H502a7.8,7.8,0,0,0,1.92,5.05q1.68,1.72,5.25,1.72a14.2,14.2,0,0,0,3.38-.34,12.14,12.14,0,0,0,2.07-.68l.53,3.2a11.06,11.06,0,0,1-2.44.78,17.53,17.53,0,0,1-4,.41,12.69,12.69,0,0,1-4.81-.85,8.82,8.82,0,0,1-3.34-2.32,9.27,9.27,0,0,1-1.95-3.51A14.89,14.89,0,0,1,498,700.43Zm14.64-2.08a6.38,6.38,0,0,0-1.29-4.25,4.44,4.44,0,0,0-3.67-1.66,5.08,5.08,0,0,0-2.32.51,5.43,5.43,0,0,0-1.7,1.33,6.19,6.19,0,0,0-1.09,1.89,9.13,9.13,0,0,0-.51,2.17Z" fill="#fff"/><path d="M529,689.22a11.23,11.23,0,0,1,3.88.59,6.09,6.09,0,0,1,3.91,4.27,12.64,12.64,0,0,1,.41,3.3v13.33l-1.38.22c-.58.1-1.25.18-2,.27s-1.53.15-2.39.22-1.72.1-2.57.1a13.83,13.83,0,0,1-3.32-.37A7.56,7.56,0,0,1,523,710a5.41,5.41,0,0,1-1.72-2.11,7.42,7.42,0,0,1-.61-3.16,6.08,6.08,0,0,1,.72-3,5.72,5.72,0,0,1,1.95-2,9,9,0,0,1,2.87-1.14,15.37,15.37,0,0,1,3.44-.37,9.84,9.84,0,0,1,1.19.07c.41,0,.8.09,1.17.16l1,.19.57.12v-1.07a8.29,8.29,0,0,0-.21-1.86,4.21,4.21,0,0,0-.73-1.64,3.77,3.77,0,0,0-1.46-1.15,5.78,5.78,0,0,0-2.4-.44,17.81,17.81,0,0,0-3.3.27,11.84,11.84,0,0,0-2.11.55l-.45-3.16a12,12,0,0,1,2.46-.63A20.8,20.8,0,0,1,529,689.22Zm.32,19.1q1.35,0,2.4-.06a10.5,10.5,0,0,0,1.74-.22v-6.36a5.19,5.19,0,0,0-1.33-.35,15.59,15.59,0,0,0-2.23-.14,14.77,14.77,0,0,0-1.83.12,5.54,5.54,0,0,0-1.76.51,3.9,3.9,0,0,0-1.34,1.07,2.81,2.81,0,0,0-.53,1.78,3.06,3.06,0,0,0,1.31,2.85A6.84,6.84,0,0,0,529.35,708.32Z" fill="#fff"/><path d="M548.49,708.34a7.51,7.51,0,0,0,3.47-.62,2.07,2.07,0,0,0,1.13-2,2.62,2.62,0,0,0-1.11-2.22,17.6,17.6,0,0,0-3.65-1.85c-.82-.32-1.6-.66-2.35-1a8.49,8.49,0,0,1-2-1.21,5.06,5.06,0,0,1-1.8-4.1,5.43,5.43,0,0,1,2.09-4.49,8.93,8.93,0,0,1,5.7-1.66c.61,0,1.21,0,1.81.1s1.16.16,1.68.25,1,.2,1.37.31.71.21.93.29l-.7,3.28a9.51,9.51,0,0,0-1.93-.68,12.59,12.59,0,0,0-3.16-.35,5.92,5.92,0,0,0-2.79.63,2.12,2.12,0,0,0-1.19,2,2.65,2.65,0,0,0,.27,1.23,2.74,2.74,0,0,0,.82,1,6.27,6.27,0,0,0,1.37.8c.55.25,1.2.51,2,.79,1,.38,1.91.75,2.7,1.12a8.75,8.75,0,0,1,2,1.3,4.89,4.89,0,0,1,1.29,1.78,6.5,6.5,0,0,1,.45,2.57,5.06,5.06,0,0,1-2.2,4.46,10.91,10.91,0,0,1-6.25,1.52,17,17,0,0,1-4.43-.48,20.36,20.36,0,0,1-2.17-.72l.7-3.28c.44.17,1.13.41,2.09.74A12.29,12.29,0,0,0,548.49,708.34Z" fill="#fff"/><path d="M560.64,700.47a13.57,13.57,0,0,1,.82-4.94,10.46,10.46,0,0,1,2.17-3.5,9,9,0,0,1,3.12-2.09,9.85,9.85,0,0,1,3.61-.69,8.21,8.21,0,0,1,6.6,2.69q2.29,2.68,2.29,8.18v.63c0,.26,0,.5,0,.72h-14.6a7.77,7.77,0,0,0,1.92,5q1.68,1.72,5.25,1.73a13.55,13.55,0,0,0,3.38-.35,11.69,11.69,0,0,0,2.07-.67l.54,3.2a12.26,12.26,0,0,1-2.44.78,17.62,17.62,0,0,1-4,.4,12.55,12.55,0,0,1-4.82-.84,9.1,9.1,0,0,1-3.34-2.32,9.46,9.46,0,0,1-1.94-3.51A14.29,14.29,0,0,1,560.64,700.47Zm14.63-2.08a6.37,6.37,0,0,0-1.29-4.24,4.41,4.41,0,0,0-3.66-1.66A5,5,0,0,0,568,693a5.32,5.32,0,0,0-1.7,1.33,6,6,0,0,0-1.09,1.88,9.21,9.21,0,0,0-.51,2.18Z" fill="#fff"/><path d="M602.09,689.35c.33,0,.71,0,1.13.06s.84.1,1.25.17l1.13.21c.34.07.59.13.76.18l-.66,3.32a12.46,12.46,0,0,0-1.5-.39,13,13,0,0,0-2.68-.23,10.12,10.12,0,0,0-2.12.23l-1.37.3v17.92H594.2l0-20.42a26,26,0,0,1,3.36-.92A21.45,21.45,0,0,1,602.09,689.35Z" fill="#fff"/><path d="M628.86,700.48a13.57,13.57,0,0,1-.74,4.6A10.63,10.63,0,0,1,626,708.6a9.13,9.13,0,0,1-3.18,2.27,9.87,9.87,0,0,1-4,.8,10.05,10.05,0,0,1-4-.8,9.29,9.29,0,0,1-3.18-2.28,10.65,10.65,0,0,1-2.07-3.53,14.64,14.64,0,0,1,0-9.16,10.65,10.65,0,0,1,2.07-3.55,9.13,9.13,0,0,1,3.18-2.27,10.44,10.44,0,0,1,8,0,9.13,9.13,0,0,1,3.18,2.27,10.63,10.63,0,0,1,2.06,3.55A13.6,13.6,0,0,1,628.86,700.48Zm-4,0a9.25,9.25,0,0,0-1.61-5.72,5.66,5.66,0,0,0-8.82,0,10.94,10.94,0,0,0,0,11.44,5.66,5.66,0,0,0,8.82,0A9.17,9.17,0,0,0,624.88,700.48Z" fill="#fff"/><path d="M637.8,689.83h8.08V693H637.8v9.84a11.41,11.41,0,0,0,.25,2.64,3.84,3.84,0,0,0,.74,1.64A2.54,2.54,0,0,0,640,708a5.35,5.35,0,0,0,1.73.25,7.81,7.81,0,0,0,2.76-.39c.7-.25,1.19-.44,1.46-.55l.74,3.16a15.44,15.44,0,0,1-2,.72,11.35,11.35,0,0,1-3.28.42,9.93,9.93,0,0,1-3.59-.55,5.36,5.36,0,0,1-2.28-1.66,6.69,6.69,0,0,1-1.2-2.73,18.12,18.12,0,0,1-.35-3.75l0-19,3.81-.65Z" fill="#fff"/><path d="M657.61,689.31a10.93,10.93,0,0,1,3.87.6,6,6,0,0,1,3.91,4.27,12.12,12.12,0,0,1,.41,3.3V710.8l-1.37.23c-.59.09-1.25.18-2,.26s-1.54.16-2.4.23-1.71.1-2.56.1a13.76,13.76,0,0,1-3.32-.38,7.26,7.26,0,0,1-2.63-1.17A5.35,5.35,0,0,1,649.8,708a7.39,7.39,0,0,1-.61-3.16,6.06,6.06,0,0,1,.72-3,5.72,5.72,0,0,1,2-2,8.89,8.89,0,0,1,2.87-1.14,15.37,15.37,0,0,1,3.44-.37c.39,0,.78,0,1.19.06s.8.1,1.17.17l1,.18.57.13v-1.07a9.07,9.07,0,0,0-.2-1.87,4.45,4.45,0,0,0-.74-1.64,3.86,3.86,0,0,0-1.46-1.15,5.77,5.77,0,0,0-2.39-.43,17.74,17.74,0,0,0-3.3.27,11.17,11.17,0,0,0-2.12.55l-.44-3.16a11.36,11.36,0,0,1,2.46-.63A20.69,20.69,0,0,1,657.61,689.31Zm.31,19.11q1.35,0,2.4-.06a10.1,10.1,0,0,0,1.74-.23v-6.35a5,5,0,0,0-1.34-.35,14.25,14.25,0,0,0-2.23-.14,13,13,0,0,0-1.82.12,5.6,5.6,0,0,0-1.77.51,3.75,3.75,0,0,0-1.33,1.06,2.85,2.85,0,0,0-.54,1.79,3.07,3.07,0,0,0,1.32,2.85A6.83,6.83,0,0,0,657.92,708.42Z" fill="#fff"/><path d="M675.69,689.86h8.07v3.2h-8.07v9.84a12.13,12.13,0,0,0,.24,2.64,3.84,3.84,0,0,0,.74,1.64,2.62,2.62,0,0,0,1.23.84,5.24,5.24,0,0,0,1.72.25,8.11,8.11,0,0,0,2.77-.39l1.45-.55.74,3.16a13.43,13.43,0,0,1-2,.71,11.34,11.34,0,0,1-3.28.43,9.93,9.93,0,0,1-3.59-.55,5.21,5.21,0,0,1-2.27-1.67,6.47,6.47,0,0,1-1.21-2.72,18.15,18.15,0,0,1-.35-3.76l0-19,3.81-.65Z" fill="#fff"/><path d="M687,700.57a13.74,13.74,0,0,1,.83-4.94,10.25,10.25,0,0,1,2.17-3.51,9,9,0,0,1,3.12-2.08,9.66,9.66,0,0,1,3.61-.7,8.21,8.21,0,0,1,6.6,2.69q2.29,2.69,2.29,8.18v.64c0,.26,0,.5,0,.72H691a7.79,7.79,0,0,0,1.92,5c1.12,1.15,2.87,1.72,5.25,1.73a14,14,0,0,0,3.38-.35,11.56,11.56,0,0,0,2.07-.68l.53,3.2a10.69,10.69,0,0,1-2.44.78,17.5,17.5,0,0,1-3.95.41,12.55,12.55,0,0,1-4.82-.85,9,9,0,0,1-3.34-2.32,9.42,9.42,0,0,1-1.94-3.5A14.68,14.68,0,0,1,687,700.57Zm14.64-2.08a6.4,6.4,0,0,0-1.29-4.25,4.45,4.45,0,0,0-3.66-1.66,5,5,0,0,0-2.32.51,5.47,5.47,0,0,0-1.7,1.33,6.11,6.11,0,0,0-1.09,1.89,9.13,9.13,0,0,0-.51,2.17Z" fill="#fff"/><path d="M718.06,715.19a8.82,8.82,0,0,0,1.17.39,5.8,5.8,0,0,0,1.41.18,5.55,5.55,0,0,0,3.53-1,8.64,8.64,0,0,0,2.3-3.26q-2.58-4.92-4.81-10.43a90.3,90.3,0,0,1-3.7-11.18h4.1c.3,1.23.66,2.56,1.08,4s.89,2.89,1.41,4.39,1.08,3,1.68,4.51,1.23,3,1.88,4.35c1-2.87,1.95-5.71,2.71-8.53s1.5-5.71,2.18-8.69h3.94q-1.49,6-3.29,11.59t-3.9,10.39a22.5,22.5,0,0,1-1.71,3.17,9.26,9.26,0,0,1-1.94,2.19,7.11,7.11,0,0,1-2.4,1.27,10.08,10.08,0,0,1-3,.41,7.78,7.78,0,0,1-.94-.06,9.6,9.6,0,0,1-1-.17c-.32-.07-.61-.14-.86-.22a4.08,4.08,0,0,1-.56-.21Z" fill="#fff"/><path d="M759.77,700.58a13.47,13.47,0,0,1-.74,4.59A10.67,10.67,0,0,1,757,708.7a9,9,0,0,1-3.17,2.27,10.12,10.12,0,0,1-4,.8,9.89,9.89,0,0,1-4-.81,9.13,9.13,0,0,1-3.18-2.27,10.63,10.63,0,0,1-2.06-3.53,13.31,13.31,0,0,1-.74-4.59,13.56,13.56,0,0,1,.74-4.57,10.57,10.57,0,0,1,2.08-3.55,9,9,0,0,1,3.17-2.27,10.5,10.5,0,0,1,8,0,9.29,9.29,0,0,1,3.18,2.28A10.63,10.63,0,0,1,759,696,13.32,13.32,0,0,1,759.77,700.58Zm-4,0a9.17,9.17,0,0,0-1.61-5.72,5.66,5.66,0,0,0-8.82,0,10.94,10.94,0,0,0,0,11.44,5.66,5.66,0,0,0,8.82,0A9.19,9.19,0,0,0,755.79,700.58Z" fill="#fff"/><path d="M782.11,710.64c-.88.22-2,.45-3.47.7a30.41,30.41,0,0,1-5,.36,10.52,10.52,0,0,1-4.14-.72,6.72,6.72,0,0,1-2.71-2,8.25,8.25,0,0,1-1.47-3.1,16.06,16.06,0,0,1-.45-4v-12h3.81v11.15q0,3.9,1.22,5.58t4.14,1.68c.41,0,.83,0,1.27,0s.85-.06,1.23-.1l1-.12a2.8,2.8,0,0,0,.68-.15v-18h3.81Z" fill="#fff"/><path d="M796.55,689.5c.33,0,.71,0,1.13.06s.84.1,1.25.17.79.13,1.13.2a6.33,6.33,0,0,1,.76.19l-.66,3.32a12.46,12.46,0,0,0-1.5-.39,13.08,13.08,0,0,0-2.68-.23,10.11,10.11,0,0,0-2.12.22c-.69.15-1.15.25-1.37.31v17.92h-3.82l0-20.41a25.81,25.81,0,0,1,3.36-.93A22.18,22.18,0,0,1,796.55,689.5Z" fill="#fff"/><path d="M832.75,700.68a15.52,15.52,0,0,1-.64,4.47,10.22,10.22,0,0,1-1.87,3.52,8.45,8.45,0,0,1-3,2.29,9.62,9.62,0,0,1-4.08.82,9.89,9.89,0,0,1-3.26-.49,10.59,10.59,0,0,1-2.11-.95v8.53H814l0-28.25c.9-.22,2-.46,3.38-.72a26,26,0,0,1,4.69-.38,11.93,11.93,0,0,1,4.43.78,9.48,9.48,0,0,1,3.36,2.22A9.61,9.61,0,0,1,832,696,13.4,13.4,0,0,1,832.75,700.68Zm-4,0a8.2,8.2,0,0,0-1.84-5.74,6.36,6.36,0,0,0-4.92-2,23.22,23.22,0,0,0-2.69.12,10.24,10.24,0,0,0-1.53.29v13.45a7.7,7.7,0,0,0,2,1.1,7.48,7.48,0,0,0,2.87.54,6.17,6.17,0,0,0,2.81-.59,5.24,5.24,0,0,0,1.91-1.64,7,7,0,0,0,1.07-2.46A13.42,13.42,0,0,0,828.77,700.67Z" fill="#fff"/><path d="M838.11,711.3l0-31.16,3.82-.65v10.9a13.31,13.31,0,0,1,4.67-.85,10.73,10.73,0,0,1,4.22.72,6.65,6.65,0,0,1,2.69,2,7.7,7.7,0,0,1,1.41,3.09,18.23,18.23,0,0,1,.41,4v12h-3.81V700.16a17.23,17.23,0,0,0-.26-3.36,5.71,5.71,0,0,0-.88-2.26,3.53,3.53,0,0,0-1.64-1.25,7.18,7.18,0,0,0-2.54-.39,9.22,9.22,0,0,0-1.27.08c-.44,0-.86.11-1.25.18s-.75.14-1.07.23a6.9,6.9,0,0,0-.67.2l0,17.71Z" fill="#fff"/><path d="M880.35,700.67a13.47,13.47,0,0,1-.74,4.59,10.67,10.67,0,0,1-2.08,3.53,9.13,9.13,0,0,1-3.18,2.27,10.05,10.05,0,0,1-4,.8,9.88,9.88,0,0,1-4-.81,9.13,9.13,0,0,1-3.18-2.27,10.65,10.65,0,0,1-2.07-3.53,14.64,14.64,0,0,1,0-9.16,10.39,10.39,0,0,1,2.07-3.55,9.13,9.13,0,0,1,3.18-2.27,10.5,10.5,0,0,1,8,0,9.16,9.16,0,0,1,3.17,2.28,10.48,10.48,0,0,1,2.07,3.55A13.56,13.56,0,0,1,880.35,700.67Zm-4,0a9.23,9.23,0,0,0-1.61-5.72,5.66,5.66,0,0,0-8.82,0,10.94,10.94,0,0,0,0,11.44,5.67,5.67,0,0,0,8.82,0A9.19,9.19,0,0,0,876.37,700.67Z" fill="#fff"/><path d="M885.73,690.63q1.31-.33,3.48-.69a29.75,29.75,0,0,1,5-.37,10.79,10.79,0,0,1,4.23.72,6.62,6.62,0,0,1,2.68,2,7.74,7.74,0,0,1,1.41,3.1,18.16,18.16,0,0,1,.41,4v12h-3.81V700.19a17.23,17.23,0,0,0-.26-3.36,5.67,5.67,0,0,0-.88-2.25,3.44,3.44,0,0,0-1.64-1.26,7.18,7.18,0,0,0-2.54-.39c-.41,0-.83,0-1.27,0l-1.25.1c-.4,0-.75.09-1.07.15l-.67.12,0,18h-3.81Z" fill="#fff"/><path d="M908.06,700.73a13.56,13.56,0,0,1,.83-4.94,10.3,10.3,0,0,1,2.17-3.5,8.84,8.84,0,0,1,3.12-2.09,9.81,9.81,0,0,1,3.61-.69,8.21,8.21,0,0,1,6.6,2.69q2.29,2.68,2.29,8.18V701a5.31,5.31,0,0,1,0,.72H912a7.8,7.8,0,0,0,1.92,5c1.12,1.14,2.87,1.72,5.25,1.72a14.14,14.14,0,0,0,3.38-.34,12.43,12.43,0,0,0,2.07-.68l.53,3.2a12,12,0,0,1-2.44.78,17.53,17.53,0,0,1-4,.4A12.55,12.55,0,0,1,914,711a9,9,0,0,1-3.34-2.32,9.48,9.48,0,0,1-1.95-3.51A14.91,14.91,0,0,1,908.06,700.73Zm14.64-2.08a6.37,6.37,0,0,0-1.29-4.24,4.44,4.44,0,0,0-3.67-1.66,4.91,4.91,0,0,0-2.31.51,5.47,5.47,0,0,0-1.71,1.33,6.12,6.12,0,0,0-1.08,1.88,9.75,9.75,0,0,0-.52,2.18Z" fill="#fff"/><path d="M945.22,690.06h8.07v3.19h-8.08v9.84a11.47,11.47,0,0,0,.24,2.64,3.84,3.84,0,0,0,.74,1.64,2.61,2.61,0,0,0,1.23.85,5.54,5.54,0,0,0,1.72.24,8.15,8.15,0,0,0,2.77-.39c.69-.25,1.18-.44,1.45-.55l.74,3.16a15.44,15.44,0,0,1-2,.72,11.35,11.35,0,0,1-3.28.42,9.93,9.93,0,0,1-3.59-.55,5.27,5.27,0,0,1-2.27-1.66,6.57,6.57,0,0,1-1.21-2.73,18.12,18.12,0,0,1-.35-3.75l0-19,3.81-.65Z" fill="#fff"/><path d="M976.37,700.74a13.72,13.72,0,0,1-.74,4.59,10.57,10.57,0,0,1-2.08,3.53,9.13,9.13,0,0,1-3.18,2.27,10.48,10.48,0,0,1-8,0,9.29,9.29,0,0,1-3.18-2.28,10.48,10.48,0,0,1-2.07-3.53,14.64,14.64,0,0,1,0-9.16,10.48,10.48,0,0,1,2.07-3.55,9.13,9.13,0,0,1,3.18-2.27,10.05,10.05,0,0,1,4-.8,9.89,9.89,0,0,1,4,.81,9,9,0,0,1,3.17,2.27,10.48,10.48,0,0,1,2.07,3.55A13.6,13.6,0,0,1,976.37,700.74Zm-4,0a9.25,9.25,0,0,0-1.61-5.72,5.67,5.67,0,0,0-8.82,0,10.94,10.94,0,0,0,0,11.44,5.66,5.66,0,0,0,8.82,0A9.17,9.17,0,0,0,972.39,700.74Z" fill="#fff"/><path d="M1010,700.81a15.19,15.19,0,0,1-.63,4.47,10.13,10.13,0,0,1-1.87,3.52,8.47,8.47,0,0,1-3,2.3,9.77,9.77,0,0,1-4.08.81,9.89,9.89,0,0,1-3.26-.49,10,10,0,0,1-2.11-.95V719h-3.82l0-28.25c.9-.22,2-.45,3.38-.71a25.07,25.07,0,0,1,4.69-.39,11.93,11.93,0,0,1,4.43.78,9.48,9.48,0,0,1,3.36,2.22,9.74,9.74,0,0,1,2.15,3.51A13.34,13.34,0,0,1,1010,700.81Zm-4,0a8.18,8.18,0,0,0-1.84-5.74,6.36,6.36,0,0,0-4.92-2,23.22,23.22,0,0,0-2.69.12,11.71,11.71,0,0,0-1.53.29v13.45a8,8,0,0,0,2,1.11,7.67,7.67,0,0,0,2.87.53,6.2,6.2,0,0,0,2.81-.59,5.15,5.15,0,0,0,1.91-1.64,7,7,0,0,0,1.07-2.46A13.39,13.39,0,0,0,1006,700.81Z" fill="#fff"/><path d="M1034.17,700.79a13.31,13.31,0,0,1-.74,4.59,10.44,10.44,0,0,1-2.07,3.52,9.16,9.16,0,0,1-3.18,2.28,10.54,10.54,0,0,1-8,0,9,9,0,0,1-3.18-2.28,10.39,10.39,0,0,1-2.07-3.53,14.64,14.64,0,0,1,0-9.16,10.34,10.34,0,0,1,2.07-3.54,9,9,0,0,1,3.18-2.28,10.56,10.56,0,0,1,8,0,9,9,0,0,1,3.17,2.28,10.29,10.29,0,0,1,2.07,3.55A13.32,13.32,0,0,1,1034.17,700.79Zm-4,0a9.19,9.19,0,0,0-1.62-5.72,5.65,5.65,0,0,0-8.81,0,10.88,10.88,0,0,0,0,11.44,5.65,5.65,0,0,0,8.81,0A9.15,9.15,0,0,0,1030.2,700.78Z" fill="#fff"/><path d="M1047.43,689.69c.32,0,.7,0,1.12.06s.84.1,1.25.16l1.13.21c.34.07.6.13.76.18l-.66,3.32a14.76,14.76,0,0,0-1.5-.39,13.11,13.11,0,0,0-2.68-.22,10,10,0,0,0-2.11.22c-.7.15-1.16.25-1.38.31v17.91h-3.81V691a27.89,27.89,0,0,1,3.37-.92A21.36,21.36,0,0,1,1047.43,689.69Z" fill="#fff"/><path d="M1059,690.15H1067v3.2h-8.08v9.84a12.16,12.16,0,0,0,.24,2.65,3.9,3.9,0,0,0,.74,1.64,2.52,2.52,0,0,0,1.23.84,5.52,5.52,0,0,0,1.72.25,8.11,8.11,0,0,0,2.77-.39l1.45-.55.74,3.16a15.8,15.8,0,0,1-2,.71,11.34,11.34,0,0,1-3.28.43,9.91,9.91,0,0,1-3.59-.56,5.19,5.19,0,0,1-2.27-1.66,6.57,6.57,0,0,1-1.21-2.73,18.12,18.12,0,0,1-.35-3.75l0-19,3.81-.66Z" fill="#fff"/><path d="M1078.75,689.63a11.17,11.17,0,0,1,3.87.59,6.27,6.27,0,0,1,2.54,1.69,6.18,6.18,0,0,1,1.37,2.58,12.22,12.22,0,0,1,.41,3.3v13.33l-1.37.22c-.59.1-1.25.19-2,.27s-1.54.15-2.4.22-1.71.1-2.56.1a13.83,13.83,0,0,1-3.32-.37,7.61,7.61,0,0,1-2.63-1.17,5.42,5.42,0,0,1-1.72-2.11,7.42,7.42,0,0,1-.61-3.16,6,6,0,0,1,.72-3,5.72,5.72,0,0,1,2-2.05,9.13,9.13,0,0,1,2.87-1.15,15.4,15.4,0,0,1,3.45-.36c.38,0,.78,0,1.18.06s.8.09,1.17.16l1,.19.57.12V698a9,9,0,0,0-.2-1.86,4.23,4.23,0,0,0-.74-1.64,3.73,3.73,0,0,0-1.45-1.15,5.7,5.7,0,0,0-2.4-.43,17.81,17.81,0,0,0-3.3.26,11.61,11.61,0,0,0-2.11.55l-.45-3.15a11.85,11.85,0,0,1,2.46-.64A21.77,21.77,0,0,1,1078.75,689.63Zm.31,19.1q1.35,0,2.4-.06a10.22,10.22,0,0,0,1.74-.22V702.1a4.56,4.56,0,0,0-1.33-.35,14.26,14.26,0,0,0-2.24-.15,14.74,14.74,0,0,0-1.82.12,5.6,5.6,0,0,0-1.77.51,3.86,3.86,0,0,0-1.33,1.07,2.76,2.76,0,0,0-.53,1.78,3,3,0,0,0,1.31,2.85A6.73,6.73,0,0,0,1079.06,708.73Z" fill="#fff"/><path d="M1095.15,686.32a2.46,2.46,0,0,1-1.74-.68,2.67,2.67,0,0,1,0-3.65,2.46,2.46,0,0,1,4.2,1.83,2.37,2.37,0,0,1-.72,1.82A2.46,2.46,0,0,1,1095.15,686.32Zm1.91,25.17h-3.81V690.17h3.81Z" fill="#fff"/><path d="M1107.2,690.18h8.08v3.2h-8.08v9.84a11.35,11.35,0,0,0,.25,2.64,4.07,4.07,0,0,0,.73,1.65,2.77,2.77,0,0,0,1.23.84,5.58,5.58,0,0,0,1.72.24,8.14,8.14,0,0,0,2.77-.38l1.46-.56.73,3.16a14.38,14.38,0,0,1-2,.72,11.64,11.64,0,0,1-3.28.43,10.07,10.07,0,0,1-3.58-.56,5.22,5.22,0,0,1-2.28-1.66,6.69,6.69,0,0,1-1.2-2.73,17.46,17.46,0,0,1-.35-3.75v-19l3.82-.65Z" fill="#fff"/><path d="M1129.59,690.81c.87-.21,2-.45,3.46-.69a29.42,29.42,0,0,1,5-.37,9.37,9.37,0,0,1,3.45.56,6.12,6.12,0,0,1,2.33,1.62c.19-.14.5-.33.91-.57a9.31,9.31,0,0,1,1.51-.72,16.6,16.6,0,0,1,2-.61,10,10,0,0,1,2.38-.27,9.8,9.8,0,0,1,4,.72,5.82,5.82,0,0,1,2.44,2,8,8,0,0,1,1.18,3.12,23.07,23.07,0,0,1,.31,3.94v12h-3.82V700.39a25,25,0,0,0-.18-3.24,6.21,6.21,0,0,0-.69-2.26,3.2,3.2,0,0,0-1.4-1.33,5.24,5.24,0,0,0-2.27-.44,8.26,8.26,0,0,0-3.18.52,6.05,6.05,0,0,0-1.7.92,14.07,14.07,0,0,1,.49,2.33,20.82,20.82,0,0,1,.16,2.67v12h-3.81V700.38a21.45,21.45,0,0,0-.21-3.24,6.47,6.47,0,0,0-.71-2.26,3.24,3.24,0,0,0-1.39-1.33,5.08,5.08,0,0,0-2.24-.43c-.38,0-.79,0-1.23,0s-.85.06-1.25.1-.76.09-1.09.14l-.65.12,0,18h-3.81Z" fill="#fff"/><path d="M1183.7,700.9a13.56,13.56,0,0,1-.74,4.59,10.67,10.67,0,0,1-2.08,3.53,9,9,0,0,1-3.18,2.27,10.54,10.54,0,0,1-8,0,9,9,0,0,1-3.18-2.28,10.58,10.58,0,0,1-2.06-3.52,13.33,13.33,0,0,1-.74-4.6,13.6,13.6,0,0,1,.74-4.57,10.52,10.52,0,0,1,2.08-3.54,9.16,9.16,0,0,1,3.17-2.28,10.56,10.56,0,0,1,8,0,9.16,9.16,0,0,1,3.18,2.28,10.53,10.53,0,0,1,2.06,3.55A13.56,13.56,0,0,1,1183.7,700.9Zm-4,0a9.15,9.15,0,0,0-1.61-5.72,5.66,5.66,0,0,0-8.82,0,10.94,10.94,0,0,0,0,11.44,5.67,5.67,0,0,0,8.82,0A9.19,9.19,0,0,0,1179.72,700.9Z" fill="#fff"/><path d="M1202.86,680.41l3.81-.65,0,31.2c-.87.25-2,.49-3.36.74a27.56,27.56,0,0,1-4.72.36,11.88,11.88,0,0,1-4.42-.78,9.43,9.43,0,0,1-3.37-2.22,9.73,9.73,0,0,1-2.14-3.5,13.4,13.4,0,0,1-.76-4.66,15,15,0,0,1,.64-4.51,10.06,10.06,0,0,1,1.87-3.52,8.55,8.55,0,0,1,3-2.3,10.86,10.86,0,0,1,7.34-.32,10.33,10.33,0,0,1,2.11,1Zm0,14.35a7.79,7.79,0,0,0-2-1.1,7.45,7.45,0,0,0-2.87-.54,6.23,6.23,0,0,0-2.81.59,5.21,5.21,0,0,0-1.9,1.64,6.81,6.81,0,0,0-1.07,2.48,13.72,13.72,0,0,0-.33,3.08,8.29,8.29,0,0,0,1.84,5.76,6.34,6.34,0,0,0,4.92,2,19.07,19.07,0,0,0,2.6-.14,12.71,12.71,0,0,0,1.62-.31Z" fill="#fff"/><path d="M1212,701a13.57,13.57,0,0,1,.82-4.94,10.32,10.32,0,0,1,2.18-3.5,8.71,8.71,0,0,1,3.12-2.09,9.56,9.56,0,0,1,3.6-.69,8.2,8.2,0,0,1,6.6,2.68c1.53,1.8,2.3,4.52,2.29,8.19v.63a5.39,5.39,0,0,1,0,.72H1216a7.79,7.79,0,0,0,1.92,5q1.68,1.72,5.24,1.73a14.18,14.18,0,0,0,3.39-.35,12.29,12.29,0,0,0,2.07-.67l.53,3.2a11.76,11.76,0,0,1-2.44.77,17,17,0,0,1-4,.41,12.59,12.59,0,0,1-4.82-.84,9,9,0,0,1-3.33-2.32,9.42,9.42,0,0,1-1.95-3.51A14.91,14.91,0,0,1,1212,701Zm14.64-2.08a6.41,6.41,0,0,0-1.29-4.24,4.45,4.45,0,0,0-3.67-1.67,5,5,0,0,0-2.32.51,5.61,5.61,0,0,0-1.7,1.34,6.14,6.14,0,0,0-1.09,1.88,9.25,9.25,0,0,0-.51,2.17Z" fill="#fff"/><path d="M1240.64,709.39a2.77,2.77,0,0,1-.74,1.92,2.87,2.87,0,0,1-4,0,2.78,2.78,0,0,1-.73-1.93,2.74,2.74,0,0,1,.74-1.92,2.86,2.86,0,0,1,4,0A2.76,2.76,0,0,1,1240.64,709.39Z" fill="#fff"/></svg>