<svg xmlns="http://www.w3.org/2000/svg" viewBox="0 0 522.96 350"><title>subgenre_icon</title><path d="M408.89,252.43c-3.51-1.41-7.72-.35-9.47,2.8l-7.37,13c-12.29-12.28-34.4-14.39-54.76-14.39-10.53,0-21.76.7-31.58,2.81h-.36c-28.07-12.64-61.77-12.64-90.2-.35-9.47-2.11-20-2.46-29.83-2.46-20.36,0-42.47,2.11-54.75,14.39l-7.38-13c-1.75-3.15-6-4.21-9.47-2.8a5.9,5.9,0,0,0-3.16,8.42l11.93,21.06a41.57,41.57,0,0,0-1.4,9.83v1.4c0,31.59,28.78,56.86,64.23,56.86s64.23-25.62,64.23-56.86c0-15.09-6.32-24.22-15.8-30.18a97.49,97.49,0,0,1,54.06.35c-9.13,6-15.1,15.09-15.1,29.83,0,31.59,28.78,56.86,64.23,56.86s64.23-25.62,64.23-56.86v-1.4a41.57,41.57,0,0,0-1.4-9.83l11.93-21.06A5.56,5.56,0,0,0,408.89,252.43Z" fill="#232f3e"/><path d="M136.53,123.62c1.06.35,1.76.35,2.81.7a504.77,504.77,0,0,0,244.28,0c.71-.35,1.76-.35,2.81-.7.7-.35,1.76-.35,2.46-.71a4.44,4.44,0,0,1,2.1-.35V58a62.93,62.93,0,0,0-79-55.8L284.3,9.55a87.26,87.26,0,0,1-44.58,0L212,2.18a62.8,62.8,0,0,0-54.4,10.88A61.84,61.84,0,0,0,133,62.9V98h0a4.5,4.5,0,0,0-.35,2.11v22.81c.7,0,1.41.36,2.46.36A3.49,3.49,0,0,1,136.53,123.62Z" fill="#232f3e"/><path d="M523,176.61a7.47,7.47,0,0,1-5.26,7,963.19,963.19,0,0,1-256.22,34.75A959.35,959.35,0,0,1,5.26,183.63a6.88,6.88,0,0,1-5.26-7A6.76,6.76,0,0,1,5.26,170l115.83-28.78,5.26-1.41a6,6,0,0,1,3.51,0,28.59,28.59,0,0,1,5.27,1.41,523.38,523.38,0,0,0,253.06,0,30.16,30.16,0,0,0,5.26-1.41,6,6,0,0,1,3.51,0l5.27,1.41L518.05,169.6A7.62,7.62,0,0,1,523,176.61Z" fill="#232f3e"/></svg>