<svg xmlns="http://www.w3.org/2000/svg" viewBox="0 0 346.96 350"><title>icon</title><path d="M268.18,236.35C266.31,239.4,250,266.49,250,279.52c0,12.14,10.25,22,22.85,22s22.85-9.88,22.85-22c0-13-16.36-40.12-18.22-43.17a5.65,5.65,0,0,0-7.86-1.44A5.8,5.8,0,0,0,268.18,236.35Z" fill="#c0daf3"/><ellipse cx="32.54" cy="317.43" rx="5.49" ry="5.44" fill="#c0daf3"/><ellipse cx="66.89" cy="283.88" rx="5.49" ry="5.44" fill="#c0daf3"/><path d="M334.39,126.81q2.26-4.19,4.13-8.48c.05-.12.09-.25.15-.37A102.85,102.85,0,0,0,315.72,3.7L311.94,0,89.43,215.4h-.05l-4,3.92L81.62,223h0L9.77,294.11a32.6,32.6,0,0,0-.45,46.09l.13.13.07.07a32.7,32.7,0,0,0,45.83.45l73.3-71.05,33.07,32.93,68.66-67.31h0L282.87,184v1a22.85,22.85,0,1,0,45.7,0V136.36a94.25,94.25,0,0,0,5.37-8.69C334.1,127.39,334.23,127.09,334.39,126.81ZM47.79,333.05a21.81,21.81,0,0,1-30.56-.3l-.08-.09a21.71,21.71,0,0,1,.14-30.7l.11-.11,72-71.18L121,262.13Zm49.33-110L311.79,15.27a92.62,92.62,0,0,1,21,38c-9,.59-24,3.3-36,14.18-10.86,9.89-16.69,24.2-17.32,42.54-.68,19.77-14.38,27.18-30.25,35.75-4.23,2.28-8.6,4.65-12.72,7.28-14.09,9-23,21.65-25.68,36.51-2.51,13.79.7,28.57,8.76,41.26l-57.79,56.67Z" fill="#c0daf3"/></svg>