<svg xmlns="http://www.w3.org/2000/svg" viewBox="0 0 366.11 350"><title>subgenre_icon</title><path d="M125,315.18a45.62,45.62,0,0,1-13.07,15.6q-32.29,24.84-96.69,17.58,34.13-23.79,45.15-55.64a114.39,114.39,0,0,1-49.75-63.1A227.15,227.15,0,0,1,0,160.17,158.45,158.45,0,0,1,134.38,3.56h0A320.58,320.58,0,0,1,183.06,0q60.1,0,107.05,19.74a114.4,114.4,0,0,1,64.3,69.59,220.34,220.34,0,0,1,0,141.69,114.4,114.4,0,0,1-64.3,69.59q-47,19.74-107,19.74A311.48,311.48,0,0,1,125,315.18Zm12.28-162.63V109.19a15.26,15.26,0,0,1,12.5-15l91.53-16.82a15.26,15.26,0,0,1,17.76,12.25,15,15,0,0,1,.25,2.76V213.2c.05.4.1.79.12,1.2a15.29,15.29,0,0,1,0,2.14l-.53,6.64a25.75,25.75,0,0,1-26.14,23.72l-14.28-.25a20.52,20.52,0,0,1-20.15-20.86c0-.42,0-.85.07-1.27a25.13,25.13,0,0,1,23.5-23.09l21.39-1.32c.26,0,.52,0,.79,0V132.92l-91.53,16.82v78.73c0,.39.09.78.12,1.18a17.12,17.12,0,0,1,0,2.15l-.53,6.63A25.78,25.78,0,0,1,126,262.16l-14.13-.25A20.51,20.51,0,0,1,91.7,241q0-.63.06-1.26a25.13,25.13,0,0,1,23.51-23.1l21.23-1.31c.26,0,.53,0,.79,0Z" fill="#232f3e" fill-rule="evenodd"/></svg>