<svg xmlns="http://www.w3.org/2000/svg" viewBox="0 0 362.5 350"><title>subgenre_icon</title><path d="M302.5,177a13.66,13.66,0,0,0-2.69-15.24L262.16,125l20.62-48.4a13.77,13.77,0,0,0-3.14-15.23c-4-4-10.31-4.49-15.68-1.8L218.25,84.25l-39-34.51c-4.48-4-10.31-4.48-15.69-1.79a13.57,13.57,0,0,0-6.72,13.89l9.41,52-44.81,26.89a13.94,13.94,0,0,0-6.28,14.34,14.46,14.46,0,0,0,11.21,10.75l34.5,4.48L4,327.14A13,13,0,0,0,4,346a13.67,13.67,0,0,0,9.41,4,12.9,12.9,0,0,0,9.42-4L182,188.22,190,224.07a12.85,12.85,0,0,0,11.65,10.31H203a14,14,0,0,0,12.1-7.62l22.41-47.5,51.53,5.38A13.57,13.57,0,0,0,302.5,177Zm-71.71-25.1a13.55,13.55,0,0,0-13.44,7.62l-9.86,20.61-4.93-22.4c-1.34-5.38-5.83-9.86-11.2-10.31L168.5,144.3l19.72-12.1c4.93-2.69,7.17-8.51,6.27-13.89l-4-22.86,17,14.79a13.58,13.58,0,0,0,15.24,1.8l19.72-10.76-9,21.06a13.08,13.08,0,0,0,3.14,14.79l16.58,16.14Z" fill="#232f3e"/><path d="M246.48,200.32a13.19,13.19,0,0,0-3.59,18.82l20.17,30.48a12.89,12.89,0,0,0,11.2,5.82c2.69,0,4.93-.89,7.62-2.24a13.19,13.19,0,0,0,3.59-18.82L265.3,203.91A14,14,0,0,0,246.48,200.32Z" fill="#232f3e"/><path d="M199.42,13.44V49.3a13.45,13.45,0,0,0,26.89,0V13.44a13.45,13.45,0,0,0-26.89,0Z" fill="#232f3e"/><path d="M352.24,116.07a13.64,13.64,0,1,0-6.72-26.44L298,102.18a13.61,13.61,0,0,0-9.86,16.58,13.35,13.35,0,0,0,13,10.31,7.61,7.61,0,0,0,3.14-.45Z" fill="#232f3e"/><path d="M92.32,79.32a13.63,13.63,0,1,0-4.48,26.89l35.4,5.83h2.24a13.83,13.83,0,0,0,13.44-11.21,13.58,13.58,0,0,0-11.2-15.68Z" fill="#232f3e"/></svg>