<svg xmlns="http://www.w3.org/2000/svg" viewBox="0 0 357.58 350"><title>subgenre_icon</title><path d="M356.61,58.84,298.75,1A3.35,3.35,0,0,0,294,1L279.78,15.21a3.35,3.35,0,0,0,0,4.74l14.7,14.71L264.13,65,233.31,34.18a3.35,3.35,0,0,0-4.74,0L212.44,50.31a3.37,3.37,0,0,0,0,4.74L224.29,66.9l-24.5,24.51,27.5,27.5-8.53,8.53-27.5-27.5-15.18,15.17,27.51,27.51-8.54,8.53-27.5-27.5-15.17,15.17,27.5,27.5-8.54,8.54-27.5-27.5-15.18,15.17L156.17,190l-8.54,8.54-27.5-27.51L105,186.23l27.5,27.51-8.54,8.53-27.5-27.5-31,31a3,3,0,0,0-.73,2.27l6.56,39.32L52.79,285.81a8.92,8.92,0,0,0-.57,11.95L0,350l17.07-1.9,42.74-42.74a8.92,8.92,0,0,0,12-.57l18.48-18.48,39.32,6.56a3,3,0,0,0,2.27-.73L290.69,133.29l11.85,11.85a3.36,3.36,0,0,0,4.74,0L323.41,129a3.35,3.35,0,0,0,0-4.74L292.58,93.46l30.35-30.35,14.7,14.69a3.33,3.33,0,0,0,4.74,0L356.6,63.58A3.36,3.36,0,0,0,356.61,58.84Z" fill="#232f3e"/></svg>