<svg xmlns="http://www.w3.org/2000/svg" viewBox="0 0 393.55 350"><title>subgenre_icon</title><path d="M390.13,4.29a13.11,13.11,0,0,0-18.53-.87C349.38,23.66,271.06,89.71,196.32,89.71h0C168.84,89.71,97,81.36,22.57,4.08a13.12,13.12,0,1,0-18.9,18.2A360.65,360.65,0,0,0,36.75,52.53l-29,20A9.54,9.54,0,0,0,18.53,88.25L51.09,65.83a9.33,9.33,0,0,0,1.47-1.25,322,322,0,0,0,32.6,20.63l-23.31,31.7a9.54,9.54,0,0,0,2,13.34,9.55,9.55,0,0,0,13.34-2L102.39,94A251.42,251.42,0,0,0,138,107.42l-19.6,36.24a9.54,9.54,0,1,0,16.78,9.08l22-40.69a203.37,203.37,0,0,0,29.57,3.65v42.84a9.55,9.55,0,1,0,19.09,0V115.63a183,183,0,0,0,29.21-4.22l22.36,41.33a9.5,9.5,0,0,0,8.4,5,9.32,9.32,0,0,0,4.52-1.15,9.54,9.54,0,0,0,3.86-12.93L254,106.2a275.66,275.66,0,0,0,34.92-14.08l26.55,36.1a9.54,9.54,0,1,0,15.37-11.3L306,83.24c11.69-6.48,22.68-13.42,32.76-20.37a9.37,9.37,0,0,0,2.76,3l32.57,22.42a9.53,9.53,0,1,0,10.81-15.71l-30.44-21C369,40.63,381,30.37,389.27,22.82A13.11,13.11,0,0,0,390.13,4.29Z" fill="#232f3e"/><path d="M194.07,183.28l-7.57,9.85c-4.74,6.17-46.3,61.29-46.3,96.07,0,35.8,22.15,60.8,53.87,60.8s53.87-25,53.87-60.8c0-34.78-41.56-89.9-46.31-96.07Zm0,147.64c-21.14,0-34.79-16.38-34.79-41.71,0-19.84,20.89-54.1,34.79-74,13.9,20,34.8,54.21,34.8,74C228.87,314.54,215.2,330.92,194.07,330.92Z" fill="#232f3e"/></svg>