<svg xmlns="http://www.w3.org/2000/svg" viewBox="0 0 313.35 445.01"><title>navbaricons</title><path d="M312.48,233.28c-6.08-17.3-27.13-74.37-39.29-88.87-18.7-22-42.56-32.27-77.17-32.27h-31.8c-28.53,0-43.5-17.3-47.71-28.06C106.22,60.23,97.33,13.46,97.33,13,95.46,4.1,87-1.51,78.63.36,69.74,2.23,64.13,10.65,66,19.07c-.47,2.34,8.88,50.51,20.58,77.64C95,116.35,116,136.46,146,142.54c11.22,24.79,11.69,77.64,10.75,104.3-14,14-27.12,35.08-39.75,61.74-7,15-17.31,82.32-21.52,111.32-1.4,10.29,4.68,21,14.5,23.85a23.35,23.35,0,0,0,5.62.94,20.68,20.68,0,0,0,20.57-17.78c6.08-42.09,15-92.6,18.25-100.55C168,296.89,180.12,281.45,188.54,274a189,189,0,0,0-5.61,73.9c5.61,44,26.19,84.19,26.66,85.59A20.91,20.91,0,1,0,247,414.75c0-.46-17.77-35.54-22.92-72.49-3.27-24.32,1.41-51,8-68.29A193.77,193.77,0,0,0,244.2,211.3c.46-19.18-.94-39.76-5.15-55.19a44.37,44.37,0,0,1,9.36,9.35c5.61,7,22,46.31,33.67,79a16,16,0,0,0,15,10.75,23.33,23.33,0,0,0,5.61-.93C311.08,250.59,315.29,241.7,312.48,233.28Z" fill="#232f3e"/><circle cx="186.67" cy="51.34" r="44.43" fill="#232f3e"/><path d="M55.71,163.59a8.12,8.12,0,0,0-8.89,7.95v98.69a37.67,37.67,0,0,0-19.17-.94C9.87,273-2.76,288,.52,303c2.8,15,20.11,24.79,37.88,21C54.3,320.74,66,308.58,66,295h0V195.4c26.66,0,23.85,27.59,18.24,44.43a4.51,4.51,0,0,0,2.34,5.61l3.74,1.87a4.45,4.45,0,0,0,5.61-1.4C123.06,213.17,103,169.2,55.71,163.59Z" fill="#232f3e"/></svg>