<svg xmlns="http://www.w3.org/2000/svg" viewBox="0 0 365.49 350"><title>subgenre_icon</title><path d="M271.61,158.59c0,12.76-11.84,0-26.43,0s-26.43,12.76-26.43,0,11.85-22.78,26.43-22.78S271.61,145.83,271.61,158.59Z" fill="#232f3e"/><path d="M173.18,158.59c0,12.76-11.85,0-26.44,0s-26.43,12.76-26.43,0,11.85-22.78,26.43-22.78S173.18,145.83,173.18,158.59Z" fill="#232f3e"/><path d="M236.07,209.64v1.82c.91,25.52-28.26,42.84-51,36.46a48.63,48.63,0,0,1-21-14.59c-3.64-5.47-9.11-13.67-8.2-20.05,1.82-12.76,13.67-2.73,17.32.91,10,10.94,25.52,16.41,38.28,7.29,5.47-3.64,9.11-9.11,14.58-13.67,2.74-1.82,7.29-2.73,9.12,0A3.22,3.22,0,0,0,236.07,209.64Z" fill="#232f3e"/><path d="M36.46,196.87a10.53,10.53,0,0,1-10.94-10.93V174.09C25.52,80.21,102.08,2.73,196,2.73a193.37,193.37,0,0,1,40.11,4.56c6.38,1.82,10,7.29,8.2,13.67S237,31,230.6,29.17c-11.85-2.74-22.79-4.56-34.64-4.56-82,0-147.65,66.54-147.65,147.66V183.2c0,8.21-4.56,13.67-11.85,13.67Z" fill="#232f3e"/><path d="M196,345.44a168.27,168.27,0,0,1-119.4-49.22A11.6,11.6,0,1,1,93,279.82c28.25,27.34,64.71,42.84,103.91,42.84a143.86,143.86,0,0,0,70.18-18.23c5.47-2.74,12.76-.91,15.49,4.55s.91,12.76-4.56,15.5A174.22,174.22,0,0,1,196,345.44Z" fill="#232f3e"/><path d="M334.51,263.41c-1.83,0-3.65-.91-5.47-1.82-5.47-2.74-7.3-10-4.56-15.5,12.76-21.87,19.14-47.39,19.14-72.91a145.29,145.29,0,0,0-26.43-83.86c-3.65-5.47-1.83-11.85,2.73-15.49,5.47-3.65,11.85-2.74,15.5,2.73,20.05,28.26,30.07,62,30.07,96.62A169.39,169.39,0,0,1,343.62,257C342.71,261.59,339.06,263.41,334.51,263.41Z" fill="#232f3e"/><path d="M294.4,350l-14.58-12.76c-8.21-7.29-13.67-12.76-17.32-15.5-3.65-3.64-8.2-8.2-12.76-13.67q-8.2-9.57-10.94-16.4c-1.82-5.47-3.64-10.94-2.73-16.41a37.35,37.35,0,0,1,37.37-37.37c8.2,0,14.58,1.82,21,6.38,6.38-3.65,13.67-6.38,21-6.38h0a37.33,37.33,0,0,1,37.37,37.37c0,8.2-2.73,15.5-7.29,23.7a157.2,157.2,0,0,1-13.67,18.23c-4.56,4.55-11.85,11.85-22.79,21Zm-21-90.23c-4.56,0-7.29.91-10,3.64a14.67,14.67,0,0,0-4.56,10,26.65,26.65,0,0,0,1.83,8.2,35.83,35.83,0,0,0,7.29,10,151.91,151.91,0,0,0,10.94,11.85c3.64,3.64,9.11,8.2,16.4,14.58,9.12-8.2,16.41-14.58,21-19.14a89.72,89.72,0,0,0,10.93-13.67c2.74-4.56,3.65-8.21,3.65-11.85,0-4.56-.91-7.29-3.65-10a14.65,14.65,0,0,0-10-4.56c-5.47,0-9.12,1.83-12.76,5.47l-9.12,10-9.11-10c-3.65-2.73-7.29-4.55-12.76-4.55Z" fill="#232f3e"/><path d="M67.45,314.45,52,299.87a267.15,267.15,0,0,0-21-19.14c-4.56-4.56-10-10-14.58-16.41a72.63,72.63,0,0,1-12.76-20A47.51,47.51,0,0,1,0,225.13c0-11.85,4.56-21.87,12.76-30.08a41.9,41.9,0,0,1,31-12.76c10,0,18.23,2.74,25.52,8.2a42.7,42.7,0,0,1,25.52-8.2h0c11.85,0,21.88,4.56,30.08,12.76s11.85,18.23,11.85,30.08c0,9.11-2.74,18.23-9.12,27.34a225.28,225.28,0,0,1-16.4,21.88c-5.47,5.47-14.59,13.67-27.35,25.52ZM42.84,205.08c-5.47,0-10,1.82-14.58,5.47-3.65,3.64-5.47,8.2-5.47,14.58a45.84,45.84,0,0,0,1.82,10.94,70.44,70.44,0,0,0,9.11,13.67c4.56,5.47,9.12,10.94,13.68,14.58s10.93,10,20.05,19.14l.91.91.91-.91c11.85-10.93,21-19.14,26.43-24.61,4.56-4.55,9.12-10.93,13.68-17.31,3.64-5.47,5.46-10.94,5.46-15.5,0-5.47-1.82-10-5.46-14.58-3.65-3.65-8.21-5.47-14.59-5.47h0a21.17,21.17,0,0,0-17.32,8.2l-9.11,10-9.12-10c-4.55-6.38-10-9.11-16.4-9.11Z" fill="#232f3e"/><path d="M286.2,132.16l-15.5-14.58a265.11,265.11,0,0,0-21-19.14c-4.56-4.56-9.11-10-14.58-16.41A72.63,72.63,0,0,1,222.4,62a47.51,47.51,0,0,1-3.65-19.14c0-11.85,4.56-21.88,12.76-30.08S249.74,0,261.59,0h0a42.63,42.63,0,0,1,25.52,8.2A42.63,42.63,0,0,1,312.63,0h0c11.85,0,21.88,4.56,30.08,12.76S354.56,31,354.56,42.84c0,9.11-2.74,18.23-9.12,27.34A226.92,226.92,0,0,1,329,92.06c-5.47,5.47-14.59,14.58-27.35,25.52ZM261.59,22.79c-5.47,0-10,1.82-14.58,5.47-3.65,3.64-5.47,8.2-5.47,14.58a45.92,45.92,0,0,0,1.82,10.94,70.44,70.44,0,0,0,9.11,13.67C257,72.92,261.59,78.39,266.15,82s10.93,10,20.05,19.14l.91.91.91-.91C299.87,90.23,309,82,314.45,76.56,319,72,323.57,65.62,328.13,59.24c3.64-5.46,5.46-10.93,5.46-15.49,0-5.47-1.82-10-5.46-14.58-3.65-3.65-8.21-5.47-14.59-5.47h0a21.17,21.17,0,0,0-17.32,8.2l-9.11,10L278,31.9c-4.55-6.38-10-9.11-16.4-9.11Z" fill="#232f3e"/></svg>