<svg xmlns="http://www.w3.org/2000/svg" viewBox="0 0 562.86 350"><title>subgenre_icon</title><path d="M186.33,270.33A75.82,75.82,0,0,1,209,235.7H163.79A76.07,76.07,0,0,1,186.33,270.33Z" fill="#232f3e"/><path d="M186.33,315.05a76,76,0,0,1-22.54,34.62H209A75.88,75.88,0,0,1,186.33,315.05Z" fill="#232f3e"/><path d="M38.31,292.69a75.49,75.49,0,0,1,26-57H0v34.2c0,11,7.42,25,16.49,31.16L43.2,319.23A75.2,75.2,0,0,1,38.31,292.69Z" fill="#232f3e"/><polygon points="143.39 135.86 367.75 135.86 343.5 43.87 143.39 43.87 143.39 135.86" fill="#232f3e"/><polygon points="0 216.94 59.04 154.62 458.36 154.62 517.4 216.94 0 216.94" fill="#232f3e"/><rect x="497.95" y="64.24" width="64.91" height="47.27" fill="#232f3e"/><path d="M403.56,280.12a13.33,13.33,0,1,0,13.33,13.33A13.35,13.35,0,0,0,403.56,280.12Z" fill="#232f3e"/><path d="M403.35,235.7a57,57,0,1,0,57,57A57,57,0,0,0,403.35,235.7Zm.21,89.84a32.09,32.09,0,1,1,32.09-32.09A32.13,32.13,0,0,1,403.56,325.54Z" fill="#232f3e"/><path d="M258.7,280.12A13.33,13.33,0,1,0,272,293.45,13.35,13.35,0,0,0,258.7,280.12Z" fill="#232f3e"/><path d="M258.7,235.7a57,57,0,1,0,57,57A57,57,0,0,0,258.7,235.7Zm0,89.84a32.09,32.09,0,1,1,32.09-32.09A32.13,32.13,0,0,1,258.7,325.54Z" fill="#232f3e"/><path d="M114.05,235.7a57,57,0,1,0,57,57A57,57,0,0,0,114.05,235.7Zm0,89.84a32.09,32.09,0,1,1,32.09-32.09A32.13,32.13,0,0,1,114.05,325.54Z" fill="#232f3e"/><path d="M114.05,280.12a13.33,13.33,0,1,0,13.33,13.33A13.35,13.35,0,0,0,114.05,280.12Z" fill="#232f3e"/><rect x="206.2" width="74.62" height="25.1" fill="#232f3e"/><path d="M330.91,270.58a75.9,75.9,0,0,1,22.52-34.7l-45.16.14A76.16,76.16,0,0,1,330.91,270.58Z" fill="#232f3e"/><path d="M452.92,235.58A75.15,75.15,0,0,1,474.29,319l26.64-18.25c9.05-6.2,16.43-20.25,16.4-31.22l-.11-34.2Z" fill="#232f3e"/><path d="M331,315.31A75.89,75.89,0,0,1,308.62,350l45.16-.14A75.92,75.92,0,0,1,331,315.31Z" fill="#232f3e"/><polygon points="479.19 74.07 370.86 74.07 378.14 101.67 479.19 101.67 479.19 74.07" fill="#232f3e"/></svg>