<svg xmlns="http://www.w3.org/2000/svg" viewBox="0 0 331.42 316.56"><title>icon</title><path d="M218,253.49a5.34,5.34,0,0,0-4.28,6.22h0l.11.62a5.34,5.34,0,0,0,5.26,4.44,5.5,5.5,0,0,0,.91-.08,5.35,5.35,0,0,0,4.37-6.17l-.16-.82a5.3,5.3,0,0,0-6.18-4.25h0Z" fill="#c0daf3"/><path d="M219.3,276.16a5.37,5.37,0,0,0-6.66,3.56l-.21.67a5.34,5.34,0,0,0,3.52,6.68h0a5.71,5.71,0,0,0,1.59.23,5.35,5.35,0,0,0,5.1-3.76l.22-.72a5.34,5.34,0,0,0-3.55-6.66Z" fill="#c0daf3"/><path d="M145.92,296.39a5.34,5.34,0,0,0-6.68,8.34l.27.21.63.46a5.34,5.34,0,0,0,6.53-8.46.8.8,0,0,0-.19-.13Z" fill="#c0daf3"/><path d="M130.56,281a5.35,5.35,0,0,0-7.41,7.71l.23.2.57.52a5.35,5.35,0,1,0,7.13-8Z" fill="#c0daf3"/><path d="M164.91,305.71l-.55-.17a5.35,5.35,0,0,0-3.26,10.19l.15,0,.38.1.9.21a5,5,0,0,0,1.21.15,5.34,5.34,0,0,0,1.2-10.55Z" fill="#c0daf3"/><path d="M208.85,232.64a5.34,5.34,0,0,0-3.35,6.77l.28.81a4.92,4.92,0,0,0,4.73,3.28,6.07,6.07,0,0,0,2-.37,5.6,5.6,0,0,0,3.09-7.12A5.35,5.35,0,0,0,208.85,232.64Z" fill="#c0daf3"/><path d="M185,305.86l-.55.11a5.35,5.35,0,0,0,1.06,10.59,5.55,5.55,0,0,0,1.07-.11l.9-.19a5.34,5.34,0,0,0-2.45-10.4Z" fill="#c0daf3"/><path d="M202.4,296.74l-.43.4a5.35,5.35,0,1,0,6.94,8.14l.32-.29.65-.61a5.35,5.35,0,0,0-7.24-7.88l-.26.24Z" fill="#c0daf3"/><path d="M202,215.26v.79a5.08,5.08,0,0,0,5.16,5h.19a5.65,5.65,0,0,0,5.35-5.78,5.32,5.32,0,0,0-5.24-5.42h-.1a5.36,5.36,0,0,0-5.36,5.36Z" fill="#c0daf3"/><path d="M211.29,187.79a5.37,5.37,0,0,0-6.41,4.07l-.08.34a5.3,5.3,0,0,0,4.28,6.15,4.88,4.88,0,0,0,.93.09,5.56,5.56,0,0,0,5.33-4.36,5.28,5.28,0,0,0-4-6.28Z" fill="#c0daf3"/><path d="M287.64,7l-3.82,1.8-3.5,2.08a7.66,7.66,0,0,0-3.44,8.37L279,28.57a51.8,51.8,0,1,1-10.37-3.74l-.77-3.35A16.81,16.81,0,0,1,275.47,3l.47-.3a75,75,0,0,0-78,119.59l-10.33,28.64a13.75,13.75,0,0,0,8.13,17.67h0l.18.07,46.8,17a13.71,13.71,0,0,0,16.39-5.7,11.6,11.6,0,0,0,1.35-2.62l10.4-28.57A75,75,0,0,0,287.64,7ZM217.47,147.64a5.34,5.34,0,0,1-6.71,3.41h0A5.64,5.64,0,0,1,207,144.2a5,5,0,0,1,6.15-3.62h0l.25.07.64.21a5.33,5.33,0,0,1,3.42,6.73h0Zm32,12a5.33,5.33,0,0,1-6.71,3.43h0a5.64,5.64,0,0,1-3.75-6.84,5,5,0,0,1,6.15-3.62l.26.07.64.21a5.33,5.33,0,0,1,3.45,6.7h0Z" fill="#c0daf3"/><path d="M53.89,96.48l-1.75,3.92L51,104.27a7.61,7.61,0,0,0,2.92,8.55L59,116.38l3.1,2a51.65,51.65,0,0,1,64,58.86,39.84,39.84,0,0,1-1,4.71,51.78,51.78,0,1,1-94.62-39.8c.72-1.21,1.42-2.35,2.21-3.49a51.81,51.81,0,0,1,19-16.28l-3.07-2a16.85,16.85,0,0,1-6.46-18.93l.17-.54A75,75,0,0,0,62.2,242.25l11,28.36a14,14,0,0,0,18,8h0l46.39-18a13.88,13.88,0,0,0,8.69-14.83,13.13,13.13,0,0,0-.78-3.2l-11.05-28.36a68.51,68.51,0,0,0,6.49-9.95,63.43,63.43,0,0,0,5.7-13.57,73.88,73.88,0,0,0-1.57-49.31A75.06,75.06,0,0,0,53.89,96.48ZM90.47,255.71a5.74,5.74,0,0,1-2.24.45A5.4,5.4,0,0,1,83.15,253a5.06,5.06,0,0,1,2.3-6.78h0l.2-.1.62-.26a5.34,5.34,0,1,1,4.2,9.82Zm32-12a5.66,5.66,0,0,1-2.26.44A5.43,5.43,0,0,1,115.1,241a5.07,5.07,0,0,1,2.29-6.79h0l.2-.1.61-.26a5.35,5.35,0,0,1,4.22,9.83Z" fill="#c0daf3"/></svg>