<svg xmlns="http://www.w3.org/2000/svg" viewBox="0 0 362.58 349.64"><title>icon</title><path d="M302.55,176.64a13.65,13.65,0,0,0-2.69-15.24l-37.65-36.76,20.62-48.4A13.76,13.76,0,0,0,279.69,61c-4-4-10.31-4.49-15.68-1.8L218.3,83.89l-39-34.51c-4.48-4-10.31-4.48-15.69-1.79a13.59,13.59,0,0,0-6.72,13.89l9.41,52-44.81,26.89a14,14,0,0,0-6.28,14.34,14.45,14.45,0,0,0,11.21,10.75l34.5,4.48L4.05,326.78a13,13,0,0,0-.48,18.38l.48.48a13.65,13.65,0,0,0,9.41,4,12.84,12.84,0,0,0,9.42-4L182.05,187.86l8,35.85A12.85,12.85,0,0,0,201.7,234h1.35a14,14,0,0,0,12.1-7.62l22.41-47.5,51.53,5.38A13.55,13.55,0,0,0,302.55,176.64Zm-71.71-25.1a13.56,13.56,0,0,0-13.44,7.62l-9.86,20.61-4.93-22.4c-1.34-5.38-5.83-9.86-11.2-10.31l-22.86-3.12,19.72-12.1c4.93-2.69,7.17-8.51,6.27-13.89l-4-22.86,17,14.79a13.56,13.56,0,0,0,15.24,1.8l19.72-10.76-9,21.06a13.07,13.07,0,0,0,3.14,14.79l16.58,16.14Z" fill="#c0daf3"/><path d="M246.53,200a13.2,13.2,0,0,0-4,18.22c.13.21.27.41.41.6l20.17,30.48a12.88,12.88,0,0,0,11.2,5.82c2.69,0,4.93-.89,7.62-2.24a13.18,13.18,0,0,0,4-18.22l-.41-.6-20.17-30.47A14,14,0,0,0,246.53,200Z" fill="#c0daf3"/><path d="M199.47,13.08V48.94a13.45,13.45,0,0,0,26.89,0V13.08a13.45,13.45,0,0,0-26.89,0Z" fill="#c0daf3"/><path d="M352.29,115.71a13.64,13.64,0,1,0-6.72-26.44l-47.52,12.55a13.61,13.61,0,0,0-9.87,16.52v.06a13.35,13.35,0,0,0,13,10.31,7.45,7.45,0,0,0,3.14-.45Z" fill="#c0daf3"/><path d="M92.37,79a13.63,13.63,0,0,0-4.48,26.89h0l35.4,5.83h2.24A13.81,13.81,0,0,0,139,100.47a13.57,13.57,0,0,0-11.11-15.66l-.09,0Z" fill="#c0daf3"/></svg>