<svg xmlns="http://www.w3.org/2000/svg" viewBox="0 0 384.5 316.55"><title>icon</title><path d="M132.37,143.08l-33.58,36-29.15-19a7.33,7.33,0,0,0-8.5.8L45.77,176.26a6.86,6.86,0,0,0,0,9.31l29.94,29.94L33.2,258.81l-9.68-9.71a6.86,6.86,0,0,0-9.31,0L2.07,261.24c-2,2-2.83,5.26-1.21,7.69l6.88,13.76a56.9,56.9,0,0,0,10.93,15,57.09,57.09,0,0,0,15,10.92l14.16,7.29a6.79,6.79,0,0,0,7.69-1.22l12.14-12.14c2.83-2.83,2.83-6.87,0-9.3l-9.74-9.31L100.78,241,130.73,271c2.83,2.84,6.88,2.84,9.31,0l15.37-15.38a6.26,6.26,0,0,0,.81-8.49l-19-29.13,37.63-35.21Z" fill="#c0daf3"/><path d="M299.09,67.82a10.7,10.7,0,0,0,2.42-4l15-52.6c1.62-6.07-4.86-12.55-10.93-10.93l-52.6,15a8.41,8.41,0,0,0-4.05,2.43L208,61.75l45.34,48.58Z" fill="#c0daf3"/><path d="M382.44,261.24,370.3,249.1a6.84,6.84,0,0,0-9.3,0l-9.31,9.31-43.27-42.9,29.95-29.94a6.88,6.88,0,0,0,0-9.31L323,160.88a7.23,7.23,0,0,0-8.5-.8l-29.13,19-149.75-161a8.36,8.36,0,0,0-4.05-2.42L79.37.65C73.26-1,66.82,5.5,68.44,11.58L83,63.77a8.31,8.31,0,0,0,2.44,4L246.48,218l-19,29.14c-1.62,2.42-1.21,6.07.81,8.49L243.68,271a6.86,6.86,0,0,0,9.31,0L282.92,241,326.6,283.9l-9.31,9.31a6.86,6.86,0,0,0,0,9.3l12.14,12.14a6.83,6.83,0,0,0,7.7,1.22l13.8-7.29a60,60,0,0,0,25.89-25.89l7.29-13.76A7.72,7.72,0,0,0,382.44,261.24Z" fill="#c0daf3"/></svg>