<svg xmlns="http://www.w3.org/2000/svg" viewBox="0 0 393.66 350.05"><title>icon</title><path d="M390.23,4.34a13.11,13.11,0,0,0-18.52-.88h0C349.48,23.71,271.16,89.76,196.42,89.76h0c-27.48,0-99.32-8.35-173.75-85.63a13.12,13.12,0,1,0-19.1,18l.2.22A361.5,361.5,0,0,0,36.85,52.58l-29,20A9.54,9.54,0,0,0,18.63,88.3L51.19,65.88a9.81,9.81,0,0,0,1.47-1.25,323.07,323.07,0,0,0,32.6,20.63L62,117A9.54,9.54,0,0,0,77.29,128.3l25.2-34.25a252.92,252.92,0,0,0,35.61,13.42l-19.6,36.24a9.54,9.54,0,0,0,16.7,9.23,1.09,1.09,0,0,0,.08-.15l22-40.69a205.75,205.75,0,0,0,29.57,3.65v42.84a9.55,9.55,0,1,0,19.09.61c0-.2,0-.41,0-.61V115.68a183.11,183.11,0,0,0,29.21-4.22l22.36,41.33a9.5,9.5,0,0,0,8.4,5,9.37,9.37,0,0,0,4.52-1.15,9.53,9.53,0,0,0,3.86-12.93h0L254.1,106.25A276.92,276.92,0,0,0,289,92.17l26.55,36.1a9.54,9.54,0,0,0,15.58-11l-.21-.28L306.1,83.29c11.69-6.48,22.68-13.42,32.76-20.37a9.43,9.43,0,0,0,2.76,3l32.57,22.42A9.53,9.53,0,0,0,385,72.63l-30.44-21c14.54-11,26.54-21.21,34.81-28.76a13.1,13.1,0,0,0,.87-18.52Z" fill="#c0daf3"/><path d="M194.17,183.33l-7.57,9.85c-4.74,6.17-46.3,61.29-46.3,96.07,0,35.8,22.15,60.8,53.87,60.8s53.87-25,53.87-60.8c0-34.78-41.56-89.9-46.31-96.07Zm0,147.64c-21.14,0-34.79-16.38-34.79-41.71,0-19.84,20.89-54.1,34.79-74,13.9,20,34.8,54.21,34.8,74,0,25.33-13.67,41.71-34.8,41.71Z" fill="#c0daf3"/></svg>