<svg xmlns="http://www.w3.org/2000/svg" viewBox="0 0 357.58 349.99"><title>icon</title><path d="M356.61,58.83,298.75,1A3.36,3.36,0,0,0,294,1V1L279.78,15.2a3.35,3.35,0,0,0,0,4.74h0l14.7,14.71L264.13,65,233.31,34.17a3.35,3.35,0,0,0-4.74,0h0L212.44,50.3a3.37,3.37,0,0,0,0,4.74l11.85,11.85L199.79,91.4l27.5,27.5-8.53,8.53-27.5-27.5L176.08,115.1l27.51,27.51-8.54,8.53-27.5-27.5-15.17,15.17,27.5,27.5-8.54,8.54-27.5-27.5-15.18,15.17L156.17,190l-8.54,8.54L120.13,171,105,186.22l27.5,27.51L124,222.26l-27.5-27.5-31,31a3,3,0,0,0-.73,2.27l6.56,39.32L52.79,285.8a8.91,8.91,0,0,0-.57,11.95L0,350l17.07-1.9,42.74-42.74a8.92,8.92,0,0,0,12-.57L90.29,286.3l39.32,6.56a3,3,0,0,0,2.27-.73L290.69,133.28l11.85,11.85a3.37,3.37,0,0,0,4.74,0L323.41,129a3.35,3.35,0,0,0,0-4.74h0l-30.83-30.8L322.93,63.1l14.7,14.69a3.33,3.33,0,0,0,4.71,0l0,0L356.6,63.57A3.36,3.36,0,0,0,356.61,58.83Z" fill="#c0daf3"/></svg>