<svg xmlns="http://www.w3.org/2000/svg" viewBox="0 0 294.98 350"><title>subgenre_icon</title><path d="M147.54,0A147.57,147.57,0,0,0,0,147.54a140.81,140.81,0,0,0,1.14,18.27,134.46,134.46,0,0,0,3.34,17.66,96.45,96.45,0,0,0,17.93,36.65c8.87,11.07,15.81,22.32,24.69,33.3l10,12.39,11.07,13.44c4,4.84,7.91,9.58,12,14.33l12.65,15c.35.44.79.88,1.14,1.41l12.75,16.52s40.86,52.81,81.63,0L201.05,310Q231,275,259.48,238.92c3-3.78,5.45-7.47,8.44-11.33,3.95-5.1,8.26-10.37,11.6-16.08a99.91,99.91,0,0,0,8.87-20.39A147.52,147.52,0,0,0,147.54,0ZM132.25,216.6c-13.18,16.08-46.58,10.46-74.61-12.48s-40.15-54.56-27.06-70.64S77.15,123,105.18,146,145.43,200.52,132.25,216.6ZM237.43,204c-28.12,22.93-61.51,28.55-74.61,12.47s-1-47.71,27.07-70.64,61.51-28.56,74.6-12.48S265.55,181.1,237.43,204Z" fill="#232f3e"/></svg>