<svg xmlns="http://www.w3.org/2000/svg" viewBox="0 0 373.82 152.91"><title>icon</title><path d="M0,1.63H22.4V123.8H59.25v20.36H0Z" fill="#c0daf3"/><path d="M102.62,64.75H134V110c0,22.81-11.4,35.84-33.39,35.84s-33.39-13-33.39-35.84V35.84C67.19,13,78.59,0,100.58,0S134,13,134,35.84V49.68H112.8V34.41c0-10.18-4.48-14-11.61-14s-11.6,3.87-11.6,14v77c0,10.18,4.47,13.84,11.6,13.84s11.61-3.66,11.61-13.84V85.11H102.62Z" fill="#c0daf3"/><path d="M215.42,34.41V39.5c0,14.66-4.48,24-14.46,28.71,12,4.68,16.7,15.48,16.7,30.54v11.61c0,22-11.61,33.8-34,33.8H148.43V1.63h33.8C205.44,1.63,215.42,12.42,215.42,34.41ZM170.82,22V59.66h8.76C187.93,59.66,193,56,193,44.59V36.65C193,26.47,189.56,22,181.62,22Zm0,58V123.8h12.83c7.54,0,11.61-3.46,11.61-14V97.33C195.26,84.09,191,80,180.8,80Z" fill="#c0daf3"/><path d="M224.57,1.63H293.8V22H270.39V144.16H248V22H224.57Z" fill="#c0daf3"/><path d="M301.74,35.84c0-22.81,12-35.84,34-35.84s34,13,34,35.84V110c0,7.94-1.42,14.66-4.27,20,1,2.64,2.65,3.05,6.31,3.05h2v19.95h-3.06c-10,0-16.29-3.66-19.34-9.77a45.94,45.94,0,0,1-15.68,2.65c-22,0-34-13-34-35.84Zm22.4,75.54c0,10.18,4.47,14.05,11.6,14.05s11.61-3.87,11.61-14.05v-77c0-10.18-4.48-14-11.61-14s-11.6,3.87-11.6,14Z" fill="#c0daf3"/></svg>