<svg xmlns="http://www.w3.org/2000/svg" viewBox="0 0 473.04 316.51"><title>icon</title><path d="M369.83,228.26c-3.17-1.28-7-.32-8.57,2.53l-6.66,11.76c-11.12-11.11-31.11-13-49.53-13-9.52,0-19.68.63-28.56,2.54h-.33c-25.39-11.44-55.87-11.44-81.58-.32-8.56-1.91-18.09-2.22-27-2.22-18.41,0-38.41,1.9-49.52,13l-6.67-11.76c-1.59-2.85-5.43-3.81-8.57-2.53a5.34,5.34,0,0,0-3.21,6.83,5,5,0,0,0,.35.79l10.79,19a37.69,37.69,0,0,0-1.26,8.89v1.27c0,28.57,26,51.43,58.09,51.43s58.09-23.17,58.09-51.43c0-13.65-5.71-21.91-14.29-27.3a88.27,88.27,0,0,1,48.9.32c-8.26,5.43-13.66,13.65-13.66,27,0,28.57,26,51.43,58.09,51.43s58.1-23.17,58.1-51.43v-1.27a37.7,37.7,0,0,0-1.27-8.89l10.79-19a5,5,0,0,0-1.29-7A5.4,5.4,0,0,0,369.83,228.26Z" fill="#c0daf3"/><path d="M123.49,111.76c1,.31,1.59.31,2.54.63a456.52,456.52,0,0,0,220.94,0c.65-.32,1.6-.32,2.55-.63.63-.32,1.59-.32,2.22-.65a4.12,4.12,0,0,1,1.9-.31V52.41A56.89,56.89,0,0,0,282.19,1.94L257.14,8.59a78.94,78.94,0,0,1-40.32,0L191.75,1.92a56.8,56.8,0,0,0-49.2,9.84A56,56,0,0,0,120.3,56.84V88.58h0a4.06,4.06,0,0,0-.32,1.91v20.63c.64,0,1.28.33,2.23.33A3,3,0,0,1,123.49,111.76Z" fill="#c0daf3"/><path d="M473,159.68a6.78,6.78,0,0,1-4.76,6.34,871.58,871.58,0,0,1-231.74,31.43A867.81,867.81,0,0,1,4.76,166,6.22,6.22,0,0,1,0,159.7a6.1,6.1,0,0,1,4.75-6l104.77-26,4.75-1.28a5.39,5.39,0,0,1,3.18,0,25.46,25.46,0,0,1,4.77,1.28,473.42,473.42,0,0,0,228.88,0,28.12,28.12,0,0,0,4.76-1.28,5.35,5.35,0,0,1,3.17,0l4.77,1.28,104.75,25.66A6.91,6.91,0,0,1,473,159.68Z" fill="#c0daf3"/></svg>