<svg xmlns="http://www.w3.org/2000/svg" viewBox="0 0 1125 2547"><title>bg_iphone</title><g opacity="0.5"><path d="M231.24,287.38c-24.33,25.32-3,58.53,11.16,100.28s29.7,71.26,69.53,75.43,31.42-33.87,32.54-74S255.58,262.05,231.24,287.38Z" fill="none" stroke="#aad04a" stroke-miterlimit="10"/><path d="M307.21,360.39c-12.41-15.33-30.48-34.17-44-23.2S260,367.82,273,390.87s31.45,25,38.54,16.44S318.18,373.93,307.21,360.39Z" fill="none" stroke="#aad04a" stroke-miterlimit="10"/><path d="M273.82,334S294,337.42,303,355.35s-2.71,41.48-22.23,20.85S253.17,333.75,273.82,334Z" fill="none" stroke="#aad04a" stroke-miterlimit="10"/><path d="M237.14,373.17s22.53,56.57,46.4,65.26,52.72-.66,53.52-37.74S310.58,327,310.58,327s-45.32-39.11-64-38-24.18,11.16-22.71,47.83" fill="none" stroke="#aad04a" stroke-miterlimit="10"/></g><g opacity="0.5"><path d="M194.94,1045.76c-19.54-7.9-33.27,11.38-53.35,28.62s-33,32.46-26.46,55.57,25.88,9.92,48.49,1.57S214.47,1053.65,194.94,1045.76Z" fill="none" stroke="#aad04a" stroke-miterlimit="10"/><path d="M171.26,1104.37c5.76-10.34,12.21-24.61,3.08-29.7s-17.77,5.06-27.69,17.49-6.88,23.09-.53,25.13S166.17,1113.5,171.26,1104.37Z" fill="none" stroke="#aad04a" stroke-miterlimit="10"/><path d="M178.48,1079.88s2.61,12-5.36,21-23.69,7.76-16.57-7.72S174,1068.33,178.48,1079.88Z" fill="none" stroke="#aad04a" stroke-miterlimit="10"/><path d="M148.48,1068.21s-26.45,25.19-26,40.42,12.15,29.21,33,21.36,35.13-31.21,35.13-31.21,11.66-34,6.84-44.14-11.61-11-31.7-2" fill="none" stroke="#aad04a" stroke-miterlimit="10"/></g><g opacity="0.5"><path d="M827.56,1321.87c-22.73,25.4-.93,56.88,14.29,96.89s31.26,68.1,70,70.78,29.32-34,29-72.93S850.29,1296.47,827.56,1321.87Z" fill="none" stroke="#aad04a" stroke-miterlimit="10"/><path d="M903.77,1390.07c-12.57-14.44-30.75-32.09-43.51-21s-2.06,29.83,11.42,51.74,31.37,23.15,38,14.61S914.88,1402.83,903.77,1390.07Z" fill="none" stroke="#aad04a" stroke-miterlimit="10"/><path d="M870.47,1365.64s19.65,2.61,29,19.69-1.2,40.33-20.85,21S850.43,1366.1,870.47,1365.64Z" fill="none" stroke="#aad04a" stroke-miterlimit="10"/><path d="M836.24,1404.89s23.81,54.09,47.26,61.71,51.12-2.47,50.61-38.47-28.22-70.6-28.22-70.6-45.31-36.38-63.42-34.63-23.06,11.66-20.38,47.18" fill="none" stroke="#aad04a" stroke-miterlimit="10"/></g><g opacity="0.5"><path d="M701.07,1911.12c-12.4-7.57-23.92,4-39.52,13.45s-26.14,18.34-24.28,34.81,16.48,9.68,32.8,6.55S713.47,1918.7,701.07,1911.12Z" fill="none" stroke="#aad04a" stroke-miterlimit="10"/><path d="M678.34,1948.32c5.09-6.38,11.09-15.36,5.45-19.85s-12.66,1.43-20.81,8.76-7.29,14.93-3.21,17S673.85,1954,678.34,1948.32Z" fill="none" stroke="#aad04a" stroke-miterlimit="10"/><path d="M686,1932.48s.42,8.44-6,13.69-17,2.6-10.4-7.12S684.29,1924.11,686,1932.48Z" fill="none" stroke="#aad04a" stroke-miterlimit="10"/><path d="M666.93,1921.15s-20.84,14.14-22.23,24.56,5,21.24,20,18.26,27.43-17.27,27.43-17.27,11.76-21.79,9.64-29.25-6.67-8.77-21.35-4.91" fill="none" stroke="#aad04a" stroke-miterlimit="10"/></g><path d="M-92,1977.85s312.38-164,402.22,78.26S684.57,1969,819.33,2178.62,496.73,2547.49,151,2547.49s-368.87-72.14-362.06-319.87S-92,1977.85-92,1977.85Z" fill="#ffecdb"/><g opacity="0.5"><path d="M172.25,2344.46s-13.31,50.88-10.19,53.84,11.25,11.28,11.52-2.12,3.7-68.9,25.14-111.47c32-10.57,79.53-9.36,127.71-6.34s77.88-2.61,129.76,2.14,119.55,7.88,119.55,7.88l-.65-1.81s-126.3-9.53-152.53-11.29-49.83,3.72-124.25-1.06c-65.65-4.22-99.09,6.2-99.09,6.2s31.43-80,89-183.75,111.62-158.16,144.63-247.91c-1.31-3.62,3.3-13.48,3.3-13.48l-8.65,18.49s-28.13,66.49-86.29,149-109.6,189.16-144.58,273.48c-12.14-22.21-63.86-91.52-125.78-155.08C4.5,2053-55.5,1989.83-55.5,1989.83s9.6,18,89,98.79,134.67,145.72,160.84,192.55C173.24,2335.9,172.25,2344.46,172.25,2344.46Z" fill="none" stroke="#00a7a8" stroke-miterlimit="10"/><path d="M215.26,2276.67s25.32,2.09,35.5,18.88,13,18.84,17.9,21.15,4.43,6.59,7.55,9.55,17.1,2,22.11,7.35,11.25,11.28,17.34,11.12,11.09,5.19,17.75,3.8,9.87,4.62,17.1,2,12.91,4.54,18.92,1.34,12.25,2.73,18.83-1.7,8.55,1,14.56-2.21,9.2,2.81,15.79-1.62,7.89-.81,14.48-5.24,15.71-4.67,21.14-6.64l21.72-7.86c9.05-3.28,11.36-8.21,15-9.52l16.28-5.9c3.62-1.32,7.17-5.67,12.6-7.64s9-6.32,16.86-7.13,15.06-6.48,27.23-6.79,22.61,3.07,7.74-6.9-21-12.85-21-12.85c-3.7-1.73-1.89-2.39-7.47-6.51s-3.78-4.77-11.18-8.23-6.24-5.93-14.87-10-2.62-7.24-11.82-10.05-6.25-5.93-13.57-6.35-8.7-7.08-17.25-8.08-8.06-5.27-14.8-6.93-8.05-5.27-22.11-7.34-11.67-4-23.26-4.88-17.18-5-24.42-2.42-12.25-2.73-20.64,2.36-11.6-.92-24.27,3.67-51.88-4.75-28.9-34.58,32.27-24,36.38-29.55,2.89-6.17,10.71-10,4.69-6.82,10.7-10,12.67-4.59,13.75-10.1,10.7-10,11.12-17.33,6.58-4.44,9.39-13.64,7.58-13,7.43-19.07,8.89-9.36,7.5-16,6.27-16.6,4.88-23.26,5.85-9.29,3.8-17.76,1.58-9.78.11-19.49,6.51-7.47,2.5-21.37,4.11-5.59-1.79-21.88,2.08-14.06-.62-24.34-3.94-10.86-1.13-20.07,5-20.22,1.18-25c5.12-14.14,4.73-29.35,3.92-37.25s-6.35,13.56-12.94,18-9,6.32-12.67,4.59-5.85,9.29-9.54,7.56-15,9.52-18.68,7.78-9.13.24-13.25,5.83-6.08.15-15.63,7.71-7.53,1.7-17.52,5.32c-5.43,2-10.36-.34-16.87,7.13s-6.66,1.39-15,9.52-6.58,4.43-16.13,12-7.32-.42-16.13,12-6.09.16-10,14.87-8.71-7.08-14.25,14.38c-6.58,4.43-9.89,14.27-10.46,19.14-.5,4.28-8.4,5.09-7,11.75s-7.16,5.67-7,11.75-12.51,10.68-10.39,22.19-4.54,12.91-3.73,20.8-4,8.63-.68,20.72-7.74,6.9-3.15,19.57-6.43,10.52-.61,23.76,10.49,29-7,34.29-30.4-21.75-31.87-31.46-3.69-1.73-8.86-13.17-9.44-11.93-17.57-20.25-11.67-4-18.65-14.74-6.24-5.93-18.65-14.74-13.48-3.31-21-9.81-12.83-1.5-19.07-7.43-12.25-2.73-18.49-8.66-6.67,1.39-15.95-4.46-12.83-1.49-17.76-3.8-8-2.23-14.13-5.12-7.24,2.62-14.06-2.07,2.54,4.19-17.26-8.08-29.74-19.94-8.89,9.36c.73,4.85-2.23,8,2.2,14.56s-.27,13.4,4.17,20-.35,10.37,3.51,18.18-3.39,10.44,3.51,18.18-2.15,11,4.75,18.75,1.47,9.71,4.66,15.72,1.47,9.7,9,19.25-4.62,9.86,3.51,18.18,5.32,17.52,12.06,19.17,2.78,13.33,12.64,17.94c1.47,9.71,7.79,18.68,13.88,18.52s5.74,10.21,21.19,18.94-1.58,9.79,19.3,16.56,15,16.05,33.29,15.58,22.45-3,26.88,3.57c5,7.35,40.54-25.58,58.54,3.36" fill="none" stroke="#00a7a8" stroke-miterlimit="10"/><path d="M281,2274.37s36.26-58.18,64-69.24" fill="none" stroke="#00a7a8" stroke-miterlimit="10"/><path d="M326.68,2276.24s39.48-74.7,71.06-77.95" fill="none" stroke="#00a7a8" stroke-miterlimit="10"/><path d="M449.45,2209.41C412,2211.86,366.89,2277,366.89,2277s9.33,31.42,87.92,56.19" fill="none" stroke="#00a7a8" stroke-miterlimit="10"/><path d="M491.69,2228.75c-32.47-7.69-80.29,46.05-80.29,46.05s20.59,23.69,79.53,42.27" fill="none" stroke="#00a7a8" stroke-miterlimit="10"/><path d="M532,2255.12c-28.19-7.19-76.09,24.49-76.09,24.49s33.44,21.66,63.95,23.92" fill="none" stroke="#00a7a8" stroke-miterlimit="10"/><path d="M326.68,2276.24s-11.07,42.91,76.14,71.71" fill="none" stroke="#00a7a8" stroke-miterlimit="10"/><path d="M276.85,2277.15s13.34,48.13,73.66,73.37" fill="none" stroke="#00a7a8" stroke-miterlimit="10"/><path d="M156.52,2100.37c16.08,33.08,3.21,124.75,3.21,124.75S119.26,2237.73,29,2209" fill="none" stroke="#00a7a8" stroke-miterlimit="10"/><path d="M124.51,2181.58s21.63-49.32-16.48-126.87" fill="none" stroke="#00a7a8" stroke-miterlimit="10"/><path d="M104.4,2157.13s-5.36-83-50.27-127.65" fill="none" stroke="#00a7a8" stroke-miterlimit="10"/><path d="M62.43,2111.93s4.91-45.79-35.24-91.65" fill="none" stroke="#00a7a8" stroke-miterlimit="10"/><path d="M22.44,2072.16s6-25.73-26.57-62" fill="none" stroke="#00a7a8" stroke-miterlimit="10"/><path d="M129.42,2192.31s-67.68,11-140.15-36.48" fill="none" stroke="#00a7a8" stroke-miterlimit="10"/><path d="M98.83,2157.53s-73.33-4.62-114.56-26" fill="none" stroke="#00a7a8" stroke-miterlimit="10"/><path d="M60.5,2116.43s-52.55-1.17-89.33-29.8" fill="none" stroke="#00a7a8" stroke-miterlimit="10"/><path d="M27.41,2082.4s-45.33-6.18-64-27.91" fill="none" stroke="#00a7a8" stroke-miterlimit="10"/><path d="M257.85,2154.31s55.37,5,98.34-18.74" fill="none" stroke="#00a7a8" stroke-miterlimit="10"/><path d="M281.27,2109.4s89.2-.53,134.25-48.58" fill="none" stroke="#00a7a8" stroke-miterlimit="10"/><path d="M302.84,2071.26s74.38,3.94,121.32-35.33" fill="none" stroke="#00a7a8" stroke-miterlimit="10"/><path d="M326.12,2033.6s48.64,5.13,106.92-48.74" fill="none" stroke="#00a7a8" stroke-miterlimit="10"/><path d="M355.18,1989.49s46.4-7.73,79.16-42.54" fill="none" stroke="#00a7a8" stroke-miterlimit="10"/><path d="M382.22,1948.23s31.31-11.58,49.68-31.54" fill="none" stroke="#00a7a8" stroke-miterlimit="10"/><path d="M378.24,1946.37s-1.5-43.48,3.8-74.07" fill="none" stroke="#00a7a8" stroke-miterlimit="10"/><path d="M354.52,1983.45s-16.82-35.71,2.26-98.93" fill="none" stroke="#00a7a8" stroke-miterlimit="10"/><path d="M329.15,2020.38s-28.38-64.39-2-127.18" fill="none" stroke="#00a7a8" stroke-miterlimit="10"/><path d="M303.89,2060.21s-35.49-60.76-15.65-141.65" fill="none" stroke="#00a7a8" stroke-miterlimit="10"/><path d="M276.6,2107.21s-37.53-64.38-14.46-161.79" fill="none" stroke="#00a7a8" stroke-miterlimit="10"/><path d="M229.84,1991.92c-25.64,115.75,22.36,163,22.36,163" fill="none" stroke="#00a7a8" stroke-miterlimit="10"/><path d="M214.89,2238.93s78.59-45.87,101.15-68.38" fill="none" stroke="#00a7a8" stroke-miterlimit="10"/><path d="M224.07,2219.4s-13.78-8.83-14.56-90.78" fill="none" stroke="#00a7a8" stroke-miterlimit="10"/></g><path d="M568.34,5.56S679,491.05,1341.94,585.36s237.2-189.9-86.22-240.27S695.46,46,669.08-26.17,535.6-114.28,568.34,5.56Z" fill="#00a7a8" opacity="0.1"/><path d="M1004.81,91.38s12.35-47.23,9.45-50-10.44-10.47-10.69,2-3.44,64-23.33,103.47c-29.7,9.81-73.82,8.69-118.54,5.88s-72.29,2.43-120.45-2-111-7.32-111-7.32l.61,1.68S748.12,154,772.46,155.59s46.26-3.46,115.33,1c60.94,3.92,92-5.76,92-5.76S950.6,225,897.13,321.37,793.52,468.17,762.88,551.48c1.22,3.36-3.07,12.52-3.07,12.52l8-17.17s26.1-61.71,80.09-138.28S949.68,233,982.14,154.71c11.27,20.62,59.27,84.95,116.75,143.94,61.62,63.26,117.31,121.9,117.31,121.9s-8.91-16.73-82.62-91.7-125-135.26-149.3-178.72C1003.88,99.32,1004.81,91.38,1004.81,91.38Z" fill="none" stroke="#e09e6b" stroke-miterlimit="10"/><path d="M964.89,154.3s-23.51-1.94-32.95-17.52-12-17.49-16.62-19.64-4.11-6.11-7-8.86-15.87-1.85-20.52-6.82S877.34,91,871.7,91.14s-10.3-4.82-16.49-3.53-9.15-4.29-15.87-1.86-12-4.21-17.55-1.24S810.42,82,804.3,86.09s-7.93-.92-13.51,2-8.54-2.61-14.65,1.5-7.33.76-13.44,4.87-14.59,4.33-19.63,6.16L722.91,108c-8.4,3-10.54,7.62-13.9,8.84l-15.12,5.47c-3.36,1.22-6.65,5.26-11.69,7.09s-8.32,5.86-15.65,6.62-14,6-25.27,6.3-21-2.85-7.19,6.4,19.53,11.93,19.53,11.93c3.43,1.61,1.75,2.22,6.93,6s3.51,4.44,10.38,7.65,5.79,5.5,13.8,9.25,2.43,6.72,11,9.33,5.79,5.5,12.59,5.89,8.08,6.58,16,7.5,7.48,4.9,13.74,6.43,7.47,4.9,20.52,6.82,10.83,3.68,21.59,4.53,16,4.68,22.67,2.24,11.37,2.54,19.16-2.19,10.76.86,22.52-3.4,48.16,4.41,26.83,32.09-30,22.25-33.77,27.43-2.68,5.73-9.94,9.3-4.36,6.33-9.93,9.3-11.76,4.26-12.76,9.37-9.93,9.3-10.33,16.1-6.11,4.11-8.71,12.66-7,12.05-6.89,17.7-8.26,8.69-7,14.87-5.82,15.41-4.53,21.6-5.43,8.61-3.53,16.48-1.46,9.08-.1,18.09-6,6.93-2.32,19.84-3.82,5.18,1.66,20.3-1.93,13.05.58,22.6,3.65,10.08,1,18.62-4.6,18.77-1.09,23.2c-4.75,13.13-4.39,27.25-3.63,34.58s5.89-12.59,12-16.7,8.33-5.87,11.76-4.26,5.43-8.62,8.86-7,13.91-8.84,17.34-7.23,8.47-.22,12.29-5.41,5.65-.14,14.52-7.15,7-1.58,16.26-4.94c5-1.83,9.62.31,15.65-6.62s6.19-1.29,13.91-8.84,6.11-4.12,15-11.13,6.79.39,15-11.12,5.64-.15,9.25-13.8,8.08,6.57,13.22-13.34c6.11-4.12,9.19-13.25,9.72-17.78.46-4,7.79-4.72,6.5-10.9s6.65-5.26,6.5-10.91,11.61-9.91,9.64-20.6,4.22-12,3.46-19.3,3.75-8,.64-19.24,7.18-6.4,2.92-18.16,6-9.76.56-22.06-9.73-26.88,6.53-31.82,28.22,20.19,29.58,29.2,3.43,1.61,8.23,12.22,8.76,11.08,16.31,18.8,10.83,3.68,17.31,13.68,5.79,5.51,17.31,13.69,12.51,3.07,19.45,9.1,11.9,1.39,17.7,6.9,11.37,2.53,17.16,8,6.18-1.29,14.8,4.14,11.91,1.39,16.48,3.54,7.41,2.07,13.13,4.74,6.72-2.43,13,1.93-2.37-3.9,16,7.5,27.6,18.51,8.25-8.69c-.68-4.51,2.07-7.4-2-13.51s.24-12.45-3.87-18.56.31-9.61-3.26-16.87,3.14-9.69-3.26-16.87,2-10.23-4.41-17.41-1.36-9-4.33-14.58-1.36-9-8.38-17.88,4.29-9.15-3.26-16.87-4.94-16.26-11.19-17.8-2.58-12.36-11.74-16.65c-1.36-9-7.23-17.34-12.87-17.19s-5.34-9.47-19.67-17.58,1.46-9.08-17.92-15.36-14-14.91-30.9-14.47-20.84,2.8-25-3.31-38.42,22.46-54.34-3.13" fill="none" stroke="#e09e6b" stroke-miterlimit="10"/><path d="M903.9,156.44s-33.65,54-59.39,64.27" fill="none" stroke="#e09e6b" stroke-miterlimit="10"/><path d="M861.46,154.71s-36.65,69.33-66,72.35" fill="none" stroke="#e09e6b" stroke-miterlimit="10"/><path d="M747.51,216.74c34.73-2.28,76.63-62.77,76.63-62.77s-8.66-29.17-81.6-52.16" fill="none" stroke="#e09e6b" stroke-miterlimit="10"/><path d="M708.3,198.78c30.14,7.14,74.53-42.74,74.53-42.74s-19.12-22-73.82-39.23" fill="none" stroke="#e09e6b" stroke-miterlimit="10"/><path d="M670.93,174.31c26.17,6.67,70.63-22.73,70.63-22.73s-31-20.12-59.36-22.21" fill="none" stroke="#e09e6b" stroke-miterlimit="10"/><path d="M861.46,154.71s10.28-39.83-70.67-66.57" fill="none" stroke="#e09e6b" stroke-miterlimit="10"/><path d="M907.72,153.86s-12.39-44.68-68.38-68.11" fill="none" stroke="#e09e6b" stroke-miterlimit="10"/><path d="M1019.41,317.94c-14.92-30.7-3-115.79-3-115.79s37.57-11.71,121.35,15" fill="none" stroke="#e09e6b" stroke-miterlimit="10"/><path d="M1049.12,242.57s-20.08,45.77,15.29,117.75" fill="none" stroke="#e09e6b" stroke-miterlimit="10"/><path d="M1067.79,265.26s5,77,46.65,118.49" fill="none" stroke="#e09e6b" stroke-miterlimit="10"/><path d="M1106.74,307.21s-4.56,42.51,32.71,85.07" fill="none" stroke="#e09e6b" stroke-miterlimit="10"/><path d="M1044.56,232.6s62.82-10.19,130.09,33.86" fill="none" stroke="#e09e6b" stroke-miterlimit="10"/><path d="M1073,264.89S1141,269.18,1179.29,289" fill="none" stroke="#e09e6b" stroke-miterlimit="10"/><path d="M1108.53,303s48.78,1.09,82.92,27.67" fill="none" stroke="#e09e6b" stroke-miterlimit="10"/><path d="M925.35,267.88s-51.39-4.68-91.28,17.4" fill="none" stroke="#e09e6b" stroke-miterlimit="10"/><path d="M903.61,309.56s-82.8.5-124.6,45.1" fill="none" stroke="#e09e6b" stroke-miterlimit="10"/><path d="M883.59,345s-69-3.65-112.61,32.8" fill="none" stroke="#e09e6b" stroke-miterlimit="10"/><path d="M862,379.92s-45.14-4.76-99.24,45.24" fill="none" stroke="#e09e6b" stroke-miterlimit="10"/><path d="M835,420.87s-43.07,7.17-73.48,39.48" fill="none" stroke="#e09e6b" stroke-miterlimit="10"/><path d="M809.91,459.16s-29.07,10.75-46.11,29.28" fill="none" stroke="#e09e6b" stroke-miterlimit="10"/><path d="M813.6,460.89s1.4,40.36-3.52,68.75" fill="none" stroke="#e09e6b" stroke-miterlimit="10"/><path d="M835.62,426.47s15.61,33.15-2.09,91.82" fill="none" stroke="#e09e6b" stroke-miterlimit="10"/><path d="M859.17,392.19S885.51,452,861,510.24" fill="none" stroke="#e09e6b" stroke-miterlimit="10"/><path d="M882.62,355.23s32.94,56.39,14.53,131.47" fill="none" stroke="#e09e6b" stroke-miterlimit="10"/><path d="M908,311.59s34.83,59.76,13.42,150.18" fill="none" stroke="#e09e6b" stroke-miterlimit="10"/><path d="M930.6,267.29s44.55,43.88,20.75,151.32" fill="none" stroke="#e09e6b" stroke-miterlimit="10"/><path d="M965.22,189.34s-72.94,42.57-93.88,63.46" fill="none" stroke="#e09e6b" stroke-miterlimit="10"/><path d="M956.71,207.46s12.79,8.2,13.52,84.27" fill="none" stroke="#e09e6b" stroke-miterlimit="10"/></svg>