<svg xmlns="http://www.w3.org/2000/svg" viewBox="0 0 768 1129"><title>bg_ipad</title><g opacity="0.5"><path d="M95.9,106.83c-10.33,10.75-1.3,24.84,4.73,42.55s12.6,30.23,29.49,32S143.46,167,143.93,150,106.22,96.09,95.9,106.83Z" fill="none" stroke="#aad04a" stroke-miterlimit="10"/><path d="M128.13,137.81c-5.27-6.5-12.94-14.5-18.68-9.84s-1.37,13,4.18,22.77,13.34,10.6,16.35,7S132.78,143.55,128.13,137.81Z" fill="none" stroke="#aad04a" stroke-miterlimit="10"/><path d="M114,126.62s8.54,1.45,12.38,9-1.15,17.6-9.43,8.85S105.2,126.51,114,126.62Z" fill="none" stroke="#aad04a" stroke-miterlimit="10"/><path d="M98.4,143.23s9.56,24,19.68,27.69,22.37-.28,22.71-16-11.24-31.28-11.24-31.28-19.22-16.6-27.16-16.11-10.25,4.73-9.63,20.29" fill="none" stroke="#aad04a" stroke-miterlimit="10"/></g><g opacity="0.5"><path d="M109.48,560.87C99.84,557,93.06,566.49,83.16,575S66.85,591,70.1,602.42s12.77,4.9,23.92.78S119.12,564.76,109.48,560.87Z" fill="none" stroke="#aad04a" stroke-miterlimit="10"/><path d="M97.8,589.8c2.84-5.1,6-12.15,1.52-14.66s-8.78,2.5-13.67,8.63-3.39,11.4-.26,12.4S95.29,594.31,97.8,589.8Z" fill="none" stroke="#aad04a" stroke-miterlimit="10"/><path d="M101.36,577.71s1.29,5.91-2.64,10.38-11.7,3.83-8.18-3.81S99.16,572,101.36,577.71Z" fill="none" stroke="#aad04a" stroke-miterlimit="10"/><path d="M86.56,572S73.5,584.38,73.74,591.9s6,14.42,16.28,10.54S107.35,587,107.35,587s5.75-16.77,3.38-21.78-5.73-5.42-15.65-1" fill="none" stroke="#aad04a" stroke-miterlimit="10"/></g><g opacity="0.5"><path d="M622.27,493.15c-9.65,10.77-.4,24.13,6.06,41.1s13.26,28.89,29.71,30,12.44-14.4,12.31-30.94S631.91,482.37,622.27,493.15Z" fill="none" stroke="#aad04a" stroke-miterlimit="10"/><path d="M654.6,522.08c-5.33-6.13-13.05-13.62-18.46-8.9s-.87,12.65,4.84,22,13.31,9.82,16.11,6.19S659.31,527.49,654.6,522.08Z" fill="none" stroke="#aad04a" stroke-miterlimit="10"/><path d="M640.47,511.71s8.34,1.11,12.32,8.36-.5,17.11-8.84,8.9S632,511.91,640.47,511.71Z" fill="none" stroke="#aad04a" stroke-miterlimit="10"/><path d="M626,528.37s10.1,23,20,26.18,21.69-1,21.47-16.32-12-30-12-30-19.23-15.44-26.91-14.7-9.78,4.95-8.64,20" fill="none" stroke="#aad04a" stroke-miterlimit="10"/></g><g opacity="0.5"><path d="M585.26,814.83c-5.26-3.21-10.15,1.69-16.77,5.71s-11.09,7.78-10.3,14.76,7,4.11,13.92,2.78S590.52,818.05,585.26,814.83Z" fill="none" stroke="#aad04a" stroke-miterlimit="10"/><path d="M575.62,830.61c2.15-2.7,4.7-6.51,2.31-8.42s-5.37.61-8.83,3.72-3.09,6.33-1.36,7.23S573.71,833,575.62,830.61Z" fill="none" stroke="#aad04a" stroke-miterlimit="10"/><path d="M578.88,823.89a7.64,7.64,0,0,1-2.56,5.81c-2.73,2.23-7.21,1.1-4.41-3S578.14,820.34,578.88,823.89Z" fill="none" stroke="#aad04a" stroke-miterlimit="10"/><path d="M570.78,819.09s-8.85,6-9.44,10.42,2.11,9,8.5,7.74,11.63-7.32,11.63-7.32,5-9.25,4.09-12.41-2.82-3.72-9-2.09" fill="none" stroke="#aad04a" stroke-miterlimit="10"/></g><path d="M11.31,847.66s154.18-80.95,198.52,38.63,184.74-43,251.25,60.46-159.22,182.06-329.85,182.06S-50.83,1093.2-47.47,970.94,11.31,847.66,11.31,847.66Z" fill="#ffecdb"/><g opacity="0.5"><path d="M130.12,967.15s-6.57,25.12-5,26.58,5.55,5.57,5.68-1.05,1.83-34,12.41-55c15.8-5.22,39.25-4.62,63-3.13s38.44-1.29,64,1.05,59,3.89,59,3.89l-.32-.89s-62.34-4.71-75.28-5.57-24.6,1.83-61.32-.53c-32.41-2.08-48.91,3.07-48.91,3.07s15.51-39.47,43.94-90.7,55.09-78.05,71.38-122.35c-.64-1.78,1.64-6.65,1.64-6.65L256.11,725s-13.88,32.82-42.58,73.53-54.1,93.36-71.36,135c-6-11-31.52-45.17-62.08-76.54-32.76-33.63-62.37-64.81-62.37-64.81s4.73,8.9,43.93,48.76,66.47,71.92,79.38,95C130.61,962.93,130.12,967.15,130.12,967.15Z" fill="none" stroke="#00a7a8" stroke-miterlimit="10"/><path d="M151.34,933.7s12.5,1,17.52,9.31,6.41,9.31,8.84,10.45,2.19,3.25,3.73,4.71,8.44,1,10.91,3.62,5.55,5.57,8.56,5.49,5.47,2.57,8.76,1.88,4.87,2.28,8.44,1,6.37,2.24,9.33.66,6,1.34,9.3-.84,4.22.49,7.18-1.09,4.55,1.39,7.8-.8,3.89-.4,7.14-2.59,7.76-2.3,10.44-3.27L280,958.33c4.46-1.61,5.6-4.05,7.39-4.69l8-2.92c1.78-.64,3.53-2.79,6.21-3.76s4.43-3.12,8.33-3.52,7.43-3.2,13.43-3.35,11.16,1.51,3.82-3.41a93.21,93.21,0,0,0-10.38-6.34c-1.82-.86-.93-1.18-3.69-3.21s-1.86-2.36-5.51-4.07-3.08-2.93-7.34-4.92-1.3-3.57-5.84-5-3.08-2.92-6.69-3.13-4.3-3.5-8.52-4-4-2.6-7.3-3.42-4-2.6-10.91-3.62-5.76-2-11.49-2.41-8.47-2.49-12.05-1.2-6-1.34-10.19,1.17-5.72-.46-12,1.81-25.61-2.35-14.26-17.06S217,869.5,219,866.74s1.43-3,5.28-5,2.32-3.36,5.29-4.94,6.25-2.27,6.78-5,5.28-5,5.49-8.56,3.25-2.19,4.64-6.73,3.74-6.41,3.66-9.41,4.39-4.62,3.7-7.91,3.1-8.2,2.41-11.48,2.89-4.59,1.88-8.77.78-4.83.05-9.62,3.21-3.69,1.23-10.55,2-2.75-.87-10.79,1-6.94-.31-12-1.95-5.36-.56-9.9,2.45-10,.58-12.34c2.53-7,2.34-14.48,1.93-18.38s-3.13,6.69-6.38,8.88-4.43,3.12-6.25,2.27-2.89,4.58-4.71,3.72-7.4,4.7-9.22,3.85-4.51.11-6.54,2.87-3,.08-7.71,3.81-3.72.84-8.65,2.62c-2.68,1-5.12-.17-8.33,3.52s-3.29.69-7.39,4.7-3.25,2.19-8,5.92-3.61-.21-8,5.91-3,.08-4.92,7.34-4.3-3.49-7,7.09c-3.25,2.19-4.89,7.05-5.17,9.45-.25,2.11-4.14,2.52-3.46,5.8S155,796,155.09,799s-6.18,5.27-5.13,10.95-2.24,6.37-1.84,10.27-2,4.26-.34,10.23-3.82,3.4-1.55,9.65-3.17,5.19-.3,11.73,5.18,14.29-3.47,16.92-15-10.73-15.73-15.52-1.82-.86-4.37-6.5-4.66-5.89-8.68-10-5.76-2-9.2-7.27-3.08-2.93-9.2-7.28-6.66-1.63-10.35-4.84-6.33-.74-9.41-3.67-6-1.34-9.12-4.27-3.29.69-7.87-2.2-6.33-.74-8.77-1.88-3.93-1.1-7-2.52-3.57,1.29-6.93-1,1.25,2.08-8.52-4-14.68-9.84-4.39,4.62c.36,2.39-1.1,3.93,1.09,7.18s-.13,6.62,2,9.87-.17,5.11,1.74,9-1.67,5.15,1.73,9-1.06,5.44,2.34,9.26.73,4.79,2.31,7.75.72,4.79,4.45,9.5-2.28,4.87,1.73,9,2.63,8.65,6,9.47,1.37,6.57,6.24,8.85c.72,4.79,3.84,9.22,6.84,9.14s2.84,5,10.46,9.35-.78,4.83,9.53,8.17,7.42,7.92,16.43,7.69,11.08-1.49,13.26,1.76c2.45,3.63,20-12.62,28.9,1.66" fill="none" stroke="#00a7a8" stroke-miterlimit="10"/><path d="M183.77,932.56s17.9-28.71,31.58-34.17" fill="none" stroke="#00a7a8" stroke-miterlimit="10"/><path d="M206.34,933.48s19.48-36.86,35.07-38.47" fill="none" stroke="#00a7a8" stroke-miterlimit="10"/><path d="M266.93,900.5c-18.47,1.21-40.75,33.37-40.75,33.37s4.61,15.51,43.39,27.74" fill="none" stroke="#00a7a8" stroke-miterlimit="10"/><path d="M287.78,910.05c-16-3.8-39.63,22.73-39.63,22.73s10.16,11.69,39.25,20.86" fill="none" stroke="#00a7a8" stroke-miterlimit="10"/><path d="M307.65,923.06c-13.92-3.55-37.56,12.09-37.56,12.09S286.6,945.84,301.65,947" fill="none" stroke="#00a7a8" stroke-miterlimit="10"/><path d="M206.34,933.48s-5.47,21.18,37.57,35.4" fill="none" stroke="#00a7a8" stroke-miterlimit="10"/><path d="M181.74,933.93s6.59,23.76,36.36,36.22" fill="none" stroke="#00a7a8" stroke-miterlimit="10"/><path d="M122.36,846.69c7.93,16.32,1.58,61.57,1.58,61.57s-20,6.22-64.52-8" fill="none" stroke="#00a7a8" stroke-miterlimit="10"/><path d="M106.56,886.77s10.67-24.34-8.14-62.62" fill="none" stroke="#00a7a8" stroke-miterlimit="10"/><path d="M96.63,874.7s-2.64-41-24.81-63" fill="none" stroke="#00a7a8" stroke-miterlimit="10"/><path d="M75.92,852.39s2.42-22.6-17.39-45.23" fill="none" stroke="#00a7a8" stroke-miterlimit="10"/><path d="M56.18,832.77s3-12.7-13.11-30.62" fill="none" stroke="#00a7a8" stroke-miterlimit="10"/><path d="M109,892.07s-33.4,5.41-69.17-18" fill="none" stroke="#00a7a8" stroke-miterlimit="10"/><path d="M93.88,874.9s-36.19-2.28-56.54-12.84" fill="none" stroke="#00a7a8" stroke-miterlimit="10"/><path d="M75,854.62S49,854,30.88,839.9" fill="none" stroke="#00a7a8" stroke-miterlimit="10"/><path d="M58.64,837.82S36.26,834.77,27,824" fill="none" stroke="#00a7a8" stroke-miterlimit="10"/><path d="M172.37,873.31s27.32,2.49,48.53-9.25" fill="none" stroke="#00a7a8" stroke-miterlimit="10"/><path d="M183.93,851.15s44-.27,66.25-24" fill="none" stroke="#00a7a8" stroke-miterlimit="10"/><path d="M194.57,832.32s36.71,1.94,59.88-17.44" fill="none" stroke="#00a7a8" stroke-miterlimit="10"/><path d="M206.06,813.73s24,2.54,52.77-24.05" fill="none" stroke="#00a7a8" stroke-miterlimit="10"/><path d="M220.4,792s22.9-3.81,39.07-21" fill="none" stroke="#00a7a8" stroke-miterlimit="10"/><path d="M233.75,771.6s15.45-5.72,24.52-15.57" fill="none" stroke="#00a7a8" stroke-miterlimit="10"/><path d="M231.78,770.68s-.74-21.46,1.88-36.55" fill="none" stroke="#00a7a8" stroke-miterlimit="10"/><path d="M220.08,789s-8.3-17.62,1.11-48.82" fill="none" stroke="#00a7a8" stroke-miterlimit="10"/><path d="M207.56,807.21s-14-31.78-1-62.77" fill="none" stroke="#00a7a8" stroke-miterlimit="10"/><path d="M195.09,826.86s-17.52-30-7.73-69.9" fill="none" stroke="#00a7a8" stroke-miterlimit="10"/><path d="M181.62,850.07s-18.52-31.78-7.14-79.86" fill="none" stroke="#00a7a8" stroke-miterlimit="10"/><path d="M158.54,793.16c-12.65,57.13,11,80.46,11,80.46" fill="none" stroke="#00a7a8" stroke-miterlimit="10"/><path d="M151.16,915.07s38.79-22.64,49.93-33.74" fill="none" stroke="#00a7a8" stroke-miterlimit="10"/><path d="M155.69,905.43s-6.8-4.36-7.18-44.8" fill="none" stroke="#00a7a8" stroke-miterlimit="10"/></g><path d="M459.11-5.32s54.61,239.61,381.8,286.16S958,187.12,798.36,162.25,521.85,14.65,508.83-21,443-64.46,459.11-5.32Z" fill="#00a7a8" opacity="0.1"/><path d="M674.52,37s6.1-23.31,4.67-24.67-5.16-5.17-5.28,1-1.69,31.57-11.51,51.07c-14.66,4.84-36.44,4.29-58.51,2.9s-35.67,1.2-59.44-1-54.77-3.61-54.77-3.61l.3.83s57.86,4.37,69.87,5.18,22.83-1.71,56.92.48c30.08,1.93,45.4-2.84,45.4-2.84s-14.4,36.63-40.79,84.18S570.24,223,555.12,264.12c.6,1.66-1.51,6.17-1.51,6.17l4-8.47s12.89-30.46,39.53-68.24,50.21-86.66,66.23-125.29c5.57,10.18,29.26,41.93,57.63,71.05,30.41,31.21,57.89,60.15,57.89,60.15s-4.39-8.25-40.77-45.25S676.38,87.48,664.39,66C674.07,41,674.52,37,674.52,37Z" fill="none" stroke="#e09e6b" stroke-miterlimit="10"/><path d="M654.82,68.09s-11.6-1-16.26-8.64-5.94-8.64-8.2-9.7-2-3-3.46-4.37-7.84-.91-10.13-3.37-5.16-5.16-7.94-5.09-5.09-2.38-8.14-1.74-4.52-2.12-7.83-.92-5.91-2.08-8.67-.61-5.61-1.25-8.62.78-3.92-.46-6.67,1-4.22-1.29-7.24.74-3.61.37-6.63,2.4-7.2,2.14-9.68,3l-10,3.61c-4.15,1.5-5.21,3.76-6.87,4.36l-7.46,2.7c-1.66.6-3.28,2.59-5.77,3.5s-4.11,2.89-7.72,3.26-6.9,3-12.47,3.11-10.36-1.4-3.55,3.16a85.92,85.92,0,0,0,9.64,5.89c1.69.8.86,1.1,3.42,3s1.73,2.19,5.12,3.78,2.86,2.71,6.81,4.56,1.2,3.32,5.42,4.61,2.86,2.71,6.21,2.9,4,3.25,7.91,3.71,3.69,2.41,6.78,3.17,3.68,2.42,10.12,3.36,5.35,1.82,10.66,2.24,7.87,2.31,11.19,1.11,5.61,1.25,9.46-1.08,5.31.42,11.11-1.68,23.77,2.17,13.24,15.83-14.78,11-16.67,13.54-1.32,2.83-4.9,4.59-2.15,3.13-4.9,4.59-5.81,2.11-6.3,4.63-4.9,4.59-5.1,7.94-3,2-4.3,6.25-3.47,5.95-3.4,8.73-4.07,4.29-3.44,7.35-2.87,7.6-2.23,10.65-2.68,4.26-1.75,8.14-.72,4.48,0,8.93-3,3.42-1.15,9.79-1.88,2.56.82,10-.95,6.44.29,11.15,1.8,5,.51,9.19-2.27,9.27-.54,11.46a40.61,40.61,0,0,0-1.79,17.06c.37,3.61,2.91-6.21,5.92-8.24s4.11-2.9,5.81-2.11,2.68-4.25,4.37-3.46,6.86-4.36,8.56-3.56,4.18-.11,6.06-2.67,2.79-.07,7.17-3.53,3.44-.78,8-2.44c2.49-.9,4.75.15,7.73-3.27s3.05-.64,6.86-4.36,3-2,7.39-5.49,3.35.19,7.39-5.49,2.79-.07,4.57-6.81,4,3.24,6.52-6.59c3-2,4.54-6.54,4.8-8.77.23-2,3.85-2.33,3.21-5.38s3.28-2.6,3.21-5.39,5.73-4.89,4.76-10.16,2.08-5.91,1.7-9.53,1.86-4,.32-9.49,3.54-3.16,1.44-9,2.95-4.81.28-10.88-4.81-13.27,3.22-15.71,13.93,10,14.6,14.41,1.69.8,4.06,6,4.32,5.47,8,9.28,5.35,1.82,8.54,6.76,2.86,2.71,8.54,6.75,6.18,1.51,9.6,4.49,5.88.69,8.74,3.41,5.61,1.25,8.47,4,3.05-.63,7.31,2.05,5.87.68,8.13,1.74,3.65,1,6.48,2.34,3.31-1.2,6.44,1-1.17-1.92,7.9,3.7,13.63,9.14,4.08-4.28c-.34-2.23,1-3.66-1-6.67s.12-6.14-1.91-9.16.16-4.75-1.61-8.33,1.55-4.78-1.61-8.32,1-5.05-2.17-8.6-.68-4.44-2.14-7.19-.67-4.45-4.13-8.82,2.11-4.52-1.61-8.33-2.44-8-5.53-8.79-1.27-6.1-5.79-8.22c-.67-4.44-3.57-8.55-6.36-8.48s-2.63-4.67-9.7-8.68.72-4.48-8.85-7.58-6.88-7.35-15.24-7.14S696.06,77.07,694,74.06s-19,11.09-26.82-1.54" fill="none" stroke="#e09e6b" stroke-miterlimit="10"/><path d="M624.72,69.15s-16.61,26.65-29.31,31.72" fill="none" stroke="#e09e6b" stroke-miterlimit="10"/><path d="M603.78,68.29S585.69,102.51,571.22,104" fill="none" stroke="#e09e6b" stroke-miterlimit="10"/><path d="M547.53,98.91c17.15-1.13,37.83-31,37.83-31s-4.28-14.4-40.28-25.74" fill="none" stroke="#e09e6b" stroke-miterlimit="10"/><path d="M528.18,90C543.06,93.57,565,69,565,69s-9.44-10.85-36.44-19.36" fill="none" stroke="#e09e6b" stroke-miterlimit="10"/><path d="M509.74,78c12.92,3.29,34.86-11.22,34.86-11.22s-15.32-9.93-29.3-11" fill="none" stroke="#e09e6b" stroke-miterlimit="10"/><path d="M603.78,68.29s5.07-19.66-34.88-32.85" fill="none" stroke="#e09e6b" stroke-miterlimit="10"/><path d="M626.61,67.87s-6.12-22.05-33.75-33.61" fill="none" stroke="#e09e6b" stroke-miterlimit="10"/><path d="M681.73,148.85c-7.37-15.15-1.47-57.14-1.47-57.14s18.54-5.78,59.88,7.38" fill="none" stroke="#e09e6b" stroke-miterlimit="10"/><path d="M696.39,111.65s-9.91,22.6,7.55,58.12" fill="none" stroke="#e09e6b" stroke-miterlimit="10"/><path d="M705.61,122.85s2.45,38,23,58.48" fill="none" stroke="#e09e6b" stroke-miterlimit="10"/><path d="M724.83,143.56s-2.25,21,16.15,42" fill="none" stroke="#e09e6b" stroke-miterlimit="10"/><path d="M743.15,161.78s-2.76,11.79,12.17,28.42" fill="none" stroke="#e09e6b" stroke-miterlimit="10"/><path d="M694.14,106.74s31-5,64.21,16.71" fill="none" stroke="#e09e6b" stroke-miterlimit="10"/><path d="M708.16,122.67s33.59,2.12,52.48,11.92" fill="none" stroke="#e09e6b" stroke-miterlimit="10"/><path d="M725.72,141.5s24.07.53,40.92,13.65" fill="none" stroke="#e09e6b" stroke-miterlimit="10"/><path d="M740.87,157.09s20.77,2.83,29.33,12.78" fill="none" stroke="#e09e6b" stroke-miterlimit="10"/><path d="M635.31,124.15s-25.37-2.31-45,8.58" fill="none" stroke="#e09e6b" stroke-miterlimit="10"/><path d="M624.58,144.72s-40.87.24-61.5,22.25" fill="none" stroke="#e09e6b" stroke-miterlimit="10"/><path d="M614.7,162.19s-34.08-1.8-55.58,16.19" fill="none" stroke="#e09e6b" stroke-miterlimit="10"/><path d="M604,179.45s-22.28-2.36-49,22.32" fill="none" stroke="#e09e6b" stroke-miterlimit="10"/><path d="M590.72,199.65s-21.26,3.54-36.26,19.49" fill="none" stroke="#e09e6b" stroke-miterlimit="10"/><path d="M578.33,218.55S564,223.86,555.58,233" fill="none" stroke="#e09e6b" stroke-miterlimit="10"/><path d="M580.16,219.41s.69,19.92-1.74,33.93" fill="none" stroke="#e09e6b" stroke-miterlimit="10"/><path d="M591,202.42s7.71,16.36-1,45.32" fill="none" stroke="#e09e6b" stroke-miterlimit="10"/><path d="M602.64,185.5s13,29.5.91,58.26" fill="none" stroke="#e09e6b" stroke-miterlimit="10"/><path d="M614.22,167.26s16.26,27.83,7.17,64.88" fill="none" stroke="#e09e6b" stroke-miterlimit="10"/><path d="M626.72,145.72s17.19,29.49,6.63,74.12" fill="none" stroke="#e09e6b" stroke-miterlimit="10"/><path d="M637.9,123.86s22,21.65,10.24,74.68" fill="none" stroke="#e09e6b" stroke-miterlimit="10"/><path d="M655,85.38s-36,21-46.34,31.32" fill="none" stroke="#e09e6b" stroke-miterlimit="10"/><path d="M650.78,94.33s6.32,4,6.68,41.59" fill="none" stroke="#e09e6b" stroke-miterlimit="10"/></svg>